<?xml version="1.0" encoding="utf-8"?>
<!-- Generator: Adobe Illustrator 25.1.0, SVG Export Plug-In . SVG Version: 6.00 Build 0)  -->
<svg version="1.1" id="Layer_1" xmlns="http://www.w3.org/2000/svg" xmlns:xlink="http://www.w3.org/1999/xlink" x="0px" y="0px"
	 viewBox="0 0 447 135" style="enable-background:new 0 0 447 135;" xml:space="preserve">
<style type="text/css">
	.st0{fill:#B45314;}
	.st1{fill:#FFF200;}
	.st2{fill:#FDB913;}
	.st3{fill:#FFFFFF;}
	.st4{fill:#F7941D;}
	.st5{fill:#FAA74A;}
	.st6{fill:url(#SVGID_1_);}
	.st7{fill:url(#SVGID_2_);}
	.st8{fill:url(#SVGID_3_);}
	.st9{fill:url(#SVGID_4_);}
	.st10{fill:url(#SVGID_5_);}
	.st11{fill:url(#SVGID_6_);}
	.st12{fill:url(#SVGID_7_);}
	.st13{fill:url(#SVGID_8_);}
	.st14{fill:#8B0304;}
</style>
<g>
	<g>
		<path class="st0" d="M14.9,67.7c1.1-2.5,1.7-2.9,4.5-3.3c0.8-3.7,3.8-4.7,6.3-3.5c1-3.2,1.9-6.6,3.2-9.8c1.3-3.2,3.1-6.2,4.7-9.2
			c-1.3-0.4-2.3-1.3-2.8-2.8s-0.1-2.8,0.8-4c-1.9-2.6-1.9-4.7-0.1-6.4c1.8-1.6,4-1.5,6.1,0.3c2.6-1.9,5.9-1,7,2.3
			c5.8-4,12.1-6.7,19.1-7.9c-0.7-1.4-0.9-2.8-0.1-4.2c0.7-1.4,2-2,3.5-2.3c0-2.4,1.2-3.8,3.3-4.5c0.6,0,1.2,0,1.9,0
			c2.1,0.8,3.3,2.1,3.3,4.4c3.7,0.8,4.8,3.8,3.4,6.6c6.9,1.2,13.3,3.8,19,7.9c1.5-3.7,4.7-3.9,7-2.2c2.5-1.9,4.7-1.9,6.3-0.1
			c1.6,1.8,1.5,4-0.3,6.1c1.9,2.6,1.1,5.9-2.3,7c4.1,5.8,6.7,12.1,7.9,19c3.2-1.4,5.9,0.1,6.6,3.4c2.9,0.4,4.4,1.8,4.5,4.2
			c0,2.5-1.5,3.9-4.5,4.3c-0.8,3.7-3.9,4.7-6.5,3.3c-1.2,6.9-3.8,13.3-7.9,19.1c1.5,0.5,2.6,1.4,3.1,2.8c0.5,1.5,0.1,2.8-0.8,4
			c1.9,2.6,1.9,4.7,0.1,6.4c-1.8,1.6-4,1.5-6.1-0.3c-2.6,1.9-5.9,1.1-7-2.3c-5.8,4.1-12.1,6.7-19.1,7.9c0.7,1.4,0.9,2.8,0.1,4.2
			c-0.7,1.4-2,2-3.4,2.2c-0.4,3-1.8,4.5-4.2,4.5c-2.5,0-3.9-1.5-4.3-4.5c-3.8-1.4-4.6-3-3.4-6.5c-6.9-1.2-13.3-3.8-19.1-7.9
			c-0.5,1.5-1.3,2.6-2.8,3.1s-2.8,0.1-4.1-0.9c-1,1-2.2,1.8-3.7,1.4c-0.9-0.2-2-0.7-2.7-1.4c-1.7-1.6-1.5-3.9,0.3-6
			c-1.7-3.5-1-5.8,2.3-7C30,89.3,27.3,83,26.1,76c-1.4,0.7-2.8,0.9-4.2,0.1c-1.4-0.7-2-2-2.3-3.5c-2.4,0-3.8-1.2-4.5-3.3
			C14.9,69,14.9,68.3,14.9,67.7z M25.7,68.6c-0.1,25,20.2,45.4,45.3,45.5s45.6-20.2,45.7-45.4c0.1-25.1-20.2-45.5-45.3-45.6
			C46.2,23.1,25.8,43.4,25.7,68.6z M36.6,32.6c0,1,0.6,2,1.9,2.8c0.4,0.3,0.8,0.2,1.2-0.1c1.3-1.1,2.6-2.3,3.9-3.3
			c0.4-0.4,0.5-0.7,0.3-1.2c-0.6-1.6-2.3-2.6-4.2-2.3C38,28.8,36.6,30.4,36.6,32.6z M35.2,103.2c1,0,2.1-0.6,2.8-1.9
			c0.3-0.5,0.2-0.8-0.1-1.2c-1.1-1.3-2.2-2.5-3.3-3.9c-0.4-0.5-0.8-0.6-1.4-0.3c-1.6,0.7-2.5,2.4-2.2,4.2
			C31.4,101.9,33,103.2,35.2,103.2z M40.4,108.9c1.5,0,2.9-0.9,3.4-2.3c0.2-0.6,0.2-0.9-0.4-1.4c-1.3-1-2.6-2.1-3.8-3.2
			c-0.5-0.5-0.9-0.4-1.4-0.1c-1.4,0.9-2,2.6-1.6,4.1C37.2,107.7,38.7,108.9,40.4,108.9z M35.2,34.1c-2.3,0-3.9,1.4-4.2,3.1
			c-0.3,1.8,0.6,3.5,2.3,4.2c0.5,0.2,0.8,0.1,1.2-0.3c1.1-1.3,2.2-2.6,3.3-3.9c0.4-0.4,0.4-0.7,0.1-1.2
			C37.2,34.7,36.2,34.1,35.2,34.1z M79,116c-0.1-0.3-0.2-0.9-0.5-1.4c-0.1-0.2-0.6-0.5-0.9-0.5c-1.8,0.1-3.5,0.3-5.3,0.5
			c-0.3,0-0.7,0.4-0.8,0.6c-0.5,1.5,0,2.8,1.1,3.8c1.2,1,2.6,1.2,4,0.6C78.2,119,78.9,117.9,79,116z M122.5,64.8
			c0.1-2.8-2.8-4.8-5.3-3.5c-0.3,0.1-0.6,0.6-0.6,0.9c0.1,1.8,0.3,3.5,0.4,5.3c0,0.5,0.3,0.7,0.8,0.9
			C120.1,68.9,122.4,67.2,122.5,64.8z M111.4,99.4c0-1.5-0.9-2.8-2.2-3.4c-0.6-0.3-1-0.2-1.4,0.4c-1,1.3-2.1,2.6-3.2,3.8
			c-0.4,0.4-0.4,0.8-0.1,1.2c0.8,1.4,2.5,2.1,4.1,1.7C110.2,102.7,111.4,101.2,111.4,99.4z M107.1,34.1c-0.9,0-1.9,0.6-2.7,1.9
			c-0.3,0.4-0.2,0.8,0.1,1.2c1.1,1.3,2.2,2.5,3.3,3.9c0.4,0.5,0.8,0.6,1.4,0.3c1.6-0.7,2.5-2.4,2.2-4.2
			C111,35.4,109.4,34.1,107.1,34.1z M105.8,104.6c0-1-0.6-2-1.9-2.8c-0.4-0.3-0.8-0.3-1.2,0.1c-1.3,1.1-2.5,2.2-3.9,3.3
			c-0.5,0.4-0.6,0.8-0.4,1.4c0.7,1.6,2.4,2.6,4.2,2.2C104.5,108.5,105.8,106.9,105.8,104.6z M71,116.2c0-1.4-0.2-1.6-1.6-1.7
			c-1.5-0.1-3-0.2-4.6-0.4c-0.6-0.1-0.9,0.2-1.1,0.6c-0.6,1.3-0.3,3,0.7,4.1c1,1.1,2.7,1.5,4.1,0.9C70,119.1,71,117.7,71,116.2z
			 M122.5,72.6c0-2.4-2.3-4.2-4.6-3.6c-0.6,0.1-0.8,0.4-0.9,1c-0.1,1.7-0.3,3.4-0.5,5.1c-0.1,0.5,0.1,0.8,0.6,1
			C119.7,77.3,122.5,75.4,122.5,72.6z M105.8,32.6c0-2.2-1.4-3.9-3.1-4.1c-1.8-0.3-3.5,0.6-4.2,2.3c-0.2,0.5-0.1,0.8,0.3,1.2
			c1.3,1.1,2.6,2.2,3.9,3.3c0.4,0.4,0.7,0.4,1.2,0.1C105.1,34.7,105.8,33.6,105.8,32.6z M67.2,17.3c-2.8,0-4.6,2.9-3.4,5.3
			c0.1,0.3,0.6,0.5,0.9,0.5c1.7-0.1,3.4-0.3,5.1-0.4c0.7,0,0.9-0.3,1-0.9C71.4,19.5,69.6,17.3,67.2,17.3z M75.2,17.3
			c-2.5,0-4.3,2.3-3.7,4.6c0.1,0.5,0.3,0.8,0.9,0.8c1.7,0.1,3.5,0.3,5.2,0.4c0.3,0,0.8-0.2,0.9-0.5C79.9,20.2,78,17.3,75.2,17.3z
			 M23.6,68.4c1.4,0,1.7-0.2,1.8-1.6c0.1-1.5,0.2-3,0.4-4.6c0.1-0.6-0.1-0.9-0.6-1.1c-1.3-0.6-3-0.3-4.1,0.7s-1.5,2.7-0.9,4.1
			C20.7,67.4,22.1,68.4,23.6,68.4z M19.9,72.7c0,2.8,2.9,4.6,5.3,3.4c0.3-0.1,0.6-0.6,0.6-0.9c-0.1-1.8-0.3-3.5-0.4-5.3
			c0-0.5-0.2-0.8-0.7-0.9C22.2,68.3,19.9,70.2,19.9,72.7z M123,68.8c1.1,0.5,2,1.5,2.4,3c1.2-0.9,1.7-1.9,1.7-3.2
			c0-1.3-0.5-2.3-1.5-2.9C124.7,66.8,123.9,67.8,123,68.8z M74.2,14.2c-0.6-0.9-1.7-1.4-2.9-1.5c-1.3,0-2.4,0.5-3.1,1.6
			c0.7,0.4,1.3,0.6,1.8,1.1c0.5,0.4,0.9,1,1.2,1.4C72.1,15.9,73.1,15.1,74.2,14.2z M68.2,123.1c0.7,1,1.9,1.5,3.3,1.4
			c1.2-0.1,2.2-0.6,2.9-1.7c-1.5-0.4-2.5-1.3-3-2.3C70.3,121.3,69.3,122.2,68.2,123.1z M16.7,65.7c-0.9,0.7-1.5,1.8-1.4,3.1
			c0.1,1.2,0.6,2.3,1.7,3c0.4-1.5,1.3-2.5,2.4-3C18.5,67.8,17.7,66.8,16.7,65.7z M111.8,32.2c0.2-1.1-0.2-2.3-1.2-3.2
			c-0.9-0.8-2-1.2-3.3-0.9c0.8,1.4,0.9,2.7,0.5,3.8C109,32,110.3,32.1,111.8,32.2z M107.6,109.2c1.1,0.2,2.2-0.2,3.2-1.1
			c0.9-0.9,1.3-2,1-3.4c-1.3,0.8-2.7,0.9-3.8,0.4C107.8,106.5,107.7,107.8,107.6,109.2z M30.7,32.6c1.3-0.8,2.7-0.9,4.2-0.3
			c-0.6-1.5-0.4-2.8,0.3-4.2c-1.4-0.2-2.6,0.1-3.5,1.1C30.8,30.1,30.4,31.2,30.7,32.6z M34.4,105.2c-1.1,0.5-2.5,0.3-3.8-0.4
			c-0.2,1.5,0.2,2.7,1.3,3.6c0.9,0.8,2,1.1,2.9,0.9C34.7,107.8,34.6,106.5,34.4,105.2z M106.4,33.1c1.4-1.1,1.6-3.4,0.3-4.9
			c-0.5,0.4-1,0.7-1.3,0.9C105.8,30.6,106.1,31.9,106.4,33.1z M110.8,102.8c-1.5,0.4-2.8,0.7-4,1c1,1.4,3.4,1.7,4.9,0.3
			C111.3,103.6,110.9,103.1,110.8,102.8z M35.7,109.1c0.6-0.4,1.1-0.8,1.6-1.2c-1.1-1.2-1.2-2.5-1-3.9
			C34.6,105.2,34.4,107.3,35.7,109.1z M31.8,34.8c1.3-1.1,2.6-1.3,4.1-1.1c-1-1.2-2.1-1.6-3.4-1.4c-0.6,0.1-1.2,0.5-1.8,0.7
			C31.1,33.6,31.4,34.1,31.8,34.8z M106.8,33.5c1.2,0.3,2.5,0.6,4,1c0.2-0.3,0.6-0.8,0.9-1.3C109.9,31.8,107.8,32.1,106.8,33.5z
			 M30.7,104.2c1.8,1.3,4.1,1,5.1-0.6c-1.5,0.3-2.8-0.1-4-1C31.4,103.1,31.1,103.6,30.7,104.2z M36,33.1c0.3-1.2,0.6-2.5,1-4
			c-0.3-0.2-0.8-0.6-1.4-0.9C34.4,30,34.7,32.1,36,33.1z M21.6,68.9c-1.6-0.1-2.7,0.4-3.5,1.5c-0.3,0.5-0.4,1.1-0.6,1.7
			c0.6,0.1,1.1,0.2,1.7,0.4c0.1,0,0.1,0,0.2-0.1C19.6,70.9,20.3,69.8,21.6,68.9z M105.5,107.9c-0.1,0-0.2,0.1-0.4,0.1
			c0.5,0.4,1,0.7,1.5,1.1c1.3-1.6,1.1-3.9-0.3-4.9C106.1,105.4,105.8,106.6,105.5,107.9z M67.3,16.9c1.7,0.1,2.8,0.9,3.7,2.2
			c0.1-1.6-0.4-2.7-1.5-3.5c-0.5-0.3-1.1-0.4-1.7-0.6C67.7,15.6,67.5,16.2,67.3,16.9z M21.6,68.4c-1.4-0.9-2-2-2.2-3.5
			c-0.4,0-0.7,0-1,0c-1,0.1-1.2,0.4-0.7,1.3C18.4,67.7,19.8,68.5,21.6,68.4z M75,16.9c-0.1-0.5-0.1-1-0.2-1.4
			c-0.1-0.5-0.4-0.6-0.8-0.4c-1.6,0.5-2.7,2.2-2.5,4C72.4,17.7,73.5,17,75,16.9z M120.8,68.9c1.4,0.9,2,2,2.2,3.4c0.4,0,0.8,0,1.1,0
			c0.9-0.1,1-0.4,0.7-1.2C124,69.6,122.6,68.7,120.8,68.9z M123,64.7c-0.1,1.7-0.9,2.8-2.2,3.7c1.5,0.1,2.7-0.4,3.5-1.5
			c0.3-0.5,0.5-1.1,0.7-1.7C124.3,65.1,123.7,64.9,123,64.7z M70.9,118.2c-0.9,1.4-2.1,2-3.5,2.3c0,0.3,0,0.6,0,0.8
			c0.1,1.1,0.4,1.3,1.4,0.8C70.3,121.4,71,120.1,70.9,118.2z M71.4,118.2c-0.1,1.6,0.4,2.7,1.4,3.5c0.5,0.3,1.1,0.5,1.7,0.7
			c0.1-0.6,0.3-1.2,0.4-1.8c0,0-0.1-0.1-0.1-0.2C73.5,120.2,72.4,119.5,71.4,118.2z"/>
		<path class="st1" d="M25.7,68.6c0.1-25.2,20.4-45.5,45.7-45.4c25.1,0.1,45.4,20.5,45.3,45.6C116.6,94,96.2,114.2,71,114.1
			C45.9,114,25.6,93.6,25.7,68.6z M33.2,68.6c-0.1,20.9,16.8,37.9,37.9,38c20.9,0.1,37.9-16.8,38-37.9c0.1-21-16.9-38-37.9-38.1
			C50.3,30.6,33.3,47.6,33.2,68.6z"/>
		<path class="st1" d="M36.6,32.6c0-2.3,1.4-3.9,3.1-4.2c1.8-0.3,3.5,0.7,4.2,2.3c0.2,0.5,0.1,0.8-0.3,1.2c-1.3,1.1-2.6,2.2-3.9,3.3
			c-0.4,0.4-0.7,0.4-1.2,0.1C37.3,34.7,36.6,33.6,36.6,32.6z"/>
		<path class="st1" d="M35.2,103.2c-2.2,0-3.8-1.3-4.1-3c-0.4-1.8,0.5-3.5,2.2-4.2c0.6-0.2,0.9-0.2,1.4,0.3c1.1,1.3,2.1,2.6,3.3,3.9
			c0.4,0.4,0.4,0.7,0.1,1.2C37.3,102.6,36.2,103.2,35.2,103.2z"/>
		<path class="st1" d="M40.4,108.9c-1.7,0-3.2-1.1-3.7-2.8c-0.4-1.6,0.2-3.3,1.6-4.1c0.5-0.3,0.9-0.4,1.4,0.1
			c1.2,1.1,2.5,2.2,3.8,3.2c0.5,0.4,0.6,0.8,0.4,1.4C43.3,108,41.9,108.9,40.4,108.9z"/>
		<path class="st1" d="M35.2,34.1c1,0,2.1,0.6,2.8,1.9c0.3,0.4,0.2,0.8-0.1,1.2c-1.1,1.3-2.3,2.6-3.3,3.9c-0.4,0.5-0.7,0.5-1.2,0.3
			c-1.6-0.6-2.6-2.3-2.3-4.2C31.3,35.4,32.9,34.1,35.2,34.1z"/>
		<path class="st1" d="M79,116c-0.1,1.9-0.8,3-2.3,3.7c-1.4,0.6-2.8,0.4-4-0.6c-1.1-1-1.6-2.3-1.1-3.8c0.1-0.3,0.5-0.6,0.8-0.6
			c1.8-0.2,3.5-0.4,5.3-0.5c0.3,0,0.7,0.2,0.9,0.5C78.8,115.1,78.9,115.7,79,116z"/>
		<path class="st1" d="M122.5,64.8c-0.1,2.4-2.4,4.1-4.7,3.5c-0.5-0.1-0.7-0.3-0.8-0.9c-0.1-1.8-0.3-3.5-0.4-5.3
			c0-0.3,0.3-0.8,0.6-0.9C119.7,60,122.6,61.9,122.5,64.8z"/>
		<path class="st1" d="M111.4,99.4c0,1.8-1.2,3.3-2.9,3.7c-1.6,0.4-3.3-0.3-4.1-1.7c-0.3-0.5-0.3-0.8,0.1-1.2
			c1.1-1.2,2.2-2.5,3.2-3.8c0.4-0.6,0.8-0.6,1.4-0.4C110.6,96.6,111.4,97.9,111.4,99.4z"/>
		<path class="st1" d="M107.1,34.1c2.4,0,3.9,1.3,4.3,3c0.4,1.8-0.6,3.5-2.2,4.2c-0.6,0.2-1,0.2-1.4-0.3c-1-1.3-2.1-2.6-3.3-3.9
			c-0.4-0.4-0.4-0.7-0.1-1.2C105.1,34.7,106.2,34.1,107.1,34.1z"/>
		<path class="st1" d="M105.8,104.6c0,2.3-1.3,3.8-3,4.2c-1.8,0.4-3.5-0.6-4.2-2.2c-0.2-0.6-0.2-1,0.4-1.4c1.3-1,2.6-2.1,3.9-3.3
			c0.4-0.4,0.7-0.4,1.2-0.1C105.1,102.6,105.8,103.7,105.8,104.6z"/>
		<path class="st1" d="M71,116.2c0,1.5-1,2.9-2.4,3.5c-1.4,0.5-3.1,0.2-4.1-0.9s-1.3-2.8-0.7-4.1c0.2-0.5,0.5-0.7,1.1-0.6
			c1.5,0.2,3,0.3,4.6,0.4C70.8,114.6,71,114.8,71,116.2z"/>
		<path class="st1" d="M122.5,72.6c0,2.8-2.8,4.7-5.3,3.5c-0.4-0.2-0.6-0.5-0.6-1c0.2-1.7,0.4-3.4,0.5-5.1c0-0.6,0.3-0.9,0.9-1
			C120.2,68.4,122.5,70.2,122.5,72.6z"/>
		<path class="st1" d="M105.8,32.6c0,1-0.6,2.1-1.9,2.8c-0.4,0.3-0.8,0.2-1.2-0.1c-1.3-1.1-2.6-2.3-3.9-3.3
			c-0.5-0.4-0.5-0.7-0.3-1.2c0.6-1.6,2.3-2.6,4.2-2.3C104.4,28.8,105.8,30.4,105.8,32.6z"/>
		<path class="st1" d="M67.2,17.3c2.4,0,4.2,2.2,3.7,4.5c-0.1,0.6-0.4,0.9-1,0.9c-1.7,0.1-3.4,0.3-5.1,0.4c-0.3,0-0.8-0.2-0.9-0.5
			C62.5,20.2,64.4,17.3,67.2,17.3z"/>
		<path class="st1" d="M75.2,17.3c2.8,0,4.7,2.9,3.4,5.3c-0.1,0.3-0.6,0.5-0.9,0.5c-1.7-0.1-3.5-0.3-5.2-0.4c-0.6,0-0.8-0.3-0.9-0.8
			C70.9,19.6,72.7,17.3,75.2,17.3z"/>
		<path class="st1" d="M23.6,68.4c-1.5,0-2.9-1-3.4-2.4s-0.2-3.1,0.9-4.1s2.8-1.3,4.1-0.7c0.5,0.2,0.7,0.5,0.6,1.1
			c-0.2,1.5-0.3,3-0.4,4.6C25.2,68.2,25,68.5,23.6,68.4z"/>
		<path class="st1" d="M19.9,72.7c0-2.5,2.3-4.4,4.7-3.7c0.5,0.1,0.7,0.3,0.7,0.9c0.1,1.8,0.3,3.5,0.4,5.3c0,0.3-0.3,0.7-0.6,0.9
			C22.8,77.3,19.9,75.4,19.9,72.7z"/>
		<path class="st2" d="M123,68.8c0.9-1,1.7-2,2.7-3.1c0.9,0.6,1.4,1.6,1.5,2.9c0,1.3-0.5,2.4-1.7,3.2C125,70.3,124.1,69.3,123,68.8z
			"/>
		<path class="st2" d="M74.2,14.2c-1.1,0.9-2.1,1.7-3.1,2.6c-0.3-0.3-0.6-0.9-1.2-1.4c-0.5-0.4-1.1-0.7-1.8-1.1
			c0.8-1.1,1.8-1.6,3.1-1.6C72.5,12.8,73.6,13.3,74.2,14.2z"/>
		<path class="st2" d="M68.2,123.1c1.1-0.9,2.1-1.8,3.1-2.6c0.5,1,1.5,2,3,2.3c-0.7,1.1-1.7,1.6-2.9,1.7
			C70.1,124.6,69,124.1,68.2,123.1z"/>
		<path class="st2" d="M16.7,65.7c1,1.1,1.8,2.1,2.7,3.1c-1.1,0.5-2,1.5-2.4,3c-1.2-0.7-1.7-1.8-1.7-3
			C15.2,67.4,15.8,66.3,16.7,65.7z"/>
		<path class="st2" d="M111.8,32.2c-1.5-0.1-2.8-0.2-4.1-0.3c0.4-1.1,0.3-2.5-0.5-3.8c1.3-0.3,2.4,0.1,3.3,0.9
			C111.6,29.9,112,31.1,111.8,32.2z"/>
		<path class="st2" d="M107.6,109.2c0.1-1.5,0.2-2.7,0.3-4.1c1.1,0.4,2.5,0.3,3.8-0.4c0.3,1.4-0.1,2.5-1,3.4
			C109.9,109.1,108.7,109.4,107.6,109.2z"/>
		<path class="st2" d="M30.7,32.6c-0.3-1.4,0.1-2.5,1-3.4c0.9-0.9,2.1-1.3,3.5-1.1c-0.7,1.3-0.9,2.7-0.3,4.2
			C33.3,31.7,32,31.8,30.7,32.6z"/>
		<path class="st2" d="M34.4,105.2c0.1,1.3,0.2,2.6,0.3,4.1c-0.9,0.2-2-0.1-2.9-0.9c-1.1-0.9-1.5-2.1-1.3-3.6
			C32,105.4,33.3,105.6,34.4,105.2z"/>
		<path class="st1" d="M106.4,33.1c-0.3-1.2-0.6-2.5-1-4c0.3-0.2,0.8-0.6,1.3-0.9C108,29.7,107.8,32,106.4,33.1z"/>
		<path class="st1" d="M110.8,102.8c0.2,0.3,0.6,0.8,0.9,1.3c-1.5,1.4-3.9,1.1-4.9-0.3C108,103.5,109.2,103.2,110.8,102.8z"/>
		<path class="st1" d="M35.7,109.1c-1.3-1.8-1.1-3.9,0.6-5.2c-0.2,1.4,0,2.7,1,3.9C36.8,108.3,36.3,108.7,35.7,109.1z"/>
		<path class="st1" d="M31.8,34.8c-0.4-0.7-0.7-1.2-1-1.8c0.6-0.2,1.1-0.6,1.8-0.7c1.3-0.2,2.4,0.3,3.4,1.4
			C34.4,33.5,33.1,33.7,31.8,34.8z"/>
		<path class="st1" d="M106.8,33.5c1-1.4,3.1-1.7,4.9-0.4c-0.4,0.5-0.7,1.1-0.9,1.3C109.2,34.1,108,33.8,106.8,33.5z"/>
		<path class="st1" d="M30.7,104.2c0.4-0.5,0.7-1,1.1-1.6c1.2,1,2.5,1.3,4,1C34.8,105.2,32.5,105.5,30.7,104.2z"/>
		<path class="st1" d="M36,33.1c-1.4-1-1.7-3.1-0.4-4.9c0.5,0.4,1.1,0.7,1.4,0.9C36.6,30.6,36.3,31.9,36,33.1z"/>
		<path class="st1" d="M21.6,68.9c-1.3,0.9-2,2-2.2,3.4c-0.1,0-0.2,0.1-0.2,0.1c-0.6-0.1-1.1-0.2-1.7-0.4c0.2-0.6,0.3-1.2,0.6-1.7
			C18.9,69.2,20.1,68.7,21.6,68.9z"/>
		<path class="st1" d="M105.5,107.9c0.3-1.3,0.6-2.5,0.9-3.7c1.4,1.1,1.7,3.3,0.3,4.9c-0.5-0.4-1-0.7-1.5-1.1
			C105.3,108,105.4,107.9,105.5,107.9z"/>
		<path class="st1" d="M67.3,16.9c0.2-0.7,0.4-1.3,0.5-1.9c0.6,0.2,1.2,0.3,1.7,0.6c1.1,0.8,1.6,1.9,1.5,3.5
			C70,17.8,68.9,17,67.3,16.9z"/>
		<path class="st1" d="M21.6,68.4c-1.8,0.1-3.2-0.7-3.9-2.1c-0.4-1-0.3-1.2,0.7-1.3c0.3,0,0.6,0,1,0C19.6,66.3,20.3,67.5,21.6,68.4z
			"/>
		<path class="st1" d="M75,16.9c-1.5,0.2-2.7,0.9-3.5,2.1c-0.2-1.8,0.9-3.6,2.5-4c0.4-0.1,0.7-0.1,0.8,0.4
			C74.9,15.9,74.9,16.3,75,16.9z"/>
		<path class="st1" d="M120.8,68.9c1.8-0.2,3.2,0.7,3.9,2.2c0.4,0.9,0.3,1.1-0.7,1.2c-0.3,0-0.7,0-1.1,0
			C122.8,71,122.1,69.8,120.8,68.9z"/>
		<path class="st1" d="M123,64.7c0.8,0.2,1.4,0.4,1.9,0.6c-0.2,0.6-0.3,1.2-0.7,1.7c-0.8,1.1-1.9,1.6-3.5,1.5
			C122,67.5,122.8,66.4,123,64.7z"/>
		<path class="st1" d="M70.9,118.2c0.1,1.9-0.7,3.2-2.1,3.9c-1,0.5-1.3,0.3-1.4-0.8c0-0.2,0-0.5,0-0.8
			C68.9,120.2,70,119.6,70.9,118.2z"/>
		<path class="st1" d="M71.4,118.2c0.9,1.4,2,2.1,3.4,2.2c0.1,0.1,0.1,0.2,0.1,0.2c-0.1,0.6-0.3,1.2-0.4,1.8
			c-0.6-0.2-1.2-0.3-1.7-0.7C71.8,120.9,71.3,119.8,71.4,118.2z"/>
		<path class="st0" d="M33.2,68.6c0.1-21,17-37.9,38-37.9s38,17.1,37.9,38.1s-17.1,38-38,37.9C50.1,106.5,33.2,89.5,33.2,68.6z
			 M108.8,68.7c0-20.8-16.7-37.6-37.5-37.6S33.7,47.8,33.7,68.6c-0.1,20.8,16.7,37.6,37.5,37.6C91.9,106.3,108.7,89.5,108.8,68.7z"
			/>
		<path class="st2" d="M108.8,68.7c0,20.8-16.9,37.6-37.6,37.5c-20.8,0-37.6-16.9-37.5-37.6c0-20.8,16.8-37.6,37.5-37.5
			C92.1,31.1,108.8,47.9,108.8,68.7z M71.2,103.8c19.4,0.1,35.2-15.8,35.2-35.2s-15.6-35-35.1-35.2C52,33.2,36.1,49,36,68.6
			C35.9,87.9,51.7,103.7,71.2,103.8z"/>
		<path class="st0" d="M71.2,103.8c-19.5,0-35.3-15.9-35.2-35.2C36.1,49,52,33.3,71.3,33.4c19.5,0.2,35.1,15.8,35.1,35.2
			C106.4,88.1,90.5,103.9,71.2,103.8z M71.2,54.8c-7.7,0-13.9,6.2-13.9,13.9c0,7.6,6.2,13.9,13.8,13.9c7.7,0,13.9-6.2,14-13.9
			C85.1,61,78.9,54.8,71.2,54.8z M44.6,91c0.2-0.2,0.3-0.4,0.4-0.5c1.5-1.7,2.6-3.6,3.2-5.7c0.3-1.1,0.9-1.8,2-2.2
			c1.2-0.4,2.5-1.1,3.6-1.8c1.9-1.3,3.7-2.7,5.4-4c-0.7-1.8-1.2-3.3-1.9-4.7c-0.1-0.2-0.5-0.5-0.8-0.5c-3.1,0.1-6.2,0.5-9.1,1.7
			c-1.8,0.8-3.2,0.7-4.8-0.2c-1.8-1-3.9-1.3-6-1.4C37.2,79,39.9,85.3,44.6,91z M63.2,80.7c-1.9,1.7-4.6,5.3-5.8,8.5
			c-0.6,1.4-1.4,2.1-2.8,2.5c-2.2,0.7-4,1.9-5.8,3.5c5.6,4.6,12,7.3,19.3,8c0-0.3,0-0.5,0-0.6c-0.2-2.2-0.7-4.4-1.8-6.3
			c-0.5-1-0.6-1.9-0.1-3c1.4-3.2,2-6.6,2-10.1c0-0.2-0.3-0.6-0.5-0.7C66.3,81.9,64.8,81.4,63.2,80.7z M79.2,56.5
			c0,0,0.1-0.1,0.2-0.2c2.5-2.6,4.5-5.5,5.8-8.9c0.4-0.9,0.9-1.4,1.7-1.7c0.4-0.2,0.9-0.3,1.3-0.5c2-0.7,3.7-1.8,5.3-3.4
			c-5.7-4.6-12-7.3-19.3-8c0,0.3,0,0.5,0,0.8c0.2,2.2,0.8,4.3,1.8,6.3c0.5,0.9,0.6,1.8,0.1,2.8c-1.4,3.2-2,6.7-2.1,10.2
			c0,0.2,0.2,0.6,0.4,0.6C76,55.4,77.6,55.9,79.2,56.5z M83.3,76.6c0,0,0.1,0.1,0.2,0.2c2.6,2.4,5.4,4.5,8.7,5.8
			c1.1,0.4,1.7,1.1,2,2.1c0.1,0.5,0.3,0.9,0.5,1.4c0.7,1.8,1.8,3.4,3.2,4.9c4.6-5.7,7.3-12,8-19.4c-0.9,0.1-1.8,0.1-2.5,0.3
			c-1.6,0.5-3.1,1-4.6,1.6c-0.9,0.4-1.7,0.5-2.7,0.1c-3.2-1.4-6.7-2-10.2-2.1c-0.2,0-0.7,0.2-0.8,0.4C84.5,73.5,83.9,75,83.3,76.6z
			 M44.6,46.3c-4.7,5.7-7.3,12-8,19.3c0.4,0,0.7-0.1,0.9-0.1c2.2-0.1,4.3-0.8,6.2-1.8c0.7-0.4,1.4-0.7,2.2-0.3
			c3.4,1.5,6.9,2.2,10.6,2.3c0.2,0,0.7-0.1,0.7-0.3c0.6-1.5,1.2-3.1,1.8-4.7c-2.5-2.4-5.3-4.5-8.6-5.8c-1.4-0.5-2-1.4-2.4-2.7
			C47.4,49.9,46.2,48.1,44.6,46.3z M93.6,95.3c-0.2-0.2-0.4-0.3-0.5-0.4c-1.7-1.5-3.6-2.6-5.7-3.2c-1.1-0.3-1.8-0.9-2.2-2
			c-0.4-1.2-1-2.4-1.8-3.5c-1.3-1.9-2.8-3.7-4-5.4c-1.8,0.7-3.3,1.2-4.7,1.9c-0.2,0.1-0.5,0.5-0.5,0.7c0.1,3.1,0.4,6.1,1.6,9
			c0.9,2,0.7,3.6-0.3,5.3c-1,1.7-1.2,3.7-1.3,5.8C81.5,102.6,87.9,99.9,93.6,95.3z M83.3,60.7c0.6,1.6,1.2,3.1,1.8,4.6
			c0.1,0.2,0.4,0.4,0.6,0.4c3-0.1,6-0.4,8.8-1.6c2-0.9,3.8-0.8,5.7,0.2c1.7,1,3.6,1.1,5.6,1.2c-0.7-7.3-3.4-13.7-8-19.3
			c-1.8,1.9-3,3.9-3.7,6.2c-0.3,1-0.9,1.8-2,2.1c-0.6,0.2-1.2,0.5-1.8,0.8C87.7,56.9,85.3,58.7,83.3,60.7z M48.8,42
			c0.6,0.5,0.9,0.9,1.4,1.2c1.6,0.9,3.3,1.8,5,2.5c0.9,0.4,1.6,0.9,2,1.9c0.5,1.3,1.1,2.5,1.9,3.6c1.3,1.9,2.7,3.7,4,5.4
			c1.8-0.7,3.3-1.2,4.8-1.9c0.2-0.1,0.4-0.5,0.4-0.8c-0.1-3.7-0.8-7.2-2.2-10.6c-0.2-0.4-0.2-0.9-0.1-1.2c0.3-0.9,0.7-1.8,1.1-2.7
			c0.7-1.7,1-3.5,1.1-5.5C60.9,34.7,54.5,37.3,48.8,42z M66.3,94.5c1.6-0.1,2.9-0.5,4-1.5c0.3-0.3,0.6-0.7,0.6-1.1c0-3,0-5.9,0-8.9
			c-0.8-0.1-1.5-0.1-2.2-0.2C68.8,86.8,68,90.7,66.3,94.5z M57.1,66.2c-4.1,0-8-0.8-11.8-2.5c0.1,1.5,0.5,2.8,1.4,3.8
			c0.5,0.6,1,0.9,1.9,0.9c1.3-0.1,2.7,0,4,0c1.4,0,2.9,0,4.3,0C57,67.7,57,67,57.1,66.2z M76.1,42.9c-0.1-0.1-0.1-0.2-0.2-0.3
			c-1.1,0.5-2.3,0.9-3.5,1.5c-0.7,0.4-1,1.1-1,2c0.1,2.2,0,4.3,0,6.5c0,0.6,0,1.2,0,1.8c0.8,0.1,1.5,0.1,2.2,0.2
			C73.6,50.5,74.4,46.6,76.1,42.9z M97.1,73.5c-0.2-1.5-0.5-2.8-1.4-3.9c-0.5-0.5-1-0.9-1.8-0.8c-2,0-4,0-6,0c-0.8,0-1.6,0-2.4,0
			c-0.1,0.8-0.1,1.5-0.2,2.2C89.4,71.1,93.2,71.9,97.1,73.5z M56.9,68.8c-3,0-5.9,0-8.9,0c-0.3,0-0.7,0.2-1,0.5
			c-1.2,1.1-1.6,2.5-1.7,4.2C49.1,71.8,53,71,57.1,71C57,70.3,57,69.6,56.9,68.8z M92.9,83.7c0-0.1-0.1-0.2-0.1-0.4
			c-3.7-1.5-7-3.7-9.9-6.5c-0.5,0.6-0.9,1.1-1.4,1.7c1.9,1.9,3.9,3.8,5.7,5.8c0.8,0.9,1.7,1,2.6,0.8C90.8,84.8,91.8,84.2,92.9,83.7z
			 M68.8,54.6c0.8-0.1,1.5-0.2,2.2-0.2c0-3,0-5.9,0-8.9c0-0.3-0.2-0.6-0.4-0.8c-1.1-1.3-2.6-1.7-4.3-1.9
			C68,46.6,68.7,50.5,68.8,54.6z M75.9,94.6c-1.5-3.9-2.3-7.8-2.3-11.9c-0.8,0.1-1.5,0.2-2.2,0.2c0,2.6,0.1,5.2,0,7.8
			c-0.1,1.6,0.7,2.4,1.9,3C74.1,94.1,75,94.3,75.9,94.6z M85.5,68.4c2.8,0,5.5,0,8.2,0c1,0,1.6-0.4,2.1-1.1c0.8-1.1,1.1-2.2,1.2-3.6
			c-3.8,1.7-7.7,2.4-11.7,2.5C85.4,67,85.4,67.6,85.5,68.4z M79.5,80.3c2.9,2.9,5,6.2,6.5,10c1.2-1,1.9-2.8,1.8-4.2
			c0-0.3-0.1-0.6-0.2-0.8c-2.1-2.1-4.2-4.2-6.4-6.4C80.6,79.4,80.1,79.8,79.5,80.3z M86.3,47c-0.1,0-0.2,0-0.4,0.1
			c-1.4,3.8-3.7,7-6.5,9.9c0.6,0.5,1.1,0.9,1.7,1.4c1.9-1.9,3.8-3.9,5.7-5.7c0.9-0.8,1-1.7,0.8-2.7C87.3,49,86.8,48,86.3,47z
			 M61,78.6c-0.5-0.6-1-1.1-1.4-1.7c-2.9,2.9-6.2,5-10.1,6.5c1.4,1.1,2.7,1.9,4.3,1.7c0.3,0,0.7-0.2,0.9-0.4
			C56.8,82.8,58.8,80.7,61,78.6z M59.5,60.4c0.5-0.6,0.9-1.2,1.4-1.7c-2.1-2.1-4.1-4.1-6.2-6.1c-0.2-0.2-0.5-0.4-0.8-0.4
			c-1.7-0.2-3.1,0.6-4.5,1.7C53.3,55.3,56.6,57.5,59.5,60.4z M92.8,53.9c0-0.1,0-0.2,0.1-0.3c-1-0.5-1.9-1-2.9-1.4s-2-0.2-2.8,0.7
			c-1.4,1.5-2.8,2.9-4.3,4.3c-0.5,0.5-1.1,0.9-1.6,1.3c0.1,0.1,0.2,0.2,0.2,0.3c0.4,0.5,0.9,1,1.4,1.6C85.8,57.5,89,55.3,92.8,53.9z
			 M61.2,78.9C59.1,81,57,83.1,55,85.1c-0.1,0.1-0.2,0.3-0.3,0.5c-0.4,1.3,0.5,3.9,1.8,4.6c1.4-3.7,3.7-7,6.5-9.9
			C62.4,79.8,61.8,79.4,61.2,78.9z M56.4,46.9c-1,1.2-1.7,2.5-1.8,4c-0.1,1.2,0.8,1.7,1.5,2.3c1.7,1.7,3.4,3.4,5.2,5.2
			c0.6-0.5,1.1-1,1.7-1.4C60.1,54,57.9,50.8,56.4,46.9z M46.8,43.9c1.4,1.4,2.8,2.8,4.2,4.1c0.2,0.2,0.4,0.2,0.7,0.3
			c1.9,0.6,3.1-0.6,4.5-1.8c-2.9-0.9-5.5-2.1-7.6-4.2C47.9,42.9,47.3,43.4,46.8,43.9z M97.4,45.8c-0.5-0.5-1-1-1.5-1.6
			c-1.4,1.4-2.7,2.7-4,4.1c-0.2,0.2-0.3,0.5-0.4,0.8c-0.4,1.5,0.3,3.1,1.8,4.2c0.5-1.3,1-2.6,1.6-3.9C95.6,48.2,96.5,47.1,97.4,45.8
			z M95.6,93.4c-1.4-1.4-2.8-2.8-4.2-4.2C91.2,89,91,89,90.7,88.9c-1.9-0.6-3.1,0.6-4.5,1.8c2.9,0.9,5.5,2.1,7.6,4.2
			C94.5,94.4,95.1,93.9,95.6,93.4z M71,103.3c0-1.8,0-3.5,0-5.3c0-1.2-0.6-2.1-1.7-2.5c-0.9-0.4-1.9-0.4-3-0.7
			c0.3,0.7,0.5,1.2,0.7,1.6c0.5,1.7,1.2,3.3,1.5,5.1C68.9,103.5,68.8,103.5,71,103.3z M105.9,68.8c-1.8,0-3.5,0-5.3,0
			c-1.2,0-2.3,0.7-2.6,1.8c-0.3,0.8-0.3,1.8-0.5,2.9c0.7-0.3,1.1-0.5,1.6-0.7c1.7-0.5,3.3-1.2,5-1.5C106,70.9,106,71,105.9,68.8z
			 M76.1,95.1C76,95,76,95,75.9,94.9c-0.8,0.1-1.6,0.2-2.4,0.4c-1.1,0.3-1.9,1.1-2,2.1c-0.2,1.9,0,3.9,0,5.9c0.8,0,1.5,0,2.3,0
			C73.7,100.4,74.7,97.7,76.1,95.1z M36.5,68.4c1.8,0,3.6,0,5.3,0c0.5,0,1-0.2,1.5-0.5c1.5-0.9,1.4-2.5,1.6-4.3
			c-2.7,1.5-5.4,2.4-8.4,2.4C36.5,66.9,36.5,67.6,36.5,68.4z M71.4,33.9c0,1.8,0,3.5,0,5.3c0,1.2,0.8,2.4,1.9,2.7
			c0.8,0.2,1.7,0.3,2.8,0.5c-0.3-0.7-0.5-1.1-0.6-1.5c-0.5-1.7-1.2-3.3-1.5-5C73.5,33.8,73.6,33.8,71.4,33.9z M66.2,42.4
			c1.1-0.2,2-0.2,2.8-0.5c1-0.3,1.9-1.1,1.9-2.1c0.2-1.9,0-3.9,0-5.9c-0.8,0-1.5,0-2.4,0C68.7,37,67.6,39.6,66.2,42.4z M45,73.6
			c-0.2-1.1-0.2-1.9-0.5-2.7c-0.3-1-1.1-1.9-2-2c-2-0.2-4,0-6,0c0,0.5,0,0.9,0,1.2c-0.1,0.9,0.2,1.2,1.1,1.2c1.9,0,3.7,0.5,5.4,1.4
			C43.5,72.9,44.1,73.2,45,73.6z M105.9,66.1c-3,0.1-5.7-1-8.5-2.4c0.2,1.1,0.3,2,0.5,2.8c0.3,1,1.1,1.9,2.1,1.9
			c1.9,0.2,3.9,0,5.9,0C105.9,67.6,105.9,66.9,105.9,66.1z M45,91.5c0.5,0.5,1,1,1.5,1.6c1.4-1.4,2.7-2.7,4-4.1
			c0.2-0.2,0.3-0.5,0.4-0.8c0.6-1.9-0.6-3.1-1.8-4.4c-0.6,1.4-1,2.7-1.7,4C46.8,89.1,45.9,90.2,45,91.5z M49.1,53.7
			c0.7-1,1.3-1.8,1.7-2.6c0.4-0.9,0.4-2-0.3-2.7c-1.3-1.4-2.7-2.7-4.1-4.1c-0.5,0.6-1,1.1-1.6,1.7C47,48,48.2,50.6,49.1,53.7z
			 M86.2,46.6c1,0.7,1.7,1.3,2.5,1.7c1,0.5,2,0.5,2.8-0.2c1.4-1.3,2.8-2.7,4.2-4.1c-0.6-0.5-1.1-1-1.7-1.6
			C91.8,44.4,89.2,45.7,86.2,46.6z M55.9,90.8c0-0.1,0-0.2,0.1-0.3c-0.7-0.5-1.4-1.1-2.2-1.5c-1-0.5-2-0.5-2.8,0.2
			c-1.4,1.3-2.7,2.7-4.2,4.1c0.6,0.5,1.1,1,1.7,1.6C50.6,92.9,53.1,91.6,55.9,90.8z M97.5,91.4c-2.2-2.1-3.4-4.7-4.3-7.8
			c-0.7,1-1.3,1.8-1.7,2.6c-0.4,0.9-0.4,2,0.3,2.7c1.3,1.4,2.7,2.7,4.1,4.1C96.5,92.5,97,92,97.5,91.4z M45.3,71.3
			c0.5-0.8,1.1-1.7,1.7-2.6c-0.6-0.9-1.2-1.9-1.7-2.6c-0.6,0.8-1.2,1.8-1.8,2.6C44.1,69.5,44.7,70.5,45.3,71.3z M98.9,68.6
			c-0.6-0.9-1.2-1.8-1.8-2.6c-0.5,0.8-1.1,1.8-1.7,2.6c0.6,1,1.2,1.9,1.7,2.6C97.7,70.4,98.3,69.5,98.9,68.6z M73.8,94.6
			c-0.8-0.5-1.8-1.2-2.6-1.7c-1,0.6-1.9,1.2-2.6,1.7c0.8,0.6,1.8,1.2,2.6,1.8C72.1,95.8,73,95.1,73.8,94.6z M68.6,42.7
			c0.8,0.5,1.7,1.1,2.6,1.7c0.9-0.6,1.9-1.2,2.6-1.7c-0.8-0.6-1.8-1.2-2.6-1.8C70.3,41.5,69.4,42.2,68.6,42.7z M51,52.2
			c0.9-0.2,2-0.4,3-0.6c0.2-1.1,0.5-2.2,0.6-3c-1,0.2-2.1,0.4-3.1,0.6C51.4,50,51.2,51.1,51,52.2z M87.7,88.8c1-0.2,2.2-0.4,3.1-0.5
			c0.2-1.1,0.4-2.2,0.6-3.1c-1,0.2-2.1,0.4-3,0.6C88.1,86.9,87.9,87.9,87.7,88.8z M88.3,51.5c1.1,0.2,2.2,0.5,3,0.6
			c-0.2-1-0.4-2.2-0.5-3.1c-1-0.2-2.1-0.4-3.1-0.6C87.9,49.3,88.1,50.4,88.3,51.5z M51.6,88.3c1,0.2,2.1,0.4,3.1,0.6
			c-0.2-0.9-0.4-2-0.6-3c-1.1-0.2-2.2-0.5-3-0.6C51.2,86.2,51.4,87.3,51.6,88.3z"/>
		<path class="st1" d="M71.2,54.8c7.7,0,13.9,6.2,13.9,13.9s-6.3,13.9-14,13.9c-7.6,0-13.8-6.2-13.8-13.9S63.5,54.7,71.2,54.8z
			 M81.8,68.7c0-5.9-4.6-10.5-10.5-10.6c-5.8,0-10.6,4.6-10.6,10.5s4.7,10.6,10.5,10.6C77,79.2,81.7,74.5,81.8,68.7z"/>
		<path class="st2" d="M66.3,94.5c1.6-3.8,2.4-7.6,2.5-11.8c0.7,0.1,1.4,0.1,2.2,0.2c0,3,0,6,0,8.9c0,0.4-0.4,0.8-0.6,1.1
			C69.2,94,67.9,94.4,66.3,94.5z"/>
		<path class="st2" d="M57.1,66.2C57,67,57,67.7,56.9,68.4c-1.5,0-2.9,0-4.3,0c-1.3,0-2.7,0-4,0c-0.8,0-1.4-0.3-1.9-0.9
			c-0.9-1.1-1.2-2.4-1.4-3.8C49.1,65.4,53,66.2,57.1,66.2z"/>
		<path class="st2" d="M76.1,42.9c-1.6,3.7-2.4,7.6-2.4,11.7c-0.7-0.1-1.4-0.1-2.2-0.2c0-0.6,0-1.2,0-1.8c0-2.2,0-4.3,0-6.5
			c0-0.9,0.3-1.6,1-2c1.1-0.6,2.3-1,3.5-1.5C75.9,42.7,76,42.8,76.1,42.9z"/>
		<path class="st2" d="M97.1,73.5c-3.8-1.7-7.7-2.5-11.8-2.5c0.1-0.7,0.1-1.4,0.2-2.2c0.8,0,1.6,0,2.4,0c2,0,4,0,6,0
			c0.8,0,1.3,0.3,1.8,0.8C96.6,70.7,96.9,72,97.1,73.5z"/>
		<path class="st1" d="M56.9,68.8c0.1,0.8,0.1,1.5,0.2,2.2c-4.1,0-8,0.8-11.8,2.5c0.2-1.6,0.5-3.1,1.7-4.2c0.3-0.2,0.6-0.5,1-0.5
			C51,68.8,53.9,68.8,56.9,68.8z"/>
		<path class="st1" d="M92.9,83.7c-1,0.5-2,1-3.1,1.4c-0.9,0.3-1.8,0.1-2.6-0.8c-1.8-2-3.8-3.8-5.7-5.8c0.5-0.6,0.9-1.1,1.4-1.7
			c2.9,2.8,6.2,5,9.9,6.5C92.8,83.5,92.8,83.6,92.9,83.7z"/>
		<path class="st1" d="M68.8,54.6c0-4.1-0.8-8-2.5-11.8c1.7,0.2,3.2,0.6,4.3,1.9c0.2,0.2,0.4,0.5,0.4,0.8c0,2.9,0,5.9,0,8.9
			C70.2,54.4,69.5,54.5,68.8,54.6z"/>
		<path class="st1" d="M75.9,94.6c-0.9-0.3-1.8-0.5-2.6-0.8c-1.2-0.5-2-1.4-1.9-3c0.1-2.6,0-5.2,0-7.8c0.8-0.1,1.5-0.2,2.2-0.2
			C73.6,86.8,74.4,90.7,75.9,94.6z"/>
		<path class="st1" d="M85.5,68.4c-0.1-0.8-0.1-1.4-0.2-2.2c4-0.1,8-0.8,11.7-2.5c-0.1,1.4-0.4,2.6-1.2,3.6
			c-0.5,0.7-1.2,1.1-2.1,1.1C91,68.4,88.3,68.4,85.5,68.4z"/>
		<path class="st2" d="M79.5,80.3c0.6-0.5,1.1-0.9,1.7-1.4c2.1,2.1,4.3,4.2,6.4,6.4c0.2,0.2,0.2,0.5,0.2,0.8
			c0.1,1.4-0.6,3.2-1.8,4.2C84.5,86.5,82.3,83.2,79.5,80.3z"/>
		<path class="st1" d="M86.3,47c0.5,1,1,2,1.4,3c0.3,1,0.1,1.9-0.8,2.7c-2,1.8-3.8,3.8-5.7,5.7c-0.6-0.5-1.1-0.9-1.7-1.4
			c2.8-2.9,5-6.2,6.5-9.9C86.1,47,86.2,47,86.3,47z"/>
		<path class="st2" d="M61,78.6c-2.1,2.1-4.2,4.2-6.3,6.2c-0.2,0.2-0.6,0.3-0.9,0.4c-1.7,0.1-3-0.6-4.3-1.7
			c3.9-1.5,7.1-3.7,10.1-6.5C60,77.5,60.4,78,61,78.6z"/>
		<path class="st1" d="M59.5,60.4c-2.9-2.9-6.2-5-10.1-6.6c1.4-1.1,2.8-1.9,4.5-1.7c0.3,0,0.6,0.2,0.8,0.4c2,2,4.1,4,6.2,6.1
			C60.5,59.2,60,59.8,59.5,60.4z"/>
		<path class="st2" d="M92.8,53.9c-3.7,1.5-7,3.6-9.9,6.5c-0.5-0.5-0.9-1.1-1.4-1.6c-0.1-0.1-0.2-0.2-0.2-0.3
			c0.5-0.4,1.1-0.8,1.6-1.3c1.5-1.4,2.9-2.8,4.3-4.3C88,52,89,51.8,90,52.2s2,0.9,2.9,1.4C92.8,53.7,92.8,53.8,92.8,53.9z"/>
		<path class="st1" d="M61.2,78.9c0.6,0.5,1.1,0.9,1.7,1.4c-2.8,2.9-5,6.1-6.5,9.9c-1.2-0.7-2.2-3.3-1.8-4.6
			c0.1-0.2,0.2-0.3,0.3-0.5C57.1,83.1,59.1,81,61.2,78.9z"/>
		<path class="st2" d="M56.4,46.9c1.5,3.9,3.7,7.1,6.5,10.1c-0.5,0.5-1.1,0.9-1.7,1.4c-1.7-1.7-3.5-3.5-5.2-5.2
			c-0.6-0.7-1.6-1.2-1.5-2.3C54.7,49.4,55.3,48.1,56.4,46.9z"/>
		<path class="st2" d="M46.8,43.9c0.6-0.5,1.1-1,1.7-1.6c2.1,2.1,4.7,3.3,7.6,4.2c-1.4,1.2-2.6,2.4-4.5,1.8
			c-0.2-0.1-0.5-0.2-0.7-0.3C49.5,46.7,48.2,45.3,46.8,43.9z"/>
		<path class="st2" d="M97.4,45.8c-0.9,1.3-1.8,2.4-2.5,3.7c-0.7,1.2-1.1,2.6-1.6,3.9c-1.5-1.1-2.2-2.7-1.8-4.2
			c0.1-0.3,0.2-0.6,0.4-0.8c1.3-1.4,2.6-2.7,4-4.1C96.5,44.8,97,45.3,97.4,45.8z"/>
		<path class="st2" d="M95.6,93.4c-0.6,0.5-1.1,1-1.7,1.6c-2.1-2.1-4.7-3.3-7.6-4.2c1.4-1.2,2.6-2.5,4.5-1.8
			c0.2,0.1,0.5,0.2,0.7,0.3C92.9,90.6,94.2,92,95.6,93.4z"/>
		<path class="st2" d="M71,103.3c-2.2,0.2-2.1,0.2-2.5-1.8c-0.4-1.7-1-3.4-1.5-5.1c-0.1-0.5-0.4-0.9-0.7-1.6c1.2,0.2,2.2,0.3,3,0.7
			c1.1,0.4,1.7,1.3,1.7,2.5C71,99.8,71,101.5,71,103.3z"/>
		<path class="st2" d="M105.9,68.8c0.2,2.2,0.1,2.1-1.8,2.5c-1.7,0.4-3.4,1-5,1.5c-0.5,0.1-0.9,0.4-1.6,0.7c0.2-1.1,0.3-2,0.5-2.9
			c0.4-1.1,1.5-1.8,2.6-1.8C102.4,68.8,104.1,68.8,105.9,68.8z"/>
		<path class="st1" d="M76.1,95.1c-1.4,2.5-2.3,5.2-2.3,8.2c-0.8,0-1.5,0-2.3,0c0-2-0.1-4,0-5.9c0.1-1,0.9-1.8,2-2.1
			c0.8-0.2,1.6-0.3,2.4-0.4C75.9,95,76,95.1,76.1,95.1z"/>
		<path class="st2" d="M36.5,68.4c0-0.8,0-1.5,0-2.4c3,0,5.6-0.9,8.4-2.4c-0.1,1.8,0,3.3-1.6,4.3c-0.4,0.3-1,0.4-1.5,0.5
			C40.1,68.5,38.3,68.4,36.5,68.4z"/>
		<path class="st2" d="M71.4,33.9c2.2-0.2,2.1-0.1,2.5,1.9c0.4,1.7,1,3.4,1.5,5c0.1,0.5,0.4,0.9,0.6,1.5c-1.1-0.2-2-0.2-2.8-0.5
			c-1.1-0.3-1.9-1.5-1.9-2.7C71.4,37.5,71.4,35.7,71.4,33.9z"/>
		<path class="st1" d="M66.2,42.4c1.4-2.8,2.5-5.4,2.4-8.4c0.9,0,1.6,0,2.4,0c0,2,0.1,3.9,0,5.9c-0.1,1-0.9,1.8-1.9,2.1
			C68.2,42.2,67.4,42.2,66.2,42.4z"/>
		<path class="st1" d="M45,73.6c-0.8-0.4-1.4-0.6-2-0.9c-1.7-0.8-3.5-1.3-5.4-1.4c-0.9,0-1.2-0.3-1.1-1.2c0.1-0.4,0-0.7,0-1.2
			c2,0,4-0.1,6,0c1,0.1,1.8,0.9,2,2C44.7,71.7,44.8,72.5,45,73.6z"/>
		<path class="st1" d="M105.9,66.1c0,0.9,0,1.6,0,2.4c-2,0-4,0.1-5.9,0c-1-0.1-1.8-0.9-2.1-1.9c-0.2-0.8-0.3-1.6-0.5-2.8
			C100.2,65.1,102.9,66.1,105.9,66.1z"/>
		<path class="st2" d="M45,91.5c0.9-1.3,1.8-2.4,2.5-3.7c0.7-1.2,1.1-2.6,1.7-4c1.2,1.3,2.4,2.4,1.8,4.4c-0.1,0.3-0.2,0.6-0.4,0.8
			c-1.3,1.3-2.6,2.7-4,4.1C45.9,92.5,45.4,92,45,91.5z"/>
		<path class="st1" d="M49.1,53.7c-0.9-3.1-2.1-5.7-4.3-7.8c0.6-0.6,1.1-1.1,1.6-1.7c1.4,1.4,2.8,2.7,4.1,4.1
			c0.7,0.8,0.8,1.8,0.3,2.7C50.5,51.9,49.8,52.6,49.1,53.7z"/>
		<path class="st1" d="M86.2,46.6c3.1-0.9,5.6-2.1,7.8-4.3c0.6,0.5,1.1,1,1.7,1.6c-1.4,1.4-2.7,2.9-4.2,4.1
			c-0.8,0.7-1.9,0.7-2.8,0.2C87.9,47.8,87.2,47.2,86.2,46.6z"/>
		<path class="st1" d="M55.9,90.8c-2.8,0.8-5.3,2-7.4,4.2c-0.6-0.5-1.1-1-1.7-1.6c1.4-1.4,2.7-2.8,4.2-4.1c0.8-0.7,1.9-0.7,2.8-0.2
			c0.8,0.4,1.5,1,2.2,1.5C55.9,90.6,55.9,90.7,55.9,90.8z"/>
		<path class="st1" d="M97.5,91.4c-0.6,0.6-1.1,1.1-1.6,1.7c-1.4-1.4-2.8-2.7-4.1-4.1c-0.7-0.8-0.8-1.8-0.3-2.7
			c0.4-0.9,1-1.6,1.7-2.6C94.2,86.7,95.4,89.2,97.5,91.4z"/>
		<path class="st1" d="M45.3,71.3c-0.5-0.8-1.2-1.7-1.8-2.6c0.6-0.8,1.2-1.8,1.8-2.6c0.5,0.7,1.1,1.7,1.7,2.6
			C46.4,69.5,45.8,70.5,45.3,71.3z"/>
		<path class="st1" d="M98.9,68.6c-0.6,0.9-1.2,1.8-1.8,2.6c-0.5-0.7-1.1-1.7-1.7-2.6c0.6-0.9,1.2-1.8,1.7-2.6
			C97.7,66.8,98.3,67.7,98.9,68.6z"/>
		<path class="st1" d="M73.8,94.6c-0.8,0.5-1.8,1.2-2.6,1.8c-0.8-0.6-1.8-1.2-2.6-1.8c0.7-0.5,1.7-1.1,2.6-1.7
			C72.1,93.4,73,94.1,73.8,94.6z"/>
		<path class="st1" d="M68.6,42.7c0.8-0.5,1.8-1.2,2.6-1.8c0.8,0.6,1.8,1.2,2.6,1.8c-0.7,0.5-1.7,1.1-2.6,1.7
			C70.3,43.8,69.3,43.2,68.6,42.7z"/>
		<path class="st1" d="M51,52.2c0.2-1,0.4-2.1,0.6-3.1c1-0.2,2.1-0.4,3.1-0.6c-0.2,0.9-0.4,2-0.6,3C53,51.7,51.9,52,51,52.2z"/>
		<path class="st1" d="M87.7,88.8c0.2-0.9,0.4-1.9,0.7-3c1-0.2,2.1-0.4,3-0.6c-0.2,1-0.4,2.1-0.6,3.1C89.9,88.4,88.8,88.6,87.7,88.8
			z"/>
		<path class="st1" d="M88.3,51.5c-0.2-1.1-0.5-2.1-0.7-3c1,0.2,2.1,0.4,3.1,0.6c0.2,1,0.4,2.1,0.5,3.1C90.5,52,89.4,51.7,88.3,51.5
			z"/>
		<path class="st1" d="M51.6,88.3c-0.2-1-0.4-2.1-0.6-3.1c0.9,0.2,2,0.4,3,0.6c0.2,1,0.5,2.1,0.6,3C53.7,88.7,52.6,88.4,51.6,88.3z"
			/>
		<path class="st0" d="M81.8,68.7c0,5.9-4.7,10.5-10.5,10.5c-5.9,0-10.6-4.8-10.5-10.6c0-5.9,4.8-10.5,10.6-10.5
			C77.1,58.1,81.8,62.8,81.8,68.7z M61,68.6c0,5.7,4.5,10.2,10.2,10.2c5.6,0,10.1-4.5,10.2-10.1c0-5.7-4.5-10.2-10.1-10.2
			C65.6,58.4,61,63,61,68.6z"/>
		<path class="st1" d="M61,68.6c0-5.7,4.5-10.2,10.2-10.2S81.4,63,81.4,68.7c0,5.6-4.5,10.1-10.2,10.1C65.5,78.8,61,74.3,61,68.6z
			 M71.2,61.3c-4.1,0-7.4,3.2-7.4,7.3S67,76,71.1,76s7.4-3.2,7.4-7.3C78.5,64.6,75.3,61.3,71.2,61.3z"/>
		<path class="st0" d="M71.2,61.3c4,0,7.3,3.3,7.3,7.4c0,4-3.3,7.3-7.4,7.3c-4,0-7.3-3.3-7.3-7.4C63.9,64.5,67.2,61.3,71.2,61.3z
			 M76.5,73c2-2.2,2.2-5.6,0.5-8.1c-1.1-1.7-2.7-2.7-4.8-2.6c-1.2,0-2.3,0.5-3.2,1.4c-0.8,0.8-1.4,1.9-1,3c0.5,1.3,1.6,1.6,2.9,1.7
			c1.1-1.7,2.2-2.1,3.7-1.4C76.7,67.9,77.3,69.7,76.5,73z M64.7,70.7c0.9,3.2,4.2,5.3,7.4,4.9c2.3-0.3,3.6-1.6,4.2-3.7
			c0.7-2.2-0.6-4.5-2.7-4.7C72,67,71.3,68,71.9,69.5c0.9,2.1,0,3.5-2.3,3.5C67.7,73,66.1,72.1,64.7,70.7z M71.5,61.8
			c-2.3-0.1-4.3,0.6-5.7,2.5c-2.9,4-1.7,7,3.1,8.2c0.1,0,0.3,0,0.5,0c0.9,0,1.7,0,2.2-0.9s0.2-1.7-0.3-2.4c-0.2-0.4-0.8-0.6-1.3-0.7
			c-2.5-0.7-3.3-2.8-1.7-4.8c0.6-0.7,1.4-1.1,2.2-1.7C70.8,62,71.2,61.9,71.5,61.8z"/>
		<path class="st1" d="M76.5,73c0.8-3.3,0.3-5.1-1.8-6c-1.5-0.7-2.6-0.3-3.7,1.4c-1.2-0.1-2.4-0.4-2.9-1.7c-0.4-1.2,0.1-2.2,1-3
			c0.9-0.9,1.9-1.3,3.2-1.4c2.1,0,3.6,0.9,4.8,2.6C78.6,67.4,78.5,70.8,76.5,73z"/>
		<path class="st2" d="M64.7,70.7c1.4,1.5,3,2.3,4.9,2.3c2.3,0,3.2-1.5,2.3-3.5C71.3,68,72,67,73.6,67.1c2.1,0.2,3.5,2.5,2.7,4.7
			c-0.7,2-2,3.4-4.2,3.7C68.9,75.9,65.5,73.9,64.7,70.7z"/>
		<path class="st1" d="M71.5,61.8c-0.3,0.1-0.7,0.2-0.9,0.3c-0.8,0.5-1.6,1-2.2,1.7c-1.6,2-0.8,4.1,1.7,4.8c0.5,0.1,1,0.3,1.3,0.7
			c0.5,0.7,0.8,1.5,0.3,2.4c-0.5,0.8-1.4,0.9-2.2,0.9c-0.2,0-0.3,0-0.5,0c-4.8-1.1-6-4.2-3.1-8.2C67.1,62.5,69.1,61.7,71.5,61.8z"/>
	</g>
	<path class="st3" d="M135.9,84c-0.5-1.1-1.5-2-2.7-2.2c-0.3,0-0.5-0.1-0.8-0.1c-1.2,0-2.1,0.5-2.8,0.9c-0.8,0.5-1.5,1-2.2,1.6
		c0-0.7,0-1.4,0-2.1c0-0.9-0.3-1.8-0.9-2.5c-0.7-0.7-1.7-1.1-2.7-1.1c-0.5,0-1.1,0.1-1.6,0.4c-1,0.5-1.8,1.3-2.5,2.4
		s-1.1,2.3-1.5,3.8c-0.4-0.1-0.7-0.2-1.1-0.2c-0.6,0-1.3,0.2-1.9,0.6c-1.8,1.1-2.5,2.9-2.9,4.2c-0.6,2.1-0.6,4.4-0.1,6.9
		c0.2,1.2,0.2,2.3,0,3.3c-0.1,0.3-0.1,0.5-0.1,0.7c0,0.3,0.1,0.5,0.1,0.7c-1.7,1-3.6,1.8-5.7,2.6c-2.6,1-4.8,1.5-6.8,1.7
		c-0.5,0-0.9,0-1.2,0c-0.9,0-1.6-0.1-2.2-0.4c-0.6-0.2-0.7-0.5-0.5-1c0.3-0.9,1-1.7,2-2.4c1.8-1.3,3.2-2.6,4.4-4
		c1-1.2,2.1-2.6,2.6-4.5c0.6-2.6-0.5-5.1-2.8-6.3l-0.7-0.3l-0.6,0.5c-0.3,0.2-0.5,0.4-0.8,0.6c-0.6,0.5-1.2,1-1.9,1.4
		c-2.2,1.6-4.6,3.1-7.9,5l-1.2,0.7c-2.1,1.2-4.4,2.5-6.5,3.8c-2.8,1.7-4.9,3.3-6.8,5.1c-2,2-3.6,4.4-4.6,6.9c-1-2.6-2.6-4.9-4.6-6.9
		c-1.8-1.8-4-3.5-6.8-5.1c-2.2-1.3-4.4-2.6-6.5-3.8l-1.2-0.7c-3.3-1.9-5.7-3.4-7.9-5c-0.6-0.5-1.2-0.9-1.8-1.4
		c-0.3-0.2-0.6-0.4-0.9-0.6L41,86.7L40.3,87c-2.3,1.2-3.4,3.7-2.8,6.3c0.5,1.9,1.6,3.4,2.6,4.5c1.2,1.4,2.6,2.7,4.4,4
		c1,0.8,1.7,1.5,2,2.4c0.2,0.6,0.1,0.8-0.5,1s-1.3,0.4-2.2,0.4c-0.3,0-0.7,0-1.2,0c-2.1-0.1-4.2-0.7-6.8-1.7c-2.1-0.8-4-1.7-5.7-2.6
		c0.1-0.1,0.2-0.4,0.1-0.7c0-0.2,0-0.5-0.1-0.7c-0.2-1-0.2-2.1,0-3.3c0.5-2.6,0.4-4.9-0.1-6.9c-0.4-1.2-1-3-2.9-4.2
		c-0.6-0.4-1.3-0.6-1.9-0.6c-0.4,0-0.7,0.1-1.1,0.2c-0.4-1.5-0.9-2.7-1.6-3.8c-0.7-1.1-1.5-1.9-2.5-2.4c-0.5-0.2-1-0.4-1.6-0.4
		c-1,0-2,0.4-2.7,1.1c-0.6,0.7-1,1.6-0.9,2.5c0,0.7,0,1.4,0,2.1c-0.6-0.6-1.4-1.1-2.2-1.6c-0.6-0.4-1.6-0.9-2.8-0.9
		c-0.3,0-0.5,0-0.8,0.1c-1,0.3-2,1.1-2.4,2.2c-0.4,1-0.4,2.1,0.2,2.9c0.2,0.3,0.3,0.6,0.5,1c0.1,0.2,0.2,0.4,0.2,0.5
		c1.9,4.1,4.3,7.9,7,11.5c2.1,2.7,4.5,5.2,7.3,7.4c2.6,2.1,5.4,3.9,8.5,5.4c2.8,1.4,5.6,2.5,8.4,3.4c1.8,0.6,3.6,1.1,5.5,1.7
		c2.7,0.8,5.1,1.5,7.4,2.2c2.9,0.8,5.5,1.7,8,2.6c4,1.5,7.4,3.1,10.4,5.1c0.2,0.1,0.4,0.2,0.6,0.3h0.1l0.4,0.2l0.5-0.1h0.1l0,0h0.1
		c0.2-0.1,0.4-0.1,0.6-0.3c3-1.9,6.5-3.6,10.4-5.1c2.5-0.9,5.1-1.8,8-2.6c2.3-0.7,4.7-1.4,7.4-2.2c2-0.6,3.7-1.1,5.5-1.7
		c2.8-0.9,5.6-2.1,8.4-3.4c3.1-1.5,6-3.4,8.5-5.4c2.7-2.2,5.2-4.7,7.3-7.4c2.8-3.5,5.1-7.4,7-11.5c0.1-0.2,0.2-0.4,0.2-0.6
		c0.1-0.4,0.3-0.7,0.5-1C136.2,86.1,136.3,85,135.9,84z"/>
	<g>
		<path class="st4" d="M118.1,97.7c1.1-0.8,1.9-1.8,2.6-3c1-1.7,2-3.5,3.1-5.2c0.6-0.9,1.2-1.8,1.9-2.6c0.4-0.5,0.6-1,0.5-1.6
			c0-1.1-0.1-2.1,0-3.2c0.1-1.8-1.9-2.9-3.4-2.1c-0.9,0.4-1.5,1.1-2,1.9c-0.9,1.6-1.4,3.3-1.8,5.1c-0.6,3-0.8,6-0.9,9.1
			c0,0.5-0.1,1-0.2,1.5C118,97.6,118.1,97.6,118.1,97.7z"/>
		<path class="st4" d="M113.5,100.9c1.2-0.7,2.3-1.5,3.3-2.3c0.1-0.1,0.2-0.3,0.2-0.4c0.2-0.9,0.4-1.7,0.4-2.6
			c0.2-2.9,0.3-5.9,0.9-8.8c0-0.1,0-0.3,0-0.4c-0.8-0.6-1.7-0.6-2.5,0c-1.3,0.8-1.9,2.1-2.3,3.5c-0.6,2.1-0.5,4.3-0.1,6.4
			c0.2,1.3,0.3,2.5,0,3.8c0,0.2-0.1,0.4-0.1,0.5S113.4,100.8,113.5,100.9z"/>
		<path class="st5" d="M134.7,86.3c-0.3,0.5-0.5,1.1-0.8,1.6c-1.9,4-4.2,7.8-6.9,11.2c-2.1,2.7-4.5,5.1-7.1,7.2s-5.4,3.8-8.3,5.3
			c-2.7,1.3-5.4,2.5-8.2,3.4c-1.8,0.6-3.6,1.1-5.5,1.7c-2.5,0.7-4.9,1.5-7.4,2.2c-2.7,0.8-5.4,1.7-8.1,2.6c-3.7,1.4-7.3,3-10.6,5.2
			c-0.1,0.1-0.3,0.1-0.5,0.2l0,0l0,0c-0.2-0.1-0.4-0.1-0.5-0.2c-3.4-2.1-6.9-3.8-10.6-5.2c-2.7-1-5.4-1.9-8.1-2.6
			c-2.5-0.7-4.9-1.4-7.4-2.2c-1.8-0.5-3.7-1.1-5.5-1.7c-2.8-0.9-5.6-2-8.2-3.4c-3-1.5-5.7-3.2-8.3-5.3c-2.6-2.1-5-4.5-7.1-7.2
			c-2.7-3.5-5-7.2-6.9-11.2c-0.3-0.5-0.5-1.1-0.8-1.6c-0.7-1.1,0.1-3,1.7-3.3c1-0.2,1.9,0.1,2.7,0.6c1.6,0.9,2.8,2.2,4,3.6
			c1.7,2.1,3.2,4.5,4.5,6.9c1.1,2,2.5,3.6,4.2,5c3.2,2.5,6.8,4.4,10.5,5.8c2.3,0.9,4.7,1.6,7.2,1.8c1.3,0.1,2.6,0.1,3.9-0.4
			c1.2-0.5,1.6-1.4,1.2-2.6c-0.5-1.3-1.4-2.2-2.4-3c-1.5-1.1-2.9-2.4-4.2-3.8c-1-1.2-2-2.5-2.3-4c-0.5-2,0.2-4,2.1-4.9
			c0.9,0.7,1.8,1.4,2.7,2.1c2.6,1.9,5.2,3.5,8,5.1c2.6,1.5,5.2,2.9,7.7,4.5c2.4,1.4,4.6,3,6.5,5c2.6,2.6,4.4,5.7,5.2,9.3
			c0.1,0.4,0.2,0.8,0.2,1.1c0.1-0.4,0.1-0.8,0.2-1.1c0.8-3.6,2.6-6.7,5.2-9.3c2-2,4.2-3.5,6.5-5c2.5-1.5,5.1-3,7.7-4.5
			c2.7-1.6,5.4-3.2,8-5.1c0.9-0.7,1.8-1.4,2.7-2.1c1.9,1,2.6,3,2.1,4.9c-0.4,1.6-1.3,2.8-2.3,4c-1.2,1.4-2.7,2.7-4.2,3.8
			c-1.1,0.8-2,1.7-2.4,3c-0.4,1.2,0,2.1,1.2,2.6c1.3,0.5,2.6,0.5,3.9,0.4c2.5-0.2,4.9-0.9,7.2-1.8c3.8-1.5,7.4-3.3,10.5-5.8
			c1.7-1.4,3.2-3,4.2-5c1.3-2.4,2.7-4.7,4.5-6.9c1.1-1.4,2.4-2.7,4-3.6c0.8-0.5,1.7-0.8,2.7-0.6C134.6,83.3,135.4,85.2,134.7,86.3z"
			/>
		<path class="st4" d="M24.3,97.7c-1.1-0.8-1.9-1.8-2.6-3c-1.1-1.7-2-3.5-3.1-5.2c-0.6-0.9-1.2-1.8-1.9-2.6c-0.4-0.5-0.6-1-0.5-1.6
			c0-1.1,0.1-2.1,0-3.2c-0.1-1.8,1.9-2.9,3.4-2.1c0.9,0.4,1.5,1.1,2,1.9c0.9,1.6,1.4,3.3,1.8,5.1c0.6,3,0.8,6,0.9,9.1
			c0,0.5,0.1,1,0.2,1.5C24.4,97.6,24.3,97.6,24.3,97.7z"/>
		<path class="st4" d="M28.9,100.9c-1.2-0.7-2.3-1.5-3.3-2.3c-0.1-0.1-0.2-0.3-0.2-0.4c-0.2-0.9-0.4-1.7-0.4-2.6
			c-0.2-2.9-0.3-5.9-0.9-8.8c0-0.1,0-0.3,0-0.4c0.8-0.6,1.7-0.6,2.5,0c1.3,0.8,1.9,2.1,2.3,3.5c0.6,2.1,0.5,4.3,0.1,6.4
			c-0.2,1.3-0.3,2.5,0,3.8c0,0.2,0.1,0.4,0.1,0.5S29,100.8,28.9,100.9z"/>
	</g>
	<path class="st3" d="M103.5,63.9c0.2-0.2,0.4-0.5,0.3-0.8v-0.4c0-0.5-0.4-0.9-0.9-0.9s-2.4,0-2.8,0c-0.6,0-1.2,0-1.8,0h-0.2
		c-2.4,0-4.8,0.1-7.1,1.1c-0.7,0.3-1.2,0.7-1.4,1.1c0.1-2.5,0.4-5.1,1.2-7.8c0.1-0.3,0-0.6-0.1-0.8C90.5,55.2,90.3,55,90,55l0,0
		c-3.1,0.1-5.9,0.9-8.5,2.4L82,57c0.2-0.2,0.3-0.4,0.3-0.7s-0.1-0.5-0.3-0.7l-10-9.8c-0.2-0.2-0.4-0.3-0.6-0.3l0,0
		c-0.2,0-0.5,0.1-0.6,0.3l-9.4,10c-0.2,0.2-0.2,0.4-0.2,0.6c0,0.2,0.1,0.5,0.3,0.6l0.5,0.5c-2.6-1.6-5.6-2.6-8.3-2.6
		c-0.3,0-0.5,0-0.8,0s-0.5,0.2-0.7,0.4s-0.2,0.5-0.1,0.8c0.8,2.6,1.1,5.3,1.2,7.9c-0.2-0.8-0.9-1.2-2.3-1.6c-2.1-0.6-4.2-0.7-6-0.7
		c-0.5,0-1.1,0-1.6,0c-0.8,0-1.6,0-2.5,0.1c-0.4,0-0.8,0-1.3,0.1c-0.4,0-0.7,0.2-0.8,0.6c-0.1,0.4,0,0.7,0.2,1
		c0.2,0.2,0.4,0.4,0.6,0.5c0.3,0.3,0.6,0.5,0.8,0.7c2.4,2.4,3.7,5.4,4.8,8.4c0.4,1,0.8,1.9,1.4,2.8c-0.2-0.2-0.4-0.3-0.7-0.3
		c-0.2,0-0.4,0.1-0.6,0.2c-2.7,2.1-4.3,4.1-5.3,6.4c-0.1,0.3-0.1,0.6,0.1,0.9c0.2,0.2,0.4,0.4,0.8,0.4s0.6,0,0.9,0
		c0.2,0,0.4,0,0.6,0c0.2,0,0.4,0,0.5,0.1l0.6,0.2c1.8,0.6,3.6,1.2,5.2,2c2.8,1.5,5.8,2.3,8.7,2.3c1,0,2-0.1,3-0.3
		c2.1-0.4,3.8-0.9,5.4-1.8c0.3-0.2,0.5-0.5,0.5-0.8s-0.1-0.6-0.4-0.8c-0.2-0.1-0.5-0.3-0.7-0.4c0.1,0,0.2,0,0.3,0
		c1.3,1,2.7,1.8,4.4,2.4c0.1,0,0.2,0.1,0.3,0.1l0,0c0.4,0.2,0.9,0.3,1.3,0.3c0.7,0,1.4-0.2,2-0.6c0.4-0.2,0.8-0.3,1.2-0.5
		c0.7-0.4,1.6-0.9,2.4-1.4c0.1,0,0.1-0.1,0.2-0.2c0.1,0,0.2,0,0.3,0.1c-0.2,0.1-0.5,0.2-0.7,0.4c-0.3,0.2-0.4,0.5-0.4,0.8
		s0.2,0.6,0.5,0.8c2.9,1.4,5.6,2.1,8.3,2.1c1.3,0,2.6-0.2,3.9-0.5c1.6-0.4,3.1-1.1,4.5-1.8c0.5-0.2,1.1-0.5,1.6-0.7
		c0.3-0.1,0.5-0.2,0.8-0.4c1.5-0.7,2.9-1.3,4.4-1.3c0.4,0,0.8,0,1.2,0.1c0.1,0,0.1,0,0.2,0c0.3,0,0.5-0.1,0.7-0.3
		c0.2-0.2,0.3-0.6,0.2-0.9c-0.9-2.4-3.4-5.4-5.5-6.5c-0.1-0.1-0.3-0.1-0.4-0.1c-0.2,0-0.4,0.1-0.6,0.2c0.6-0.9,1-1.9,1.4-2.9
		C98.8,70,100.3,66.4,103.5,63.9z"/>
	<g>
		
			<linearGradient id="SVGID_1_" gradientUnits="userSpaceOnUse" x1="71.2351" y1="-649.5897" x2="71.2351" y2="-623.0397" gradientTransform="matrix(1 0 0 -1 0 -563.8897)">
			<stop  offset="2.793296e-03" style="stop-color:#ED1846"/>
			<stop  offset="1" style="stop-color:#F173AC"/>
		</linearGradient>
		<path class="st6" d="M72.1,85.7c0.4-3.8,0-7.4-1-10.9c-1.2,3.4-1.5,7-1.1,10.7c-2.4-0.9-4.4-2.2-6-4c-3.1-3.4-3-7.2-1.5-11.1
			c1.7-4.6,5-8.1,8.8-11.3c4,3.7,7.7,7.4,9.2,12.8c1.3,4.7,0,8.6-4,11.5c-0.7,0.5-1.5,0.9-2.3,1.4C73.6,85.2,72.9,85.4,72.1,85.7z"
			/>
		
			<linearGradient id="SVGID_2_" gradientUnits="userSpaceOnUse" x1="59.1" y1="-646.08" x2="59.1" y2="-620.0028" gradientTransform="matrix(1 0 0 -1 0 -563.8897)">
			<stop  offset="2.793296e-03" style="stop-color:#ED1846"/>
			<stop  offset="1" style="stop-color:#F173AC"/>
		</linearGradient>
		<path class="st7" d="M52.7,56.1c4.3-0.3,9.8,2.4,12.8,6.2c-5.1,5.7-8.1,11.9-4.1,19.8c-0.4-0.3-0.7-0.5-1-0.7s-0.6-0.5-0.9-0.7
			c-3.8-3.3-5.8-7.5-5.6-12.6C54,64.2,54,60.1,52.7,56.1z"/>
		
			<linearGradient id="SVGID_3_" gradientUnits="userSpaceOnUse" x1="83.5" y1="-646.01" x2="83.5" y2="-619.94" gradientTransform="matrix(1 0 0 -1 0 -563.8897)">
			<stop  offset="2.793296e-03" style="stop-color:#ED1846"/>
			<stop  offset="1" style="stop-color:#F173AC"/>
		</linearGradient>
		<path class="st8" d="M89.9,56.1c-1.3,4.2-1.3,8.2-1.2,12.4c0.2,5.5-2.7,10.9-7.5,13.7c4-7.7,1.1-13.9-4.1-19.8
			C80.4,58.5,84.5,56.2,89.9,56.1z"/>
		
			<linearGradient id="SVGID_4_" gradientUnits="userSpaceOnUse" x1="71.5" y1="-624.95" x2="71.5" y2="-610.5" gradientTransform="matrix(1 0 0 -1 0 -563.8897)">
			<stop  offset="2.793296e-03" style="stop-color:#ED1846"/>
			<stop  offset="1" style="stop-color:#F173AC"/>
		</linearGradient>
		<path class="st9" d="M66.5,61.1c-1.7-1.6-3.4-3.1-4.7-4.4c3-3.3,6.2-6.6,9.4-10c3.4,3.4,6.7,6.6,10,9.8c-1.8,1.5-3.5,3-5.3,4.5
			c-1.5-1.4-3-2.8-4.6-4.2C69.7,58.1,68.1,59.6,66.5,61.1z"/>
		
			<linearGradient id="SVGID_5_" gradientUnits="userSpaceOnUse" x1="93.5" y1="-645.9099" x2="93.5" y2="-626.6711" gradientTransform="matrix(1 0 0 -1 0 -563.8897)">
			<stop  offset="2.793296e-03" style="stop-color:#ED1846"/>
			<stop  offset="1" style="stop-color:#F173AC"/>
		</linearGradient>
		<path class="st10" d="M102.8,63.2c-3.1,2.5-4.8,5.9-6,9.6c-2,5.7-7.3,8.7-12.6,9.2c3.1-2.6,4.6-5.9,5.8-9.5c0.6-1.8,2.1-2.8,3.5-4
			c0.4-0.3,0.8-0.6,1.1-0.9c0-0.1-0.1-0.2-0.1-0.3c-1.4,0.5-2.8,0.9-4.2,1.4c0-1.3,0-2.8,0-4.3c0-0.3,0.6-0.6,0.9-0.7
			c2.2-1,4.6-1,6.9-1c1.5,0,3.1,0,4.6,0C102.8,63,102.8,63.1,102.8,63.2z"/>
		
			<linearGradient id="SVGID_6_" gradientUnits="userSpaceOnUse" x1="48.8" y1="-645.8477" x2="48.8" y2="-626.7383" gradientTransform="matrix(1 0 0 -1 0 -563.8897)">
			<stop  offset="2.793296e-03" style="stop-color:#ED1846"/>
			<stop  offset="1" style="stop-color:#F173AC"/>
		</linearGradient>
		<path class="st11" d="M52.2,68.8c-1.4-0.5-2.8-1-4.2-1.5c0,0.1-0.1,0.2-0.1,0.2c0.8,0.7,1.7,1.4,2.5,2.1c1.2,1,2,2.3,2.5,3.8
			c1,3.2,2.6,6.1,5.3,8.4c-1.9,0.1-5.6-1.2-7.7-2.7c-2.2-1.6-3.8-3.7-4.7-6.3c-1.2-3.2-2.5-6.2-5-8.7c-0.4-0.4-0.8-0.7-1.4-1.3
			c1.4-0.1,2.6-0.1,3.7-0.1c2.5,0,4.9-0.1,7.3,0.7c1.8,0.5,1.8,0.6,1.8,2.4C52.2,66.9,52.2,67.9,52.2,68.8z"/>
		
			<linearGradient id="SVGID_7_" gradientUnits="userSpaceOnUse" x1="52.9" y1="-651.0758" x2="52.9" y2="-640.5601" gradientTransform="matrix(1 0 0 -1 0 -563.8897)">
			<stop  offset="2.793296e-03" style="stop-color:#ED1846"/>
			<stop  offset="1" style="stop-color:#F173AC"/>
		</linearGradient>
		<path class="st12" d="M40.6,82.7c1.1-2.5,2.9-4.3,5-6c0.8,0.9,1.5,1.8,2.2,2.7c-0.9,0.4-1.7,0.8-2.6,1.3c0,0.1,0.1,0.2,0.1,0.4
			c2.8-0.5,5.2,0.4,7.7,1.6c2.3,1.1,4.8,1.2,7.3,1.4c1.6,0.2,3.3,0.2,4.9,1.2c-1.7,0.9-3.4,1.4-5.1,1.7c-4,0.7-7.6,0-11.2-1.9
			c-1.9-1-3.9-1.6-5.9-2.3C42.3,82.5,41.5,82.7,40.6,82.7z"/>
		
			<linearGradient id="SVGID_8_" gradientUnits="userSpaceOnUse" x1="89.5" y1="-651.1159" x2="89.5" y2="-640.6289" gradientTransform="matrix(1 0 0 -1 0 -563.8897)">
			<stop  offset="2.793296e-03" style="stop-color:#ED1846"/>
			<stop  offset="1" style="stop-color:#F173AC"/>
		</linearGradient>
		<path class="st13" d="M77.3,85.3c1.6-1,3.2-1,4.8-1.2c2-0.3,4-0.5,5.9-0.9c0.5-0.1,1.1-0.3,1.6-0.6c2.3-1.3,4.8-2.1,7.5-1.6
			c0-0.1,0.1-0.2,0.1-0.4c-0.9-0.4-1.7-0.9-2.6-1.3c0.6-0.8,1.3-1.7,2.1-2.6c1.9,1,4.3,3.9,5,6c-2.6-0.6-4.7,0.6-6.9,1.5
			c-2,0.9-3.9,1.9-6,2.5C85,87.8,81.1,87.1,77.3,85.3z"/>
	</g>
</g>
<g>
	<g>
		<path class="st14" d="M169.4,38.1h2V49c-1.3,1.2-2.8,2.1-4.6,2.8s-3.7,1-5.7,1c-2.9,0-5.5-0.6-7.8-1.9c-2.3-1.3-4.1-3-5.4-5.3
			s-2-4.8-2-7.5s0.7-5.3,2-7.5s3.1-4,5.4-5.3c2.3-1.3,4.9-1.9,7.8-1.9c2.1,0,4.1,0.3,5.9,1c1.8,0.7,3.3,1.7,4.6,3l-1.3,1.4
			c-1.2-1.2-2.6-2.1-4.1-2.6s-3.2-0.8-5-0.8c-2.5,0-4.7,0.6-6.7,1.7s-3.6,2.6-4.7,4.6s-1.7,4.1-1.7,6.5s0.6,4.5,1.7,6.5
			c1.1,2,2.7,3.5,4.7,4.6s4.2,1.7,6.7,1.7c3.3,0,6.1-0.9,8.2-2.6L169.4,38.1L169.4,38.1z"/>
		<path class="st14" d="M200.9,52.5l-6.9-9.7c-1,0.1-2,0.2-2.8,0.2h-8.3v9.5h-2.1v-29h10.4c3.6,0,6.5,0.9,8.6,2.6s3.1,4.1,3.1,7.2
			c0,2.3-0.6,4.2-1.8,5.8s-2.9,2.7-5,3.3l7.2,10.1H200.9L200.9,52.5z M191.1,41.1c3.1,0,5.5-0.7,7.1-2c1.6-1.4,2.4-3.3,2.4-5.8
			s-0.8-4.4-2.4-5.8c-1.6-1.4-4-2.1-7.1-2.1h-8.3v15.7H191.1z"/>
		<path class="st14" d="M230.6,50.6v1.9h-20v-29H230v1.9h-17.3v11.4h15.5v1.9h-15.5v11.9H230.6L230.6,50.6z"/>
		<path class="st14" d="M256.2,44.3h-16.8l-3.7,8.2h-2.3l13.3-29h2.1l13.3,29h-2.3L256.2,44.3z M255.4,42.5l-7.6-16.7l-7.6,16.7
			H255.4z"/>
		<path class="st14" d="M271.6,25.4h-10.4v-1.9h23v1.9h-10.4v27.1h-2.1V25.4H271.6z"/>
		<path class="st14" d="M160.9,83.3c1.7,0,3.1-0.3,4.4-0.9c1.2-0.6,2.5-1.5,3.8-2.7l3.1,3.2c-3.1,3.4-6.8,5.1-11.2,5.1
			s-8-1.4-10.9-4.2s-4.3-6.4-4.3-10.7s1.5-7.9,4.4-10.8s6.6-4.3,11.1-4.3s8.2,1.7,11.2,5l-3.1,3.4c-1.4-1.3-2.7-2.2-3.9-2.8
			c-1.2-0.5-2.7-0.8-4.3-0.8c-2.9,0-5.4,1-7.4,2.8c-2,1.9-3,4.3-3,7.2s1,5.4,3,7.4C155.9,82.3,158.2,83.3,160.9,83.3z"/>
		<path class="st14" d="M201.8,83.8c-2.9,2.9-6.5,4.3-10.9,4.3s-7.9-1.4-10.9-4.3c-2.9-2.9-4.4-6.4-4.4-10.7s1.5-7.8,4.4-10.7
			s6.5-4.3,10.9-4.3s7.9,1.4,10.9,4.3c2.9,2.9,4.4,6.4,4.4,10.7C206.2,77.3,204.7,80.9,201.8,83.8z M198.2,65.6
			c-2-2-4.4-3.1-7.3-3.1s-5.3,1-7.3,3.1c-2,2-3,4.5-3,7.4s1,5.4,3,7.4s4.4,3.1,7.3,3.1s5.3-1,7.3-3.1c2-2,3-4.5,3-7.4
			C201.2,70.2,200.2,67.7,198.2,65.6z"/>
		<path class="st14" d="M217.2,87.8h-4.9v-29h7.6l8.7,18.2l8.7-18.2h7.6v29H240V65.2l-10,20h-2.7l-10.1-20.1V87.8L217.2,87.8z"/>
		<path class="st14" d="M272.6,61.3c2,1.7,3,4.3,3,7.8s-1,6.1-3.1,7.7s-5.2,2.4-9.5,2.4h-5.1v8.5H253v-29h10
			C267.4,58.8,270.6,59.7,272.6,61.3z M269.1,73.3c1-1,1.5-2.5,1.5-4.6s-0.6-3.4-1.9-4.2s-3.2-1.2-5.8-1.2h-5v11.6h5.7
			C266.3,74.8,268.2,74.3,269.1,73.3z"/>
		<path class="st14" d="M283.9,81.2l-2.9,6.6h-5.2l12.8-29h5.2l12.8,29h-5.2l-2.9-6.6H283.9z M296.4,76.7l-5.3-11.9l-5.3,11.9H296.4
			z"/>
		<path class="st14" d="M319.3,62.6c-1.4,0-2.6,0.3-3.5,0.9c-0.9,0.6-1.4,1.5-1.4,2.6s0.5,2.1,1.4,2.7s2.8,1.3,5.8,2s5.2,1.7,6.7,3
			s2.3,3.2,2.3,5.7s-1,4.6-2.9,6.1s-4.4,2.4-7.5,2.4c-4.5,0-8.5-1.6-12-4.7l3.1-3.7c2.9,2.5,6,3.8,9.1,3.8c1.6,0,2.8-0.3,3.8-1
			c0.9-0.7,1.4-1.6,1.4-2.7s-0.4-2-1.3-2.6s-2.4-1.2-4.5-1.7s-3.7-1-4.8-1.4s-2.1-1-2.9-1.7c-1.7-1.3-2.6-3.3-2.6-6
			c0-2.7,1-4.7,2.9-6.2s4.4-2.2,7.2-2.2c1.8,0,3.7,0.3,5.5,0.9c1.8,0.6,3.4,1.5,4.7,2.6l-2.6,3.7c-0.9-0.8-2-1.4-3.5-1.9
			C322.2,62.9,320.7,62.6,319.3,62.6z"/>
		<path class="st14" d="M345.4,62.6c-1.4,0-2.6,0.3-3.5,0.9c-0.9,0.6-1.4,1.5-1.4,2.6s0.5,2.1,1.4,2.7s2.8,1.3,5.8,2s5.2,1.7,6.7,3
			s2.3,3.2,2.3,5.7s-1,4.6-2.9,6.1s-4.4,2.4-7.5,2.4c-4.5,0-8.5-1.6-12-4.7l3.1-3.7c2.9,2.5,6,3.8,9.1,3.8c1.6,0,2.8-0.3,3.8-1
			c0.9-0.7,1.4-1.6,1.4-2.7s-0.4-2-1.3-2.6s-2.4-1.2-4.5-1.7s-3.7-1-4.8-1.4s-2.1-1-2.9-1.7c-1.7-1.3-2.6-3.3-2.6-6
			c0-2.7,1-4.7,2.9-6.2s4.4-2.2,7.2-2.2c1.8,0,3.7,0.3,5.5,0.9c1.8,0.6,3.4,1.5,4.7,2.6l-2.6,3.7c-0.9-0.8-2-1.4-3.5-1.9
			C348.3,62.9,346.8,62.6,345.4,62.6z"/>
		<path class="st14" d="M362.7,58.8h4.9v29h-4.9V58.8z"/>
		<path class="st14" d="M399.9,83.8c-2.9,2.9-6.5,4.3-10.8,4.3s-7.9-1.4-10.8-4.3s-4.4-6.4-4.4-10.7s1.5-7.8,4.4-10.7
			s6.5-4.3,10.8-4.3s7.9,1.4,10.8,4.3s4.4,6.4,4.4,10.7C404.3,77.3,402.8,80.9,399.9,83.8z M396.3,65.6c-2-2-4.4-3.1-7.3-3.1
			s-5.3,1-7.3,3.1c-2,2-3,4.5-3,7.4s1,5.4,3,7.4s4.4,3.1,7.3,3.1s5.3-1,7.3-3.1c2-2,3-4.5,3-7.4S398.3,67.7,396.3,65.6z"/>
		<path class="st14" d="M432.2,58.8h4.9v29h-5.3l-16.4-21.1v21.1h-4.9v-29h4.9l16.8,21.6V58.8L432.2,58.8z"/>
		<path class="st14" d="M150.8,96v12.4h15.5v1.9h-15.5V123h-2.1V94h19.4v2H150.8L150.8,96z"/>
		<path class="st14" d="M177.7,120.1c-2-2.1-3-5.2-3-9.3V94.1h2.1v16.6c0,3.6,0.8,6.2,2.4,8c1.6,1.8,4,2.6,7.1,2.6s5.4-0.9,7-2.6
			s2.4-4.4,2.4-8V94.1h2.1v16.7c0,4.1-1,7.2-3.1,9.3s-4.9,3.2-8.6,3.2C182.5,123.3,179.7,122.2,177.7,120.1z"/>
		<path class="st14" d="M231.3,94.1v29h-1.7l-19.8-25.2V123h-2.1V94h1.8l19.7,25.2V94.1H231.3z"/>
		<path class="st14" d="M241.4,94.1h11.5c3,0,5.7,0.6,8,1.9c2.3,1.2,4.1,3,5.5,5.2s2,4.7,2,7.5s-0.6,5.3-2,7.5s-3.1,3.9-5.5,5.2
			c-2.3,1.2-5,1.9-8,1.9h-11.5V94.1z M252.7,121.1c2.7,0,5-0.5,7.1-1.6c2-1.1,3.6-2.5,4.7-4.5c1.1-1.9,1.7-4.1,1.7-6.5
			c0-2.5-0.5-4.6-1.7-6.5c-1.1-1.9-2.7-3.4-4.7-4.5s-4.4-1.6-7.1-1.6h-9.2v25.2L252.7,121.1L252.7,121.1z"/>
	</g>
</g>
</svg>
