<?xml version="1.0" encoding="utf-8"?>
<!-- Generator: Adobe Illustrator 25.1.0, SVG Export Plug-In . SVG Version: 6.00 Build 0)  -->
<svg version="1.1" id="Layer_1" xmlns="http://www.w3.org/2000/svg" xmlns:xlink="http://www.w3.org/1999/xlink" x="0px" y="0px"
	 viewBox="0 0 408.8 408.8" style="enable-background:new 0 0 408.8 408.8;" xml:space="preserve">
<g>
	<path d="M140.78,4.43c42.43,0,84.87,0,127.3,0c3.61,0.27,7.24,0.44,10.84,0.84c13.66,1.51,27.58,1.92,40.92,4.89
		c33.2,7.4,57.65,26.68,72.13,57.72c9.54,20.44,11.91,42.39,11.96,64.64c0.09,46.72,0.32,93.43-0.15,140.14
		c-0.14,14.23-1.04,28.72-3.96,42.59c-9.65,45.92-38,74.08-83.84,84.38c-19.56,4.4-39.54,4.25-59.4,4.46
		c-34.61,0.36-69.23,0.35-103.84,0c-20.13-0.2-40.34-0.21-60.17-4.6c-45.41-10.04-75.67-41.67-83.84-87.32
		c-3.27-18.28-3.56-36.75-3.7-55.2c-0.26-35-0.51-70.01,0.1-105.01c0.32-18.68,1.25-37.5,4.01-55.94
		c4.09-27.35,17.31-50.13,39.55-67.16C68.16,13.98,90.74,7.9,114.74,6.05C123.41,5.38,132.1,4.96,140.78,4.43z M204.83,368.91
		c0-0.23,0.01-0.47,0.01-0.7c14.45,0,28.9,0.29,43.34-0.07c20-0.49,40.13,0.33,59.89-3.68c28.53-5.78,47.38-22.41,55.38-50.74
		c3.78-13.4,4.33-27.21,4.53-40.97c0.47-32.92,0.92-65.85,0.58-98.77c-0.24-22.61-0.86-45.29-3.03-67.78
		c-3.01-31.21-22.94-52.93-53.4-60.68c-16.43-4.18-33.28-4.12-50.02-4.31c-33.05-0.38-66.11-0.25-99.17-0.16
		c-19.77,0.05-39.6-0.29-59.15,3.21c-30.43,5.44-50.92,22.63-57.76,53.2c-3.09,13.82-4.08,28.34-4.25,42.56
		c-0.53,43.07-0.42,86.15-0.05,129.23c0.11,12.56,1.16,25.24,3.15,37.64c3.28,20.44,13.38,37.04,31.35,48.08
		c13.06,8.02,27.71,11.18,42.76,11.75C147.58,367.79,176.21,368.22,204.83,368.91z"/>
	<path d="M205.14,101.54c56.88,0.54,102.88,46.82,102.49,103.12c-0.39,56.93-46.9,103.07-103.41,102.6
		c-56.82-0.47-103.01-47.31-102.31-103.72C102.62,146.94,149.11,101,205.14,101.54z M204.5,270.85
		c36.92,0.08,66.67-29.37,66.77-66.08c0.1-36.91-29.36-66.75-66.02-66.87c-37.13-0.12-66.86,29.33-66.93,66.3
		C138.25,241.1,167.71,270.77,204.5,270.85z"/>
	<path d="M311.62,121.56c-13.42,0.02-23.99-10.5-24.01-23.87c-0.02-13.36,10.59-24.07,23.87-24.11c13.23-0.04,24.03,10.7,24.1,23.97
		C335.65,110.82,324.95,121.54,311.62,121.56z"/>
</g>
</svg>
