<?xml version="1.0" encoding="utf-8"?>
<!-- Generator: Adobe Illustrator 25.1.0, SVG Export Plug-In . SVG Version: 6.00 Build 0)  -->
<svg version="1.1" id="Layer_1" xmlns="http://www.w3.org/2000/svg" xmlns:xlink="http://www.w3.org/1999/xlink" x="0px" y="0px"
	 viewBox="0 0 408.8 408.8" style="enable-background:new 0 0 408.8 408.8;" xml:space="preserve">
<path d="M408.8,41.52c0,108.59,0,217.18,0,325.76c-0.25,0.6-0.62,1.18-0.73,1.8c-4.14,22.99-23.54,39.66-46.65,39.67
	c-104.7,0.06-209.4,0.07-314.11-0.01c-25.94-0.02-47.24-21.32-47.26-47.26c-0.08-104.7-0.07-209.4,0.01-314.11
	C0.08,31.75,6.9,19.27,19.09,9.62C25.7,4.39,33.52,1.98,41.52,0C150.11,0,258.7,0,367.29,0c0.6,0.25,1.17,0.62,1.8,0.73
	c14.9,2.68,26.22,10.64,33.47,23.8C405.43,29.76,406.77,35.83,408.8,41.52z M270.03,376.88c1.67,0,2.98,0,4.29,0
	c27.94,0,55.88,0.01,83.82,0c12.38-0.01,18.74-6.31,18.74-18.63c0.01-102.58,0.01-205.17,0-307.75c0-12.14-6.35-18.57-18.39-18.57
	c-102.72-0.01-205.43-0.01-308.15,0c-12.04,0-18.41,6.42-18.41,18.55c-0.01,102.58-0.01,205.17,0,307.75
	c0,12.33,6.34,18.64,18.72,18.64c55.08,0.01,110.17,0,165.25,0c1.41,0,2.82,0,4.19,0c0-43.68,0-86.83,0-130.28
	c-15.94,0-31.59,0-47.34,0c0-16.57,0-32.84,0-49.56c16.01,0,31.75,0,47.64,0c0-2.03-0.03-3.62,0-5.21c0.27-13.29-0.3-26.65,1-39.84
	c3-30.49,30.74-58.44,61.29-61.5c14.23-1.43,28.67-0.7,43.02-0.92c0.21,0,0.41,0.28,0.65,0.45c0,16.17,0,32.34,0,48.91
	c-1.48,0-2.78,0-4.07,0c-9.18,0-18.36-0.12-27.54,0.03c-12.51,0.21-22.9,7.46-23.87,18.64c-1.13,13.01-0.26,26.19-0.26,39.71
	c18.65,0,37.6,0,56.83,0c-2.77,16.74-5.47,33.03-8.21,49.55c-16.68,0-32.86,0-49.2,0C270.03,290.22,270.03,333.28,270.03,376.88z"/>
</svg>
