<?xml version="1.0" encoding="utf-8"?>
<!-- Generator: Adobe Illustrator 25.1.0, SVG Export Plug-In . SVG Version: 6.00 Build 0)  -->
<svg version="1.1" id="Layer_1" xmlns="http://www.w3.org/2000/svg" xmlns:xlink="http://www.w3.org/1999/xlink" x="0px" y="0px"
	 viewBox="0 0 230 63" style="enable-background:new 0 0 230 63;" xml:space="preserve">
<style type="text/css">
	.st0{fill:#B45314;}
	.st1{fill:#FFF200;}
	.st2{fill:#FDB913;}
	.st3{fill:#FFFFFF;}
	.st4{fill:#F7941D;}
	.st5{fill:#FAA74A;}
	.st6{fill:url(#SVGID_1_);}
	.st7{fill:url(#SVGID_2_);}
	.st8{fill:url(#SVGID_3_);}
	.st9{fill:url(#SVGID_4_);}
	.st10{fill:url(#SVGID_5_);}
	.st11{fill:url(#SVGID_6_);}
	.st12{fill:url(#SVGID_7_);}
	.st13{fill:url(#SVGID_8_);}
	.st14{fill:#8B0304;}
	.st15{font-family:'Montserrat-Light';}
	.st16{font-size:21.9092px;}
	.st17{font-family:'Montserrat-Regular';}
</style>
<g>
	<g>
		<g>
			<path class="st0" d="M4.57,30.49c0.59-1.3,0.91-1.54,2.36-1.76c0.4-1.94,1.99-2.48,3.33-1.83c0.55-1.72,0.99-3.5,1.69-5.18
				c0.7-1.68,1.65-3.26,2.49-4.89c-0.67-0.21-1.24-0.67-1.49-1.45c-0.25-0.79-0.05-1.5,0.44-2.13c-0.98-1.36-1-2.48-0.05-3.37
				c0.92-0.86,2.11-0.81,3.2,0.15c1.4-1.02,3.13-0.55,3.69,1.2c3.05-2.14,6.4-3.56,10.12-4.19c-0.37-0.75-0.48-1.49-0.08-2.24
				c0.39-0.73,1.05-1.07,1.85-1.2C32.1,2.34,32.75,1.6,33.86,1.2c0.33,0,0.66,0,0.99,0c1.1,0.4,1.75,1.14,1.73,2.35
				c1.95,0.39,2.51,1.98,1.8,3.47c3.67,0.63,7.02,2.03,10.06,4.17c0.78-1.97,2.51-2.07,3.69-1.18c1.32-0.98,2.47-0.99,3.35-0.03
				c0.86,0.92,0.8,2.1-0.15,3.2c1.01,1.38,0.57,3.11-1.2,3.69c2.15,3.05,3.56,6.4,4.18,10.07c1.68-0.76,3.14,0.04,3.48,1.8
				c1.54,0.2,2.35,0.96,2.35,2.23c0.01,1.29-0.77,2.04-2.36,2.28c-0.42,1.98-2.04,2.47-3.46,1.77c-0.63,3.67-2.03,7.02-4.19,10.09
				c0.81,0.26,1.39,0.72,1.63,1.5c0.25,0.79,0.06,1.5-0.44,2.13c0.98,1.36,0.99,2.49,0.05,3.37c-0.92,0.86-2.11,0.81-3.2-0.15
				c-1.36,1-3.1,0.59-3.69-1.2c-3.05,2.15-6.4,3.56-10.11,4.19c0.38,0.75,0.48,1.49,0.07,2.24c-0.39,0.73-1.04,1.07-1.82,1.19
				c-0.22,1.6-0.97,2.39-2.23,2.4c-1.3,0.01-2.05-0.77-2.28-2.36c-1.99-0.72-2.45-1.61-1.77-3.47c-3.66-0.63-7.01-2.03-10.09-4.19
				c-0.25,0.81-0.71,1.39-1.49,1.63c-0.79,0.25-1.5,0.07-2.16-0.46c-0.54,0.54-1.19,0.92-1.95,0.75c-0.5-0.12-1.05-0.37-1.41-0.73
				c-0.89-0.87-0.79-2.08,0.15-3.15c-0.91-1.86-0.54-3.05,1.2-3.7c-2.14-3.05-3.55-6.39-4.19-10.11c-0.75,0.36-1.49,0.47-2.24,0.07
				c-0.73-0.39-1.08-1.04-1.2-1.85c-1.25,0.02-1.99-0.63-2.39-1.73C4.57,31.16,4.57,30.82,4.57,30.49z M10.29,30.97
				c-0.04,13.24,10.69,24.02,23.97,24.08c13.3,0.06,24.1-10.66,24.16-23.99C58.47,17.79,47.73,6.97,34.45,6.93
				C21.11,6.89,10.33,17.61,10.29,30.97z M16.07,11.95c0.01,0.51,0.34,1.08,0.98,1.48c0.23,0.14,0.4,0.13,0.61-0.06
				c0.68-0.6,1.37-1.2,2.08-1.77c0.24-0.19,0.27-0.37,0.17-0.64c-0.33-0.87-1.23-1.38-2.2-1.22C16.78,9.89,16.07,10.74,16.07,11.95z
				 M15.3,49.28c0.54-0.01,1.11-0.34,1.5-0.99c0.14-0.24,0.11-0.4-0.07-0.61c-0.59-0.67-1.18-1.34-1.73-2.04
				c-0.22-0.28-0.42-0.3-0.72-0.17c-0.87,0.37-1.35,1.28-1.16,2.24C13.29,48.6,14.13,49.27,15.3,49.28z M18.07,52.27
				c0.82,0,1.51-0.47,1.82-1.21c0.13-0.3,0.09-0.5-0.18-0.71c-0.68-0.54-1.35-1.1-1.99-1.69c-0.26-0.24-0.46-0.23-0.73-0.06
				c-0.72,0.46-1.08,1.36-0.85,2.2C16.38,51.67,17.16,52.27,18.07,52.27z M15.3,12.7c-1.2,0.01-2.05,0.72-2.2,1.64
				c-0.16,0.97,0.34,1.87,1.22,2.2c0.27,0.1,0.44,0.08,0.64-0.16c0.57-0.71,1.16-1.4,1.77-2.08c0.19-0.21,0.2-0.38,0.06-0.61
				C16.39,13.04,15.83,12.71,15.3,12.7z M38.48,56.03c-0.05-0.16-0.1-0.47-0.24-0.74c-0.07-0.13-0.3-0.25-0.45-0.24
				c-0.94,0.06-1.87,0.14-2.8,0.25c-0.16,0.02-0.38,0.19-0.43,0.34c-0.25,0.79-0.02,1.47,0.59,2.01c0.63,0.55,1.37,0.65,2.13,0.32
				C38.04,57.64,38.43,57.02,38.48,56.03z M61.5,28.94c0.05-1.5-1.49-2.54-2.79-1.87c-0.15,0.07-0.3,0.31-0.29,0.47
				c0.05,0.94,0.16,1.87,0.22,2.81c0.02,0.29,0.14,0.39,0.4,0.46C60.25,31.14,61.45,30.23,61.5,28.94z M55.63,47.27
				c0-0.8-0.45-1.48-1.18-1.8c-0.32-0.14-0.53-0.11-0.76,0.19c-0.54,0.69-1.11,1.35-1.7,2c-0.21,0.23-0.22,0.4-0.07,0.65
				c0.43,0.74,1.33,1.13,2.18,0.92C55,49,55.63,48.2,55.63,47.27z M53.34,12.7c-0.46,0.01-1.02,0.34-1.42,0.99
				c-0.14,0.23-0.12,0.4,0.07,0.61c0.59,0.67,1.18,1.34,1.73,2.04c0.22,0.27,0.42,0.31,0.72,0.18c0.87-0.37,1.35-1.27,1.16-2.23
				C55.42,13.38,54.58,12.71,53.34,12.7z M52.64,50.03c-0.01-0.5-0.33-1.08-0.98-1.47c-0.23-0.14-0.4-0.14-0.61,0.06
				c-0.67,0.59-1.34,1.18-2.04,1.73c-0.27,0.22-0.32,0.41-0.19,0.72c0.37,0.87,1.27,1.35,2.23,1.17
				C51.95,52.06,52.63,51.22,52.64,50.03z M34.25,56.16c0-0.73-0.13-0.86-0.87-0.91c-0.8-0.06-1.61-0.13-2.41-0.22
				c-0.31-0.04-0.45,0.09-0.56,0.34c-0.31,0.71-0.16,1.59,0.38,2.16c0.55,0.57,1.44,0.77,2.19,0.47
				C33.74,57.7,34.25,56.97,34.25,56.16z M61.5,33.08c-0.02-1.29-1.2-2.22-2.42-1.92c-0.3,0.07-0.43,0.2-0.45,0.53
				c-0.05,0.9-0.14,1.81-0.24,2.71c-0.03,0.29,0.07,0.42,0.31,0.53C60,35.55,61.52,34.55,61.5,33.08z M52.64,11.93
				c-0.01-1.19-0.71-2.04-1.64-2.19c-0.97-0.16-1.87,0.34-2.2,1.22c-0.1,0.26-0.08,0.44,0.16,0.64c0.71,0.57,1.4,1.16,2.08,1.77
				c0.21,0.19,0.38,0.2,0.61,0.06C52.31,13.03,52.63,12.46,52.64,11.93z M32.23,3.84c-1.48,0.01-2.46,1.55-1.78,2.82
				c0.07,0.14,0.32,0.28,0.48,0.27c0.9-0.05,1.8-0.17,2.71-0.22c0.35-0.02,0.48-0.16,0.55-0.48C34.47,5.01,33.52,3.84,32.23,3.84z
				 M36.47,3.84c-1.31,0-2.27,1.21-1.94,2.44c0.07,0.28,0.18,0.4,0.49,0.42c0.92,0.06,1.84,0.17,2.76,0.22
				c0.16,0.01,0.41-0.13,0.48-0.27C38.93,5.39,37.95,3.85,36.47,3.84z M9.16,30.88c0.74,0.01,0.88-0.13,0.93-0.85
				c0.06-0.8,0.13-1.61,0.22-2.41c0.04-0.3-0.05-0.45-0.32-0.57c-0.7-0.32-1.59-0.18-2.16,0.36c-0.58,0.55-0.78,1.43-0.5,2.18
				C7.63,30.36,8.35,30.87,9.16,30.88z M7.21,33.13c0.02,1.45,1.52,2.42,2.79,1.78c0.15-0.07,0.31-0.31,0.3-0.47
				c-0.05-0.94-0.16-1.87-0.22-2.81c-0.02-0.29-0.13-0.39-0.39-0.47C8.43,30.83,7.19,31.8,7.21,33.13z M61.75,31.08
				c0.61,0.26,1.04,0.81,1.27,1.6c0.62-0.46,0.92-1.02,0.9-1.72c-0.01-0.67-0.29-1.23-0.77-1.55
				C62.67,29.99,62.22,30.53,61.75,31.08z M35.94,2.19c-0.33-0.48-0.88-0.76-1.55-0.77c-0.7-0.01-1.26,0.27-1.67,0.85
				c0.35,0.2,0.69,0.34,0.96,0.57c0.27,0.23,0.48,0.55,0.62,0.72C34.84,3.1,35.36,2.67,35.94,2.19z M32.77,59.8
				c0.39,0.52,1,0.82,1.74,0.76c0.63-0.05,1.15-0.32,1.51-0.92c-0.81-0.2-1.31-0.69-1.59-1.24C33.88,58.86,33.36,59.31,32.77,59.8z
				 M5.53,29.41c-0.49,0.36-0.78,0.94-0.75,1.66c0.03,0.65,0.3,1.2,0.92,1.59c0.19-0.8,0.67-1.31,1.25-1.6
				C6.49,30.53,6.05,30.01,5.53,29.41z M55.83,11.73c0.11-0.61-0.1-1.22-0.64-1.71c-0.49-0.45-1.06-0.62-1.76-0.48
				c0.42,0.72,0.47,1.42,0.24,2.02C54.37,11.61,55.06,11.67,55.83,11.73z M53.61,52.47c0.58,0.11,1.18-0.09,1.67-0.59
				c0.47-0.48,0.67-1.07,0.51-1.8c-0.71,0.4-1.42,0.46-2.01,0.23C53.73,51.02,53.68,51.7,53.61,52.47z M12.91,11.92
				c0.71-0.44,1.42-0.47,2.21-0.17c-0.34-0.81-0.23-1.5,0.14-2.22c-0.75-0.12-1.36,0.07-1.84,0.57
				C12.96,10.59,12.76,11.17,12.91,11.92z M14.92,50.31c-0.61,0.26-1.31,0.14-2.02-0.22c-0.12,0.81,0.1,1.43,0.66,1.91
				c0.48,0.41,1.04,0.59,1.53,0.47C15.03,51.7,14.97,51.01,14.92,50.31z M52.96,12.19c0.75-0.59,0.88-1.79,0.16-2.61
				c-0.27,0.19-0.54,0.39-0.68,0.49C52.63,10.86,52.8,11.53,52.96,12.19z M55.27,49.08c-0.8,0.19-1.48,0.36-2.12,0.51
				c0.52,0.75,1.79,0.9,2.6,0.16C55.57,49.49,55.37,49.22,55.27,49.08z M15.58,52.42c0.29-0.22,0.56-0.43,0.85-0.65
				c-0.55-0.65-0.64-1.33-0.54-2.08C15.01,50.34,14.87,51.46,15.58,52.42z M13.52,13.11c0.68-0.6,1.38-0.7,2.19-0.58
				c-0.52-0.62-1.1-0.85-1.77-0.75c-0.32,0.05-0.62,0.25-0.93,0.38C13.17,12.45,13.32,12.74,13.52,13.11z M53.16,12.39
				c0.63,0.15,1.31,0.32,2.12,0.52c0.1-0.15,0.3-0.43,0.49-0.7C54.83,11.51,53.69,11.66,53.16,12.39z M12.94,49.78
				c0.95,0.7,2.15,0.54,2.69-0.33c-0.78,0.16-1.46-0.03-2.09-0.53C13.32,49.23,13.14,49.49,12.94,49.78z M15.75,12.18
				c0.16-0.64,0.32-1.32,0.52-2.11c-0.15-0.1-0.43-0.3-0.71-0.49C14.87,10.55,15.03,11.68,15.75,12.18z M8.13,31.11
				c-0.83-0.07-1.43,0.2-1.84,0.78c-0.18,0.25-0.23,0.59-0.33,0.89c0.3,0.06,0.59,0.13,0.89,0.19c0.03,0.01,0.06-0.02,0.13-0.05
				C7.05,32.19,7.44,31.6,8.13,31.11z M52.5,51.75c-0.06,0.02-0.12,0.05-0.18,0.07c0.27,0.19,0.55,0.38,0.82,0.57
				c0.71-0.86,0.57-2.04-0.18-2.6C52.81,50.42,52.65,51.08,52.5,51.75z M32.28,3.61c0.88,0.06,1.46,0.47,1.96,1.17
				c0.05-0.84-0.2-1.44-0.78-1.84c-0.25-0.18-0.59-0.23-0.89-0.34C32.48,2.91,32.39,3.23,32.28,3.61z M8.13,30.85
				c-0.72-0.48-1.07-1.07-1.16-1.84c-0.19,0-0.36-0.02-0.52,0c-0.55,0.07-0.62,0.2-0.39,0.71C6.42,30.49,7.16,30.92,8.13,30.85z
				 M36.37,3.6c-0.04-0.28-0.07-0.52-0.1-0.76c-0.04-0.27-0.2-0.29-0.43-0.23c-0.85,0.24-1.45,1.16-1.32,2.12
				C34.96,4.05,35.57,3.69,36.37,3.6z M60.59,31.14c0.71,0.47,1.06,1.07,1.15,1.82c0.21,0,0.39,0.02,0.57,0
				c0.5-0.08,0.55-0.19,0.35-0.66C62.31,31.5,61.55,31.04,60.59,31.14z M61.73,28.9c-0.07,0.92-0.49,1.48-1.15,1.97
				c0.82,0.06,1.41-0.2,1.82-0.77c0.18-0.25,0.24-0.59,0.36-0.89C62.44,29.12,62.13,29.03,61.73,28.9z M34.22,57.2
				c-0.48,0.75-1.1,1.08-1.85,1.19c0,0.18-0.01,0.31,0,0.44c0.06,0.6,0.22,0.69,0.75,0.43C33.87,58.9,34.27,58.19,34.22,57.2z
				 M34.47,57.18c-0.06,0.85,0.19,1.44,0.76,1.85c0.25,0.18,0.59,0.25,0.88,0.36c0.07-0.31,0.14-0.61,0.21-0.92
				c0-0.02-0.03-0.05-0.07-0.11C35.55,58.28,34.96,57.92,34.47,57.18z"/>
			<path class="st1" d="M10.29,30.97C10.33,17.61,21.11,6.89,34.45,6.93c13.28,0.04,24.02,10.87,23.97,24.13
				c-0.06,13.33-10.86,24.05-24.16,23.99C20.99,54.99,10.25,44.21,10.29,30.97z M14.28,30.96c-0.04,11.08,8.9,20.05,20.03,20.11
				c11.06,0.06,20.06-8.89,20.12-20.02c0.06-11.08-8.93-20.11-20.06-20.13C23.29,10.89,14.31,19.84,14.28,30.96z"/>
			<path class="st1" d="M16.07,11.95c0.01-1.21,0.72-2.06,1.64-2.21c0.97-0.16,1.87,0.35,2.2,1.22c0.1,0.27,0.07,0.45-0.17,0.64
				c-0.71,0.57-1.4,1.16-2.08,1.77c-0.21,0.19-0.39,0.2-0.61,0.06C16.4,13.03,16.07,12.46,16.07,11.95z"/>
			<path class="st1" d="M15.3,49.28c-1.16,0-2-0.68-2.18-1.58c-0.19-0.96,0.29-1.86,1.16-2.24c0.3-0.13,0.5-0.11,0.72,0.17
				c0.56,0.7,1.14,1.38,1.73,2.04c0.19,0.21,0.22,0.38,0.07,0.61C16.4,48.93,15.84,49.27,15.3,49.28z"/>
			<path class="st1" d="M18.07,52.27c-0.91,0-1.69-0.6-1.94-1.48c-0.23-0.83,0.12-1.74,0.85-2.2c0.27-0.17,0.47-0.18,0.73,0.06
				c0.64,0.59,1.31,1.15,1.99,1.69c0.27,0.22,0.31,0.41,0.18,0.71C19.58,51.8,18.88,52.27,18.07,52.27z"/>
			<path class="st1" d="M15.3,12.7c0.52,0.01,1.09,0.34,1.48,0.98c0.14,0.23,0.13,0.4-0.06,0.61c-0.6,0.68-1.2,1.37-1.77,2.08
				c-0.19,0.24-0.37,0.26-0.64,0.16c-0.87-0.33-1.38-1.23-1.22-2.2C13.25,13.42,14.1,12.71,15.3,12.7z"/>
			<path class="st1" d="M38.48,56.03c-0.04,0.99-0.44,1.61-1.2,1.94c-0.76,0.32-1.5,0.23-2.13-0.32c-0.61-0.53-0.84-1.22-0.59-2.01
				c0.05-0.15,0.27-0.33,0.43-0.34c0.93-0.11,1.87-0.19,2.8-0.25c0.15-0.01,0.38,0.12,0.45,0.24
				C38.38,55.56,38.43,55.87,38.48,56.03z"/>
			<path class="st1" d="M61.5,28.94c-0.05,1.29-1.25,2.19-2.47,1.86c-0.26-0.07-0.38-0.17-0.4-0.46c-0.06-0.94-0.17-1.87-0.22-2.81
				c-0.01-0.15,0.15-0.39,0.29-0.47C60.01,26.41,61.55,27.45,61.5,28.94z"/>
			<path class="st1" d="M55.63,47.27c0,0.93-0.63,1.74-1.53,1.96c-0.85,0.21-1.75-0.18-2.18-0.92c-0.15-0.25-0.14-0.43,0.07-0.65
				c0.59-0.65,1.16-1.31,1.7-2c0.23-0.3,0.44-0.33,0.76-0.19C55.18,45.79,55.63,46.46,55.63,47.27z"/>
			<path class="st1" d="M53.34,12.7c1.25,0.01,2.08,0.68,2.26,1.59c0.19,0.96-0.29,1.86-1.16,2.23c-0.3,0.13-0.5,0.1-0.72-0.18
				c-0.56-0.7-1.14-1.38-1.73-2.04c-0.19-0.21-0.21-0.38-0.07-0.61C52.31,13.04,52.88,12.71,53.34,12.7z"/>
			<path class="st1" d="M52.64,50.03c-0.01,1.2-0.69,2.03-1.59,2.21c-0.96,0.18-1.86-0.3-2.23-1.17c-0.13-0.31-0.08-0.5,0.19-0.72
				c0.7-0.56,1.37-1.14,2.04-1.73c0.22-0.19,0.39-0.2,0.61-0.06C52.31,48.95,52.63,49.52,52.64,50.03z"/>
			<path class="st1" d="M34.25,56.16c0,0.8-0.51,1.54-1.27,1.84c-0.75,0.29-1.64,0.1-2.19-0.47c-0.54-0.57-0.69-1.45-0.38-2.16
				c0.11-0.25,0.25-0.38,0.56-0.34c0.8,0.1,1.61,0.16,2.41,0.22C34.12,55.31,34.25,55.43,34.25,56.16z"/>
			<path class="st1" d="M61.5,33.08c0.02,1.47-1.5,2.47-2.8,1.84c-0.24-0.11-0.34-0.25-0.31-0.53c0.1-0.9,0.19-1.8,0.24-2.71
				c0.02-0.33,0.15-0.45,0.45-0.53C60.29,30.85,61.48,31.79,61.5,33.08z"/>
			<path class="st1" d="M52.64,11.93c-0.01,0.53-0.33,1.11-0.98,1.5c-0.23,0.14-0.4,0.13-0.61-0.06c-0.68-0.61-1.37-1.2-2.08-1.77
				c-0.24-0.2-0.26-0.38-0.16-0.64c0.33-0.87,1.23-1.37,2.2-1.22C51.93,9.89,52.63,10.74,52.64,11.93z"/>
			<path class="st1" d="M32.23,3.84c1.29-0.01,2.24,1.17,1.96,2.39c-0.07,0.32-0.2,0.46-0.55,0.48c-0.9,0.05-1.8,0.17-2.71,0.22
				c-0.16,0.01-0.41-0.13-0.48-0.27C29.77,5.39,30.75,3.85,32.23,3.84z"/>
			<path class="st1" d="M36.47,3.84c1.48,0,2.46,1.54,1.79,2.82c-0.07,0.14-0.32,0.28-0.48,0.27c-0.92-0.05-1.84-0.17-2.76-0.22
				c-0.31-0.02-0.42-0.15-0.49-0.42C34.21,5.05,35.16,3.84,36.47,3.84z"/>
			<path class="st1" d="M9.16,30.88c-0.8-0.01-1.53-0.52-1.82-1.29c-0.29-0.75-0.08-1.64,0.5-2.18c0.57-0.54,1.46-0.68,2.16-0.36
				c0.26,0.12,0.35,0.27,0.32,0.57c-0.1,0.8-0.16,1.61-0.22,2.41C10.03,30.75,9.89,30.89,9.16,30.88z"/>
			<path class="st1" d="M7.21,33.13c-0.02-1.33,1.22-2.3,2.47-1.96c0.26,0.07,0.37,0.18,0.39,0.47c0.06,0.94,0.17,1.87,0.22,2.81
				c0.01,0.15-0.15,0.39-0.3,0.47C8.73,35.55,7.23,34.58,7.21,33.13z"/>
			<path class="st2" d="M61.75,31.08c0.46-0.55,0.91-1.08,1.41-1.67c0.48,0.32,0.75,0.87,0.77,1.55c0.01,0.7-0.29,1.26-0.9,1.72
				C62.79,31.89,62.36,31.34,61.75,31.08z"/>
			<path class="st2" d="M35.94,2.19c-0.57,0.48-1.1,0.91-1.65,1.37c-0.14-0.17-0.34-0.49-0.62-0.72c-0.27-0.23-0.61-0.37-0.96-0.57
				c0.4-0.58,0.97-0.86,1.67-0.85C35.06,1.43,35.61,1.71,35.94,2.19z"/>
			<path class="st2" d="M32.77,59.8c0.58-0.49,1.11-0.93,1.66-1.4c0.28,0.55,0.78,1.04,1.59,1.24c-0.36,0.6-0.89,0.87-1.51,0.92
				C33.77,60.61,33.17,60.32,32.77,59.8z"/>
			<path class="st2" d="M5.53,29.41c0.51,0.59,0.96,1.11,1.42,1.65c-0.57,0.29-1.06,0.8-1.25,1.6c-0.63-0.39-0.89-0.93-0.92-1.59
				C4.75,30.35,5.05,29.78,5.53,29.41z"/>
			<path class="st2" d="M55.83,11.73c-0.78-0.06-1.46-0.11-2.16-0.17c0.23-0.6,0.17-1.3-0.24-2.02c0.71-0.15,1.28,0.03,1.76,0.48
				C55.73,10.51,55.95,11.12,55.83,11.73z"/>
			<path class="st2" d="M53.61,52.47c0.06-0.77,0.12-1.45,0.17-2.16c0.59,0.23,1.3,0.17,2.01-0.23c0.16,0.73-0.04,1.31-0.51,1.8
				C54.8,52.38,54.2,52.58,53.61,52.47z"/>
			<path class="st2" d="M12.91,11.92c-0.15-0.75,0.04-1.33,0.51-1.81c0.49-0.5,1.09-0.69,1.84-0.57c-0.37,0.72-0.48,1.41-0.14,2.22
				C14.33,11.44,13.62,11.48,12.91,11.92z"/>
			<path class="st2" d="M14.92,50.31c0.06,0.7,0.11,1.4,0.17,2.16c-0.5,0.13-1.05-0.06-1.53-0.47c-0.56-0.48-0.79-1.11-0.66-1.91
				C13.6,50.44,14.31,50.56,14.92,50.31z"/>
			<path class="st1" d="M52.96,12.19c-0.16-0.66-0.33-1.33-0.53-2.12c0.15-0.1,0.42-0.3,0.68-0.49
				C53.84,10.4,53.71,11.59,52.96,12.19z"/>
			<path class="st1" d="M55.27,49.08c0.1,0.14,0.29,0.41,0.48,0.68c-0.82,0.73-2.09,0.58-2.6-0.16
				C53.79,49.44,54.47,49.27,55.27,49.08z"/>
			<path class="st1" d="M15.58,52.42c-0.71-0.95-0.57-2.07,0.31-2.73c-0.1,0.75-0.01,1.43,0.54,2.08
				C16.14,51.98,15.87,52.19,15.58,52.42z"/>
			<path class="st1" d="M13.52,13.11c-0.2-0.36-0.35-0.66-0.51-0.95c0.31-0.13,0.61-0.34,0.93-0.38c0.67-0.1,1.26,0.14,1.77,0.75
				C14.9,12.41,14.2,12.51,13.52,13.11z"/>
			<path class="st1" d="M53.16,12.39c0.53-0.73,1.67-0.88,2.61-0.19c-0.19,0.28-0.39,0.56-0.49,0.7
				C54.47,12.71,53.79,12.54,53.16,12.39z"/>
			<path class="st1" d="M12.94,49.78c0.2-0.29,0.38-0.55,0.6-0.86c0.64,0.5,1.32,0.69,2.09,0.53
				C15.09,50.31,13.89,50.48,12.94,49.78z"/>
			<path class="st1" d="M15.75,12.18c-0.72-0.5-0.88-1.63-0.19-2.6c0.28,0.19,0.56,0.39,0.71,0.49
				C16.07,10.87,15.91,11.55,15.75,12.18z"/>
			<path class="st1" d="M8.13,31.11c-0.69,0.49-1.08,1.08-1.15,1.81c-0.07,0.03-0.1,0.06-0.13,0.05c-0.3-0.06-0.59-0.13-0.89-0.19
				c0.11-0.3,0.16-0.64,0.33-0.89C6.71,31.31,7.3,31.04,8.13,31.11z"/>
			<path class="st1" d="M52.5,51.75c0.15-0.67,0.31-1.34,0.45-1.96c0.75,0.56,0.89,1.75,0.18,2.6c-0.27-0.19-0.54-0.38-0.82-0.57
				C52.37,51.8,52.43,51.78,52.5,51.75z"/>
			<path class="st1" d="M32.28,3.61c0.11-0.38,0.2-0.7,0.29-1.02c0.3,0.11,0.64,0.16,0.89,0.34c0.58,0.41,0.83,1,0.78,1.84
				C33.74,4.08,33.16,3.67,32.28,3.61z"/>
			<path class="st1" d="M8.13,30.85c-0.97,0.08-1.71-0.35-2.07-1.13c-0.23-0.5-0.16-0.64,0.39-0.71c0.16-0.02,0.32,0,0.52,0
				C7.06,29.77,7.41,30.37,8.13,30.85z"/>
			<path class="st1" d="M36.37,3.6c-0.8,0.09-1.41,0.45-1.86,1.13c-0.13-0.97,0.47-1.88,1.32-2.12c0.23-0.07,0.39-0.04,0.43,0.23
				C36.3,3.07,36.33,3.32,36.37,3.6z"/>
			<path class="st1" d="M60.59,31.14c0.95-0.1,1.72,0.36,2.07,1.16c0.2,0.47,0.15,0.58-0.35,0.66c-0.18,0.03-0.36,0-0.57,0
				C61.65,32.21,61.31,31.61,60.59,31.14z"/>
			<path class="st1" d="M61.73,28.9c0.4,0.12,0.71,0.22,1.03,0.32c-0.12,0.3-0.18,0.63-0.36,0.89c-0.41,0.57-1,0.82-1.82,0.77
				C61.24,30.38,61.66,29.82,61.73,28.9z"/>
			<path class="st1" d="M34.22,57.2c0.06,0.99-0.35,1.71-1.1,2.07c-0.53,0.26-0.69,0.17-0.75-0.43c-0.01-0.13,0-0.26,0-0.44
				C33.11,58.28,33.74,57.95,34.22,57.2z"/>
			<path class="st1" d="M34.47,57.18c0.49,0.74,1.07,1.1,1.79,1.18c0.03,0.06,0.07,0.09,0.07,0.11c-0.07,0.31-0.14,0.62-0.21,0.92
				c-0.3-0.12-0.63-0.18-0.88-0.36C34.66,58.62,34.41,58.03,34.47,57.18z"/>
			<path class="st0" d="M14.28,30.96c0.04-11.12,9.01-20.07,20.1-20.05c11.13,0.02,20.12,9.05,20.06,20.13
				c-0.06,11.13-9.06,20.08-20.12,20.02C23.18,51.01,14.24,42.03,14.28,30.96z M54.23,31.01c0.02-10.98-8.84-19.87-19.86-19.9
				c-10.98-0.03-19.88,8.85-19.9,19.86c-0.03,10.98,8.85,19.87,19.86,19.9C45.31,50.9,54.21,42.02,54.23,31.01z"/>
			<path class="st2" d="M54.23,31.01c-0.02,11.01-8.92,19.89-19.9,19.86c-11.01-0.03-19.88-8.92-19.86-19.9
				c0.03-11.01,8.92-19.89,19.9-19.86C45.39,11.14,54.26,20.03,54.23,31.01z M34.33,49.61C44.57,49.66,52.96,41.28,52.97,31
				c0.01-10.26-8.24-18.53-18.58-18.63c-10.21-0.1-18.59,8.25-18.67,18.59C15.66,41.18,24.02,49.56,34.33,49.61z"/>
			<path class="st0" d="M34.33,49.61c-10.32-0.05-18.67-8.43-18.6-18.66c0.07-10.33,8.46-18.69,18.67-18.59
				c10.34,0.1,18.59,8.37,18.58,18.63C52.96,41.28,44.57,49.66,34.33,49.61z M34.36,23.64c-4.06,0-7.36,3.29-7.35,7.35
				c0,4.04,3.28,7.33,7.31,7.34c4.06,0.01,7.37-3.27,7.38-7.33C41.71,26.95,38.42,23.65,34.36,23.64z M20.26,42.82
				c0.1-0.11,0.16-0.18,0.23-0.25c0.8-0.88,1.36-1.9,1.71-3.03c0.17-0.56,0.46-0.96,1.08-1.17c0.66-0.23,1.31-0.57,1.89-0.96
				c1-0.68,1.95-1.44,2.83-2.1c-0.37-0.94-0.66-1.73-0.98-2.5c-0.05-0.13-0.28-0.26-0.42-0.26c-1.66,0.04-3.31,0.24-4.83,0.91
				c-0.93,0.41-1.69,0.35-2.55-0.13c-0.96-0.54-2.04-0.68-3.19-0.73C16.39,36.45,17.79,39.83,20.26,42.82z M30.15,37.39
				c-1.02,0.89-2.42,2.82-3.08,4.5c-0.3,0.75-0.76,1.12-1.49,1.34c-1.15,0.35-2.14,0.98-3.04,1.86c2.98,2.46,6.36,3.86,10.21,4.22
				c0-0.15,0.01-0.25,0-0.34c-0.1-1.18-0.38-2.3-0.95-3.35c-0.28-0.51-0.32-1-0.06-1.58c0.74-1.69,1.04-3.5,1.07-5.34
				c0-0.12-0.14-0.31-0.26-0.37C31.77,38.01,30.99,37.71,30.15,37.39z M38.57,24.59c-0.01,0,0.06-0.04,0.12-0.1
				c1.3-1.38,2.39-2.91,3.08-4.68c0.19-0.47,0.48-0.73,0.9-0.9c0.23-0.09,0.47-0.16,0.7-0.24c1.05-0.37,1.96-0.97,2.8-1.78
				c-3-2.45-6.36-3.87-10.21-4.22c0,0.18-0.01,0.29,0,0.4c0.09,1.18,0.41,2.3,0.97,3.34c0.26,0.49,0.29,0.94,0.05,1.49
				c-0.75,1.71-1.05,3.53-1.09,5.39c0,0.12,0.12,0.3,0.23,0.34C36.92,23.97,37.72,24.26,38.57,24.59z M40.75,35.21
				c-0.01-0.01,0.04,0.06,0.1,0.12c1.36,1.27,2.85,2.36,4.59,3.04c0.57,0.22,0.89,0.57,1.05,1.13c0.07,0.25,0.17,0.5,0.27,0.74
				c0.37,0.96,0.94,1.79,1.69,2.57c2.46-2.99,3.87-6.36,4.22-10.24c-0.49,0.06-0.93,0.05-1.33,0.17c-0.83,0.25-1.65,0.54-2.46,0.86
				c-0.48,0.19-0.89,0.28-1.41,0.05c-1.71-0.76-3.53-1.06-5.38-1.11c-0.13,0-0.35,0.11-0.39,0.23
				C41.38,33.55,41.08,34.35,40.75,35.21z M20.26,19.17c-2.46,2.99-3.87,6.36-4.23,10.23c0.21-0.02,0.35-0.03,0.5-0.04
				c1.17-0.08,2.26-0.43,3.29-0.97c0.36-0.19,0.73-0.35,1.17-0.16c1.78,0.81,3.67,1.15,5.61,1.2c0.13,0,0.35-0.08,0.39-0.18
				c0.33-0.82,0.64-1.65,0.96-2.51c-1.3-1.28-2.8-2.39-4.55-3.08c-0.72-0.28-1.07-0.74-1.28-1.42C21.78,21.1,21.15,20.1,20.26,19.17
				z M46.19,45.08c-0.12-0.1-0.19-0.17-0.26-0.23c-0.88-0.8-1.9-1.36-3.04-1.71c-0.56-0.17-0.96-0.47-1.18-1.08
				c-0.23-0.65-0.55-1.28-0.93-1.85c-0.69-1.02-1.46-1.98-2.12-2.87c-0.94,0.37-1.73,0.66-2.5,0.98c-0.12,0.05-0.26,0.25-0.26,0.37
				c0.04,1.62,0.2,3.25,0.87,4.74c0.47,1.03,0.38,1.88-0.14,2.82c-0.51,0.92-0.62,1.96-0.68,3.05
				C39.81,48.96,43.17,47.55,46.19,45.08z M40.75,26.77c0.33,0.86,0.63,1.66,0.95,2.45c0.04,0.11,0.23,0.23,0.35,0.23
				c1.59-0.04,3.19-0.19,4.64-0.83c1.09-0.48,1.99-0.44,3.01,0.13c0.89,0.5,1.92,0.6,2.98,0.64c-0.37-3.88-1.77-7.25-4.23-10.21
				c-0.97,0.98-1.58,2.07-1.96,3.31c-0.17,0.55-0.46,0.96-1.05,1.13c-0.33,0.09-0.64,0.27-0.94,0.43
				C43.08,24.77,41.82,25.71,40.75,26.77z M22.52,16.9c0.29,0.25,0.5,0.48,0.75,0.62c0.86,0.47,1.73,0.93,2.63,1.34
				c0.49,0.22,0.86,0.45,1.06,1c0.25,0.67,0.58,1.34,0.98,1.93c0.68,1.01,1.44,1.95,2.1,2.83c0.95-0.37,1.75-0.66,2.54-0.99
				c0.11-0.05,0.22-0.26,0.22-0.4c-0.05-1.94-0.41-3.83-1.19-5.62c-0.08-0.19-0.1-0.46-0.04-0.65c0.16-0.48,0.39-0.94,0.59-1.41
				c0.39-0.92,0.54-1.87,0.58-2.9C28.88,13.04,25.51,14.43,22.52,16.9z M31.77,44.66c0.83-0.06,1.55-0.26,2.12-0.81
				c0.16-0.15,0.34-0.38,0.34-0.57c0.03-1.57,0.02-3.13,0.02-4.72c-0.41-0.04-0.78-0.08-1.17-0.12
				C33.06,40.62,32.64,42.66,31.77,44.66z M26.9,29.71c-2.15-0.01-4.22-0.43-6.23-1.31c0.07,0.79,0.25,1.46,0.72,2.03
				c0.25,0.31,0.54,0.49,0.98,0.46c0.71-0.04,1.42-0.01,2.13-0.01c0.76,0,1.51,0,2.28,0C26.82,30.47,26.86,30.11,26.9,29.71z
				 M36.92,17.36c-0.04-0.05-0.08-0.11-0.12-0.16c-0.61,0.26-1.24,0.49-1.83,0.79c-0.38,0.2-0.54,0.56-0.53,1.04
				c0.03,1.14,0.01,2.28,0.01,3.42c0,0.32,0,0.65,0,0.97c0.43,0.04,0.78,0.08,1.17,0.11C35.65,21.37,36.06,19.32,36.92,17.36z
				 M48.04,33.58c-0.09-0.81-0.26-1.48-0.73-2.05c-0.24-0.29-0.52-0.46-0.94-0.45c-1.06,0.03-2.12,0.01-3.17,0.01
				c-0.42,0-0.85,0-1.27,0c-0.04,0.43-0.08,0.78-0.11,1.17C43.97,32.29,46.02,32.69,48.04,33.58z M26.78,31.1
				c-1.59,0-3.14-0.01-4.69,0.01c-0.17,0-0.37,0.13-0.51,0.26c-0.63,0.58-0.82,1.34-0.91,2.22c2.02-0.89,4.07-1.29,6.22-1.32
				C26.86,31.88,26.83,31.52,26.78,31.1z M45.82,38.98c-0.02-0.06-0.03-0.13-0.05-0.19c-1.98-0.77-3.7-1.94-5.24-3.43
				c-0.25,0.31-0.49,0.59-0.75,0.9c1.03,1.02,2.06,2,3.02,3.04c0.42,0.45,0.88,0.55,1.38,0.4C44.74,39.53,45.27,39.23,45.82,38.98z
				 M33.08,23.54c0.4-0.04,0.77-0.08,1.17-0.13c0-1.58,0.01-3.13-0.01-4.68c0-0.15-0.1-0.32-0.2-0.43
				c-0.59-0.67-1.37-0.89-2.28-0.98C32.66,19.34,33.05,21.39,33.08,23.54z M36.85,44.71c-0.8-2.07-1.19-4.13-1.22-6.28
				c-0.4,0.05-0.77,0.09-1.17,0.13c0,1.4,0.05,2.77-0.02,4.14c-0.04,0.82,0.35,1.28,1.01,1.57C35.9,44.47,36.38,44.57,36.85,44.71z
				 M41.93,30.88c1.46,0,2.9-0.03,4.33,0.01c0.52,0.01,0.85-0.19,1.13-0.57c0.41-0.56,0.6-1.19,0.63-1.93
				c-2,0.9-4.07,1.28-6.21,1.32C41.85,30.12,41.88,30.47,41.93,30.88z M38.72,37.16c1.51,1.55,2.67,3.28,3.45,5.26
				c0.62-0.53,1.02-1.47,0.95-2.22c-0.01-0.14-0.04-0.32-0.13-0.41c-1.11-1.13-2.24-2.24-3.37-3.37
				C39.32,36.67,39.04,36.9,38.72,37.16z M42.34,19.53c-0.06,0.01-0.13,0.03-0.19,0.04c-0.76,2-1.95,3.71-3.43,5.25
				c0.32,0.26,0.6,0.49,0.9,0.74c1.02-1.02,1.99-2.05,3.03-3.01c0.46-0.43,0.56-0.91,0.4-1.42C42.89,20.58,42.59,20.06,42.34,19.53z
				 M28.94,36.26c-0.27-0.32-0.51-0.6-0.76-0.9c-1.55,1.51-3.28,2.66-5.32,3.47c0.72,0.58,1.42,0.99,2.3,0.91
				c0.17-0.01,0.36-0.08,0.48-0.2C26.72,38.48,27.81,37.39,28.94,36.26z M28.18,26.62c0.27-0.33,0.5-0.61,0.74-0.91
				c-1.11-1.11-2.18-2.18-3.26-3.25c-0.11-0.11-0.27-0.2-0.42-0.21c-0.92-0.11-1.64,0.3-2.39,0.9
				C24.9,23.95,26.62,25.11,28.18,26.62z M45.78,23.18c0.01-0.06,0.03-0.12,0.04-0.18c-0.51-0.24-1.01-0.54-1.55-0.72
				c-0.53-0.17-1.03-0.1-1.47,0.39c-0.71,0.8-1.5,1.54-2.27,2.28c-0.26,0.25-0.56,0.45-0.84,0.67c0.04,0.05,0.09,0.1,0.13,0.14
				c0.23,0.27,0.47,0.55,0.71,0.84C42.07,25.12,43.8,23.95,45.78,23.18z M29.09,36.42c-1.12,1.12-2.21,2.2-3.29,3.29
				c-0.07,0.07-0.13,0.15-0.16,0.24c-0.23,0.67,0.29,2.05,0.93,2.44c0.76-1.98,1.94-3.69,3.42-5.23
				C29.67,36.91,29.4,36.68,29.09,36.42z M26.52,19.49c-0.55,0.66-0.89,1.3-0.94,2.1c-0.04,0.63,0.44,0.89,0.78,1.24
				c0.9,0.92,1.81,1.82,2.73,2.74c0.32-0.27,0.6-0.51,0.89-0.76C28.48,23.26,27.32,21.55,26.52,19.49z M21.43,17.9
				c0.75,0.75,1.47,1.48,2.2,2.19c0.09,0.09,0.23,0.13,0.35,0.17c1.02,0.32,1.64-0.32,2.38-0.97c-1.54-0.48-2.92-1.12-4.01-2.25
				C22,17.36,21.73,17.62,21.43,17.9z M48.23,18.9c-0.25-0.26-0.52-0.55-0.81-0.85c-0.74,0.75-1.44,1.45-2.13,2.16
				c-0.11,0.11-0.18,0.27-0.22,0.43c-0.22,0.82,0.15,1.67,0.97,2.24c0.29-0.68,0.52-1.4,0.87-2.04
				C47.27,20.18,47.76,19.59,48.23,18.9z M47.28,44.08c-0.75-0.76-1.47-1.48-2.2-2.2c-0.09-0.09-0.23-0.13-0.35-0.17
				c-1.02-0.32-1.64,0.32-2.38,0.98c1.54,0.47,2.91,1.1,4.02,2.24C46.69,44.63,46.97,44.36,47.28,44.08z M34.25,49.34
				c0-0.95-0.01-1.88,0-2.8c0.01-0.66-0.33-1.12-0.9-1.35c-0.46-0.19-0.98-0.22-1.61-0.35c0.16,0.38,0.28,0.61,0.36,0.86
				c0.29,0.89,0.63,1.77,0.82,2.67C33.15,49.42,33.09,49.44,34.25,49.34z M52.71,31.1c-0.95,0-1.87,0-2.79,0
				c-0.63,0-1.22,0.37-1.4,0.97c-0.14,0.45-0.18,0.92-0.29,1.51c0.36-0.15,0.59-0.27,0.84-0.35c0.89-0.29,1.76-0.63,2.67-0.82
				C52.78,32.2,52.79,32.26,52.71,31.1z M36.92,45.01c-0.04-0.04-0.08-0.08-0.12-0.12c-0.42,0.07-0.85,0.1-1.25,0.21
				c-0.57,0.15-1.02,0.57-1.07,1.12c-0.09,1.03-0.03,2.07-0.03,3.11c0.42,0,0.8,0,1.24,0C35.7,47.78,36.19,46.36,36.92,45.01z
				 M16,30.88c0.95,0,1.88,0.02,2.82-0.01c0.26-0.01,0.55-0.1,0.77-0.24c0.81-0.5,0.76-1.33,0.82-2.27
				c-1.43,0.78-2.85,1.29-4.42,1.27C16,30.08,16,30.45,16,30.88z M34.46,12.64c0,0.95,0,1.87,0,2.79c0,0.63,0.41,1.25,1.01,1.43
				c0.43,0.13,0.9,0.16,1.47,0.25c-0.15-0.35-0.26-0.58-0.34-0.82c-0.29-0.89-0.63-1.76-0.82-2.67
				C35.56,12.57,35.62,12.55,34.46,12.64z M31.73,17.11c0.59-0.1,1.04-0.13,1.46-0.25c0.54-0.16,0.98-0.57,1.03-1.1
				c0.09-1.03,0.03-2.07,0.03-3.1c-0.43,0-0.81,0-1.27,0C33.05,14.25,32.46,15.63,31.73,17.11z M20.48,33.59
				c-0.1-0.58-0.13-1.01-0.24-1.41c-0.15-0.55-0.56-1-1.08-1.05c-1.04-0.09-2.1-0.03-3.17-0.03c0,0.25,0.02,0.45,0,0.64
				c-0.06,0.46,0.12,0.64,0.59,0.64c1,0.01,1.94,0.29,2.84,0.72C19.72,33.26,20.03,33.39,20.48,33.59z M52.71,29.62
				c-1.61,0.04-3-0.51-4.48-1.26c0.1,0.6,0.14,1.05,0.26,1.47c0.15,0.55,0.57,0.98,1.1,1.03c1.03,0.09,2.07,0.03,3.13,0.03
				C52.71,30.46,52.71,30.09,52.71,29.62z M20.48,43.07c0.25,0.26,0.51,0.55,0.8,0.85c0.74-0.74,1.44-1.44,2.13-2.15
				c0.11-0.11,0.18-0.27,0.23-0.43c0.32-1.02-0.33-1.63-0.94-2.31c-0.3,0.73-0.53,1.45-0.89,2.09
				C21.44,41.79,20.96,42.38,20.48,43.07z M22.68,23.07c0.37-0.55,0.71-0.95,0.92-1.4c0.23-0.48,0.2-1.04-0.17-1.44
				c-0.68-0.74-1.41-1.43-2.16-2.17c-0.28,0.31-0.55,0.59-0.85,0.92C21.56,20.08,22.19,21.44,22.68,23.07z M42.27,19.31
				c0.53,0.36,0.9,0.67,1.31,0.89c0.5,0.26,1.08,0.25,1.49-0.12c0.76-0.67,1.45-1.43,2.2-2.18c-0.31-0.29-0.6-0.55-0.91-0.85
				C45.25,18.19,43.89,18.83,42.27,19.31z M26.26,42.73c0.01-0.05,0.02-0.1,0.03-0.15c-0.39-0.27-0.76-0.58-1.17-0.79
				c-0.5-0.26-1.08-0.25-1.49,0.12c-0.76,0.68-1.45,1.43-2.2,2.18c0.31,0.29,0.6,0.55,0.91,0.85C23.45,43.8,24.79,43.15,26.26,42.73
				z M48.29,43c-1.15-1.13-1.78-2.48-2.26-4.1c-0.37,0.55-0.71,0.95-0.92,1.4c-0.23,0.48-0.2,1.04,0.17,1.44
				c0.68,0.74,1.41,1.43,2.16,2.18C47.72,43.61,47.99,43.33,48.29,43z M20.63,32.39c0.27-0.41,0.6-0.92,0.9-1.38
				c-0.32-0.5-0.65-1.01-0.9-1.39c-0.3,0.43-0.65,0.94-0.95,1.37C20.01,31.46,20.34,31.96,20.63,32.39z M49.02,30.99
				c-0.32-0.47-0.66-0.97-0.94-1.39c-0.27,0.41-0.6,0.92-0.9,1.38c0.32,0.5,0.65,1.01,0.9,1.39C48.36,31.94,48.71,31.44,49.02,30.99
				z M35.74,44.72c-0.42-0.28-0.93-0.61-1.38-0.9c-0.51,0.33-1.01,0.65-1.39,0.9c0.44,0.3,0.94,0.64,1.38,0.95
				C34.81,45.35,35.31,45.01,35.74,44.72z M32.96,17.27c0.4,0.26,0.92,0.59,1.39,0.9c0.49-0.32,0.99-0.64,1.38-0.9
				c-0.43-0.29-0.93-0.64-1.38-0.95C33.88,16.64,33.38,16.98,32.96,17.27z M23.67,22.27c0.48-0.1,1.06-0.22,1.61-0.34
				c0.12-0.56,0.24-1.14,0.34-1.61c-0.53,0.09-1.12,0.2-1.65,0.3C23.88,21.14,23.77,21.74,23.67,22.27z M43.09,41.65
				c0.56-0.1,1.15-0.2,1.64-0.28c0.11-0.57,0.22-1.15,0.32-1.66c-0.51,0.11-1.09,0.23-1.6,0.33C43.31,40.63,43.19,41.2,43.09,41.65z
				 M43.42,21.91c0.57,0.12,1.15,0.25,1.6,0.35c-0.1-0.55-0.2-1.14-0.29-1.65c-0.55-0.1-1.14-0.21-1.66-0.31
				C43.18,20.78,43.3,21.35,43.42,21.91z M23.98,41.36c0.55,0.1,1.14,0.21,1.65,0.31c-0.11-0.5-0.23-1.08-0.34-1.61
				c-0.58-0.12-1.15-0.25-1.61-0.35C23.78,40.25,23.88,40.83,23.98,41.36z"/>
			<path class="st1" d="M34.36,23.64c4.06,0,7.35,3.3,7.34,7.37c-0.01,4.06-3.32,7.34-7.38,7.33c-4.03-0.01-7.31-3.3-7.31-7.34
				C27.01,26.93,30.3,23.64,34.36,23.64z M39.94,31c0.01-3.09-2.46-5.58-5.55-5.6c-3.09-0.02-5.58,2.45-5.61,5.54
				c-0.02,3.11,2.47,5.62,5.58,5.62C37.45,36.57,39.93,34.1,39.94,31z"/>
			<path class="st2" d="M31.77,44.66c0.87-2,1.29-4.05,1.31-6.22c0.39,0.04,0.76,0.08,1.17,0.12c0,1.59,0.01,3.15-0.02,4.72
				c0,0.19-0.18,0.42-0.34,0.57C33.32,44.4,32.59,44.6,31.77,44.66z"/>
			<path class="st2" d="M26.9,29.71c-0.04,0.4-0.08,0.76-0.12,1.17c-0.77,0-1.52,0-2.28,0c-0.71,0-1.42-0.03-2.13,0.01
				c-0.44,0.02-0.73-0.15-0.98-0.46c-0.47-0.57-0.64-1.25-0.72-2.03C22.69,29.28,24.75,29.7,26.9,29.71z"/>
			<path class="st2" d="M36.92,17.36c-0.86,1.96-1.27,4.01-1.29,6.17c-0.39-0.04-0.74-0.07-1.17-0.11c0-0.32,0-0.64,0-0.97
				c0-1.14,0.02-2.28-0.01-3.42c-0.01-0.47,0.15-0.84,0.53-1.04c0.59-0.31,1.22-0.53,1.83-0.79C36.84,17.25,36.88,17.31,36.92,17.36
				z"/>
			<path class="st2" d="M48.04,33.58c-2.02-0.89-4.07-1.3-6.23-1.32c0.04-0.39,0.07-0.74,0.11-1.17c0.42,0,0.85,0,1.27,0
				c1.06,0,2.12,0.02,3.17-0.01c0.41-0.01,0.69,0.15,0.94,0.45C47.78,32.1,47.95,32.78,48.04,33.58z"/>
			<path class="st1" d="M26.78,31.1c0.04,0.42,0.08,0.78,0.12,1.17c-2.15,0.02-4.2,0.42-6.22,1.32c0.09-0.87,0.28-1.64,0.91-2.22
				c0.14-0.13,0.34-0.26,0.51-0.26C23.65,31.09,25.2,31.1,26.78,31.1z"/>
			<path class="st1" d="M45.82,38.98c-0.55,0.25-1.08,0.55-1.65,0.72c-0.5,0.15-0.96,0.05-1.38-0.4c-0.96-1.04-1.99-2.01-3.02-3.04
				c0.26-0.31,0.5-0.6,0.75-0.9c1.54,1.5,3.26,2.66,5.24,3.43C45.79,38.85,45.8,38.92,45.82,38.98z"/>
			<path class="st1" d="M33.08,23.54c-0.03-2.15-0.42-4.2-1.32-6.22c0.91,0.08,1.69,0.3,2.28,0.98c0.1,0.12,0.2,0.29,0.2,0.43
				c0.01,1.55,0.01,3.1,0.01,4.68C33.85,23.46,33.48,23.5,33.08,23.54z"/>
			<path class="st1" d="M36.85,44.71c-0.47-0.14-0.95-0.24-1.39-0.44c-0.66-0.29-1.05-0.74-1.01-1.57c0.07-1.37,0.02-2.74,0.02-4.14
				c0.4-0.04,0.76-0.09,1.17-0.13C35.65,40.59,36.05,42.64,36.85,44.71z"/>
			<path class="st1" d="M41.93,30.88c-0.04-0.42-0.08-0.76-0.12-1.16c2.14-0.04,4.21-0.42,6.21-1.32c-0.04,0.74-0.22,1.37-0.63,1.93
				c-0.28,0.38-0.61,0.58-1.13,0.57C44.82,30.86,43.39,30.88,41.93,30.88z"/>
			<path class="st2" d="M38.72,37.16c0.32-0.26,0.59-0.49,0.89-0.74c1.14,1.13,2.26,2.24,3.37,3.37c0.09,0.09,0.11,0.27,0.13,0.41
				c0.07,0.75-0.33,1.69-0.95,2.22C41.39,40.44,40.23,38.72,38.72,37.16z"/>
			<path class="st1" d="M42.34,19.53c0.24,0.53,0.54,1.05,0.71,1.6c0.16,0.52,0.07,0.99-0.4,1.42c-1.04,0.96-2.01,1.99-3.03,3.01
				c-0.31-0.25-0.58-0.48-0.9-0.74c1.48-1.54,2.67-3.26,3.43-5.25C42.22,19.55,42.28,19.54,42.34,19.53z"/>
			<path class="st2" d="M28.94,36.26c-1.13,1.13-2.21,2.22-3.31,3.29c-0.12,0.11-0.31,0.18-0.48,0.2c-0.88,0.07-1.57-0.33-2.3-0.91
				c2.05-0.8,3.78-1.96,5.32-3.47C28.42,35.66,28.66,35.94,28.94,36.26z"/>
			<path class="st1" d="M28.18,26.62c-1.56-1.52-3.28-2.67-5.33-3.47c0.75-0.6,1.48-1.01,2.39-0.9c0.15,0.02,0.31,0.11,0.42,0.21
				c1.08,1.07,2.15,2.14,3.26,3.25C28.68,26.01,28.45,26.3,28.18,26.62z"/>
			<path class="st2" d="M45.78,23.18c-1.98,0.77-3.7,1.93-5.24,3.43c-0.25-0.29-0.48-0.56-0.71-0.84c-0.04-0.05-0.09-0.1-0.13-0.14
				c0.28-0.22,0.59-0.42,0.84-0.67c0.77-0.75,1.55-1.49,2.27-2.28c0.44-0.49,0.94-0.56,1.47-0.39c0.54,0.17,1.03,0.47,1.55,0.72
				C45.8,23.07,45.79,23.12,45.78,23.18z"/>
			<path class="st1" d="M29.09,36.42c0.31,0.26,0.58,0.49,0.89,0.75c-1.48,1.54-2.66,3.25-3.42,5.23c-0.64-0.39-1.16-1.77-0.93-2.44
				c0.03-0.09,0.1-0.17,0.16-0.24C26.88,38.62,27.97,37.54,29.09,36.42z"/>
			<path class="st2" d="M26.52,19.49c0.8,2.07,1.96,3.77,3.46,5.32c-0.29,0.25-0.57,0.49-0.89,0.76c-0.92-0.92-1.84-1.82-2.73-2.74
				c-0.34-0.35-0.82-0.61-0.78-1.24C25.63,20.79,25.96,20.15,26.52,19.49z"/>
			<path class="st2" d="M21.43,17.9c0.3-0.28,0.57-0.54,0.91-0.85c1.1,1.13,2.47,1.77,4.01,2.25c-0.74,0.65-1.36,1.29-2.38,0.97
				c-0.12-0.04-0.26-0.08-0.35-0.17C22.9,19.38,22.18,18.65,21.43,17.9z"/>
			<path class="st2" d="M48.23,18.9c-0.47,0.68-0.96,1.28-1.32,1.94c-0.35,0.64-0.58,1.36-0.87,2.04c-0.82-0.57-1.19-1.42-0.97-2.24
				c0.04-0.15,0.12-0.32,0.22-0.43c0.69-0.71,1.39-1.41,2.13-2.16C47.71,18.36,47.98,18.64,48.23,18.9z"/>
			<path class="st2" d="M47.28,44.08c-0.31,0.28-0.59,0.55-0.91,0.85c-1.11-1.14-2.48-1.77-4.02-2.24c0.74-0.66,1.36-1.3,2.38-0.98
				c0.12,0.04,0.26,0.08,0.35,0.17C45.81,42.6,46.53,43.32,47.28,44.08z"/>
			<path class="st2" d="M34.25,49.34c-1.16,0.1-1.1,0.09-1.32-0.96c-0.19-0.91-0.53-1.79-0.82-2.67c-0.08-0.24-0.2-0.47-0.36-0.86
				c0.63,0.13,1.15,0.16,1.61,0.35c0.56,0.23,0.9,0.69,0.9,1.35C34.24,47.46,34.25,48.38,34.25,49.34z"/>
			<path class="st2" d="M52.71,31.1c0.09,1.16,0.07,1.1-0.98,1.32c-0.91,0.19-1.79,0.53-2.67,0.82c-0.24,0.08-0.47,0.19-0.84,0.35
				c0.11-0.59,0.15-1.07,0.29-1.51c0.19-0.6,0.78-0.97,1.4-0.97C50.83,31.1,51.75,31.1,52.71,31.1z"/>
			<path class="st1" d="M36.92,45.01c-0.73,1.35-1.22,2.76-1.22,4.33c-0.44,0-0.81,0-1.24,0c0-1.05-0.06-2.09,0.03-3.11
				c0.05-0.55,0.5-0.97,1.07-1.12c0.41-0.11,0.83-0.14,1.25-0.21C36.85,44.93,36.88,44.97,36.92,45.01z"/>
			<path class="st2" d="M16,30.88c0-0.43,0-0.8,0-1.25c1.57,0.02,2.98-0.48,4.42-1.27c-0.06,0.94-0.01,1.77-0.82,2.27
				c-0.22,0.14-0.51,0.23-0.77,0.24C17.89,30.9,16.95,30.88,16,30.88z"/>
			<path class="st2" d="M34.46,12.64c1.16-0.08,1.1-0.07,1.32,0.98c0.19,0.91,0.53,1.79,0.82,2.67c0.08,0.24,0.19,0.47,0.34,0.82
				c-0.57-0.09-1.03-0.13-1.47-0.25c-0.6-0.18-1.01-0.8-1.01-1.43C34.46,14.51,34.46,13.59,34.46,12.64z"/>
			<path class="st1" d="M31.73,17.11c0.73-1.48,1.31-2.87,1.24-4.46c0.45,0,0.83,0,1.27,0c0,1.04,0.06,2.08-0.03,3.1
				c-0.05,0.53-0.48,0.94-1.03,1.1C32.77,16.98,32.33,17.01,31.73,17.11z"/>
			<path class="st1" d="M20.48,33.59c-0.44-0.2-0.76-0.33-1.06-0.48c-0.9-0.43-1.84-0.71-2.84-0.72c-0.47-0.01-0.65-0.18-0.59-0.64
				c0.02-0.19,0-0.39,0-0.64c1.08,0,2.13-0.07,3.17,0.03c0.52,0.05,0.93,0.5,1.08,1.05C20.35,32.59,20.38,33.01,20.48,33.59z"/>
			<path class="st1" d="M52.71,29.62c0,0.46,0,0.84,0,1.26c-1.06,0-2.1,0.06-3.13-0.03c-0.53-0.05-0.94-0.48-1.1-1.03
				c-0.12-0.42-0.15-0.86-0.26-1.47C49.71,29.11,51.1,29.67,52.71,29.62z"/>
			<path class="st2" d="M20.48,43.07c0.48-0.69,0.96-1.28,1.33-1.94c0.35-0.64,0.58-1.36,0.89-2.09c0.61,0.68,1.26,1.29,0.94,2.31
				c-0.05,0.15-0.12,0.31-0.23,0.43c-0.69,0.71-1.4,1.41-2.13,2.15C20.99,43.62,20.72,43.33,20.48,43.07z"/>
			<path class="st1" d="M22.68,23.07c-0.49-1.63-1.12-3-2.26-4.1c0.3-0.33,0.57-0.61,0.85-0.92c0.74,0.74,1.48,1.43,2.16,2.17
				c0.37,0.41,0.4,0.96,0.17,1.44C23.38,22.13,23.05,22.52,22.68,23.07z"/>
			<path class="st1" d="M42.27,19.31c1.62-0.48,2.98-1.12,4.1-2.25c0.31,0.29,0.6,0.56,0.91,0.85c-0.75,0.75-1.44,1.51-2.2,2.18
				c-0.42,0.37-0.99,0.38-1.49,0.12C43.17,19.98,42.8,19.67,42.27,19.31z"/>
			<path class="st1" d="M26.26,42.73c-1.46,0.43-2.81,1.07-3.92,2.2c-0.31-0.29-0.6-0.56-0.91-0.85c0.75-0.75,1.44-1.5,2.2-2.18
				c0.42-0.37,0.99-0.38,1.49-0.12c0.42,0.22,0.78,0.53,1.17,0.79C26.28,42.62,26.27,42.67,26.26,42.73z"/>
			<path class="st1" d="M48.29,43c-0.3,0.33-0.57,0.61-0.85,0.91c-0.75-0.74-1.48-1.43-2.16-2.18c-0.37-0.41-0.4-0.96-0.17-1.44
				c0.21-0.45,0.55-0.84,0.92-1.4C46.51,40.52,47.14,41.87,48.29,43z"/>
			<path class="st1" d="M20.63,32.39c-0.29-0.42-0.62-0.92-0.95-1.4c0.3-0.43,0.65-0.94,0.95-1.37c0.25,0.38,0.57,0.89,0.9,1.39
				C21.23,31.46,20.9,31.98,20.63,32.39z"/>
			<path class="st1" d="M49.02,30.99c-0.31,0.46-0.66,0.96-0.95,1.38c-0.25-0.39-0.57-0.89-0.9-1.39c0.3-0.46,0.64-0.97,0.9-1.38
				C48.36,30.01,48.7,30.52,49.02,30.99z"/>
			<path class="st1" d="M35.74,44.72c-0.43,0.29-0.93,0.64-1.39,0.94c-0.44-0.31-0.94-0.65-1.38-0.95c0.38-0.25,0.88-0.57,1.39-0.9
				C34.81,44.1,35.32,44.44,35.74,44.72z"/>
			<path class="st1" d="M32.96,17.27c0.43-0.29,0.93-0.63,1.4-0.95c0.44,0.3,0.95,0.65,1.38,0.95c-0.39,0.25-0.89,0.58-1.38,0.9
				C33.87,17.86,33.36,17.53,32.96,17.27z"/>
			<path class="st1" d="M23.67,22.27c0.1-0.53,0.2-1.12,0.3-1.65c0.53-0.09,1.12-0.2,1.65-0.3c-0.1,0.47-0.22,1.05-0.34,1.61
				C24.73,22.04,24.15,22.17,23.67,22.27z"/>
			<path class="st1" d="M43.09,41.65c0.1-0.45,0.22-1.02,0.35-1.61c0.51-0.11,1.1-0.23,1.6-0.33c-0.1,0.5-0.21,1.09-0.32,1.66
				C44.24,41.45,43.64,41.56,43.09,41.65z"/>
			<path class="st1" d="M43.42,21.91c-0.12-0.56-0.25-1.13-0.35-1.61c0.52,0.1,1.11,0.21,1.66,0.31c0.09,0.5,0.19,1.1,0.29,1.65
				C44.57,22.16,43.99,22.04,43.42,21.91z"/>
			<path class="st1" d="M23.98,41.36c-0.09-0.53-0.2-1.11-0.29-1.64c0.45,0.1,1.03,0.22,1.61,0.35c0.11,0.53,0.24,1.11,0.34,1.61
				C25.12,41.58,24.53,41.47,23.98,41.36z"/>
			<path class="st0" d="M39.94,31c-0.01,3.1-2.49,5.57-5.58,5.57c-3.11,0-5.6-2.51-5.58-5.62c0.02-3.1,2.52-5.56,5.61-5.54
				C37.48,25.43,39.94,27.91,39.94,31z M28.97,30.98c0,2.99,2.4,5.39,5.39,5.39c2.98,0,5.36-2.38,5.38-5.35
				c0.02-2.99-2.37-5.4-5.36-5.42C31.38,25.59,28.97,27.99,28.97,30.98z"/>
			<path class="st1" d="M28.97,30.98c0-3,2.41-5.39,5.4-5.38c3,0.01,5.38,2.42,5.36,5.42c-0.02,2.98-2.4,5.35-5.38,5.35
				C31.37,36.38,28.97,33.98,28.97,30.98z M34.37,27.11c-2.15-0.01-3.89,1.71-3.9,3.86c-0.01,2.15,1.71,3.89,3.86,3.9
				c2.15,0.01,3.89-1.71,3.9-3.86C38.24,28.86,36.52,27.12,34.37,27.11z"/>
			<path class="st0" d="M34.37,27.11c2.14,0.01,3.86,1.74,3.86,3.9c-0.01,2.14-1.74,3.86-3.9,3.86c-2.14-0.01-3.86-1.74-3.86-3.9
				C30.48,28.82,32.22,27.11,34.37,27.11z M37.14,33.3c1.05-1.17,1.15-2.95,0.28-4.29c-0.59-0.91-1.41-1.42-2.51-1.4
				c-0.66,0.01-1.23,0.26-1.69,0.72c-0.44,0.44-0.74,0.98-0.51,1.61c0.25,0.68,0.87,0.83,1.51,0.91c0.57-0.88,1.15-1.1,1.96-0.75
				C37.28,30.59,37.58,31.53,37.14,33.3z M30.9,32.06c0.46,1.69,2.24,2.79,3.93,2.57c1.21-0.16,1.89-0.86,2.25-1.94
				c0.39-1.18-0.33-2.41-1.45-2.5c-0.85-0.07-1.25,0.47-0.9,1.23c0.5,1.1-0.01,1.88-1.22,1.86C32.49,33.27,31.66,32.83,30.9,32.06z
				 M34.51,27.39c-1.24-0.06-2.29,0.34-3.01,1.33c-1.54,2.12-0.88,3.73,1.64,4.32c0.08,0.02,0.16,0.03,0.25,0.03
				c0.46,0.01,0.92-0.01,1.19-0.45c0.26-0.43,0.11-0.89-0.15-1.25c-0.13-0.19-0.44-0.3-0.69-0.36c-1.31-0.36-1.73-1.49-0.89-2.54
				c0.3-0.37,0.76-0.61,1.16-0.89C34.15,27.48,34.34,27.45,34.51,27.39z"/>
			<path class="st1" d="M37.14,33.3c0.43-1.77,0.14-2.71-0.96-3.19c-0.8-0.35-1.38-0.14-1.96,0.75c-0.63-0.08-1.26-0.23-1.51-0.91
				c-0.23-0.63,0.07-1.16,0.51-1.61c0.46-0.46,1.03-0.71,1.69-0.72c1.11-0.02,1.93,0.49,2.51,1.4
				C38.29,30.35,38.19,32.13,37.14,33.3z"/>
			<path class="st2" d="M30.9,32.06c0.76,0.76,1.59,1.21,2.6,1.22c1.21,0.01,1.72-0.76,1.22-1.86c-0.35-0.76,0.05-1.3,0.9-1.23
				c1.12,0.09,1.84,1.32,1.45,2.5c-0.36,1.08-1.04,1.78-2.25,1.94C33.14,34.85,31.36,33.76,30.9,32.06z"/>
			<path class="st1" d="M34.51,27.39c-0.17,0.06-0.36,0.08-0.5,0.18c-0.4,0.28-0.86,0.52-1.16,0.89C32,29.51,32.43,30.64,33.74,31
				c0.25,0.07,0.55,0.17,0.69,0.36c0.26,0.36,0.41,0.82,0.15,1.25c-0.27,0.44-0.73,0.46-1.19,0.45c-0.08,0-0.17-0.01-0.25-0.03
				c-2.51-0.6-3.18-2.2-1.64-4.32C32.21,27.73,33.27,27.33,34.51,27.39z"/>
		</g>
		<path class="st3" d="M68.56,39.13c-0.26-0.6-0.79-1.03-1.43-1.15c-0.14-0.03-0.28-0.04-0.42-0.04c-0.62,0-1.13,0.26-1.46,0.45
			c-0.43,0.25-0.81,0.55-1.14,0.86c-0.01-0.38-0.02-0.75,0-1.12c0.03-0.49-0.14-0.96-0.49-1.32c-0.36-0.39-0.88-0.61-1.42-0.61
			c-0.29,0-0.57,0.06-0.82,0.19c-0.53,0.25-0.95,0.67-1.31,1.26c-0.35,0.59-0.61,1.23-0.82,2.01c-0.19-0.07-0.38-0.11-0.58-0.11
			c-0.34,0-0.69,0.11-1.02,0.32c-0.96,0.6-1.32,1.55-1.51,2.21c-0.31,1.11-0.34,2.31-0.07,3.67c0.12,0.62,0.12,1.19,0,1.75
			c-0.03,0.14-0.04,0.27-0.05,0.38c-0.01,0.17,0.04,0.29,0.08,0.37c-0.91,0.51-1.91,0.97-3.02,1.4c-1.38,0.53-2.52,0.81-3.61,0.89
			c-0.26,0.02-0.45,0.03-0.63,0.03c-0.47,0-0.84-0.06-1.16-0.19c-0.31-0.13-0.37-0.24-0.25-0.55c0.17-0.47,0.5-0.88,1.05-1.28
			c0.93-0.67,1.69-1.36,2.33-2.09c0.55-0.63,1.14-1.4,1.38-2.4c0.33-1.37-0.26-2.71-1.47-3.33l-0.35-0.18l-0.32,0.24
			c-0.14,0.11-0.29,0.22-0.43,0.33c-0.32,0.25-0.66,0.51-0.99,0.75c-1.14,0.84-2.43,1.66-4.16,2.65l-0.65,0.37
			c-1.13,0.65-2.3,1.31-3.44,2c-1.47,0.88-2.6,1.74-3.57,2.71c-1.08,1.08-1.89,2.3-2.43,3.66c-0.54-1.35-1.35-2.58-2.43-3.66
			c-0.97-0.97-2.1-1.83-3.57-2.71c-1.14-0.68-2.32-1.35-3.45-2l-0.64-0.37c-1.73-0.99-3.01-1.81-4.16-2.65
			c-0.33-0.24-0.65-0.49-0.97-0.74c-0.15-0.12-0.3-0.23-0.45-0.35l-0.32-0.24L18,40.73c-1.21,0.61-1.8,1.95-1.47,3.33
			c0.24,1,0.83,1.77,1.38,2.4c0.64,0.74,1.4,1.42,2.32,2.09c0.55,0.4,0.89,0.81,1.06,1.28c0.11,0.31,0.06,0.43-0.25,0.55
			c-0.33,0.13-0.7,0.19-1.17,0.19c-0.18,0-0.37-0.01-0.63-0.03c-1.09-0.08-2.24-0.36-3.61-0.89c-1.11-0.43-2.11-0.89-3.02-1.4
			c0.04-0.08,0.09-0.2,0.08-0.37c-0.01-0.11-0.02-0.24-0.05-0.38c-0.12-0.55-0.12-1.12,0-1.75c0.26-1.36,0.24-2.56-0.07-3.67
			c-0.19-0.66-0.55-1.61-1.51-2.21c-0.33-0.21-0.68-0.32-1.02-0.32c-0.2,0-0.39,0.04-0.58,0.11c-0.21-0.78-0.47-1.43-0.82-2.01
			c-0.35-0.6-0.78-1.01-1.31-1.26C7.07,36.27,6.79,36.2,6.5,36.2c-0.54,0-1.05,0.22-1.42,0.61c-0.34,0.36-0.51,0.83-0.49,1.32
			c0.02,0.36,0.01,0.73,0,1.12c-0.34-0.31-0.72-0.61-1.15-0.86C3.13,38.2,2.62,37.94,2,37.94c-0.14,0-0.28,0.01-0.42,0.04
			c-0.64,0.12-1.17,0.55-1.43,1.15c-0.23,0.53-0.19,1.11,0.09,1.54c0.09,0.14,0.17,0.31,0.25,0.5c0.04,0.1,0.08,0.2,0.13,0.29
			c1.01,2.16,2.26,4.2,3.72,6.07c1.11,1.42,2.4,2.74,3.85,3.9c1.36,1.1,2.84,2.04,4.51,2.87c1.46,0.72,2.95,1.33,4.44,1.82
			c0.97,0.32,1.93,0.61,2.91,0.9c1.42,0.43,2.7,0.8,3.92,1.16c1.53,0.44,2.92,0.9,4.23,1.39c2.1,0.79,3.9,1.66,5.52,2.68
			c0.11,0.07,0.22,0.1,0.32,0.14c0.02,0.01,0.04,0.01,0.07,0.02l0.2,0.1l0.24-0.08l0.06-0.02l0.01,0c0.02-0.01,0.04-0.01,0.06-0.02
			c0.09-0.03,0.2-0.06,0.32-0.14c1.61-1.01,3.41-1.89,5.51-2.68c1.32-0.49,2.7-0.95,4.23-1.39c1.21-0.35,2.49-0.73,3.92-1.15
			c1.04-0.31,1.98-0.59,2.91-0.9c1.49-0.49,2.98-1.1,4.43-1.82c1.65-0.82,3.17-1.78,4.51-2.87c1.45-1.17,2.74-2.48,3.85-3.9
			c1.46-1.88,2.72-3.92,3.72-6.07c0.05-0.1,0.09-0.2,0.13-0.29c0.08-0.19,0.16-0.36,0.25-0.5C68.75,40.24,68.79,39.66,68.56,39.13z"
			/>
		<g>
			<path class="st4" d="M59.17,46.34c0.57-0.42,1.01-0.96,1.37-1.56c0.56-0.91,1.08-1.85,1.64-2.75c0.3-0.49,0.65-0.95,1.02-1.4
				c0.21-0.26,0.3-0.53,0.29-0.85c-0.01-0.56-0.04-1.13-0.01-1.69c0.05-0.93-0.99-1.53-1.82-1.13c-0.46,0.22-0.78,0.59-1.04,1.02
				c-0.5,0.83-0.76,1.75-0.94,2.69c-0.31,1.59-0.43,3.19-0.47,4.81c-0.01,0.27-0.07,0.54-0.11,0.82
				C59.11,46.31,59.14,46.32,59.17,46.34z"/>
			<path class="st4" d="M56.71,48.06c0.63-0.37,1.21-0.79,1.76-1.24c0.06-0.05,0.11-0.14,0.12-0.21c0.09-0.45,0.21-0.9,0.23-1.36
				c0.09-1.55,0.15-3.11,0.48-4.64c0.01-0.07,0.02-0.14,0.02-0.19c-0.43-0.3-0.88-0.3-1.34,0c-0.69,0.43-1.02,1.1-1.23,1.85
				c-0.32,1.12-0.28,2.25-0.06,3.38c0.13,0.67,0.14,1.34-0.01,2c-0.02,0.1-0.03,0.19-0.04,0.29C56.65,47.96,56.67,47.98,56.71,48.06
				z"/>
			<path class="st5" d="M67.94,40.33c-0.18,0.27-0.28,0.58-0.42,0.87c-0.99,2.12-2.21,4.1-3.65,5.95c-1.1,1.41-2.35,2.68-3.75,3.8
				c-1.36,1.1-2.83,2.02-4.39,2.79c-1.41,0.7-2.86,1.3-4.35,1.78c-0.96,0.31-1.93,0.61-2.9,0.89c-1.3,0.39-2.61,0.78-3.91,1.15
				c-1.44,0.42-2.87,0.88-4.28,1.4c-1.96,0.74-3.85,1.62-5.63,2.73c-0.07,0.04-0.16,0.06-0.29,0.11c0,0-0.01,0-0.01,0.01
				c0,0-0.01,0-0.01-0.01c-0.13-0.05-0.22-0.07-0.29-0.11c-1.78-1.12-3.67-2-5.63-2.73c-1.41-0.53-2.83-0.99-4.28-1.4
				c-1.31-0.38-2.61-0.76-3.91-1.15c-0.97-0.29-1.94-0.58-2.9-0.89c-1.49-0.49-2.94-1.09-4.35-1.78c-1.56-0.78-3.03-1.7-4.39-2.79
				c-1.4-1.13-2.65-2.39-3.75-3.8C3.4,45.3,2.19,43.32,1.19,41.2c-0.14-0.29-0.25-0.61-0.42-0.87c-0.38-0.58,0.06-1.57,0.92-1.73
				c0.53-0.1,1,0.08,1.44,0.33c0.84,0.49,1.49,1.18,2.09,1.93c0.91,1.13,1.68,2.36,2.36,3.64c0.56,1.05,1.33,1.91,2.24,2.65
				c1.68,1.35,3.57,2.32,5.57,3.09c1.22,0.47,2.48,0.83,3.79,0.93c0.7,0.05,1.4,0.06,2.08-0.21c0.62-0.25,0.84-0.72,0.61-1.35
				c-0.24-0.68-0.71-1.17-1.28-1.58c-0.81-0.59-1.56-1.24-2.22-2c-0.55-0.63-1.04-1.3-1.24-2.13c-0.25-1.04,0.13-2.1,1.14-2.61
				c0.47,0.36,0.94,0.73,1.43,1.09c1.35,0.99,2.77,1.86,4.22,2.69c1.36,0.78,2.73,1.55,4.08,2.36c1.24,0.75,2.42,1.59,3.45,2.62
				c1.38,1.38,2.32,3.01,2.76,4.93c0.04,0.2,0.09,0.4,0.13,0.6c0.04-0.2,0.08-0.4,0.12-0.6c0.44-1.92,1.37-3.55,2.76-4.93
				c1.03-1.03,2.21-1.87,3.45-2.62c1.35-0.81,2.72-1.58,4.08-2.36c1.45-0.83,2.88-1.7,4.22-2.69c0.49-0.36,0.96-0.73,1.43-1.09
				c1.01,0.51,1.39,1.57,1.14,2.61c-0.2,0.83-0.69,1.5-1.24,2.13c-0.66,0.75-1.41,1.41-2.22,2c-0.57,0.41-1.04,0.9-1.28,1.58
				c-0.23,0.64-0.01,1.1,0.61,1.35c0.67,0.27,1.37,0.26,2.08,0.21c1.31-0.1,2.57-0.46,3.79-0.93c2-0.77,3.89-1.74,5.57-3.09
				c0.92-0.74,1.69-1.59,2.24-2.65c0.68-1.28,1.45-2.5,2.36-3.64c0.6-0.75,1.26-1.44,2.09-1.93c0.44-0.26,0.91-0.43,1.45-0.33
				C67.88,38.76,68.32,39.75,67.94,40.33z"/>
			<path class="st4" d="M9.54,46.34c-0.57-0.42-1.01-0.96-1.37-1.56c-0.56-0.91-1.08-1.85-1.64-2.75c-0.3-0.49-0.65-0.95-1.02-1.4
				c-0.21-0.26-0.3-0.53-0.29-0.85c0.01-0.56,0.04-1.13,0.01-1.69c-0.05-0.93,0.99-1.53,1.82-1.13c0.46,0.22,0.78,0.59,1.04,1.02
				c0.5,0.83,0.76,1.75,0.94,2.69c0.31,1.59,0.43,3.19,0.47,4.81c0.01,0.27,0.07,0.54,0.11,0.82C9.6,46.31,9.57,46.32,9.54,46.34z"
				/>
			<path class="st4" d="M12,48.06c-0.63-0.37-1.21-0.79-1.76-1.24c-0.06-0.05-0.11-0.14-0.12-0.21c-0.09-0.45-0.21-0.9-0.23-1.36
				c-0.09-1.55-0.15-3.11-0.48-4.64c-0.01-0.07-0.02-0.14-0.02-0.19c0.43-0.3,0.88-0.3,1.34,0c0.69,0.43,1.02,1.1,1.23,1.85
				c0.32,1.12,0.28,2.25,0.06,3.38c-0.13,0.67-0.14,1.34,0.01,2c0.02,0.1,0.03,0.19,0.04,0.29C12.06,47.96,12.04,47.98,12,48.06z"/>
		</g>
		<path class="st3" d="M51.42,28.48c0.12-0.1,0.19-0.24,0.18-0.4l-0.01-0.22c-0.01-0.26-0.22-0.46-0.48-0.46c-0.25,0-1.25,0-1.5,0
			c-0.31,0-0.63,0-0.94,0.01l-0.09,0c-1.24,0.02-2.53,0.04-3.76,0.57c-0.39,0.17-0.63,0.36-0.73,0.59c0.04-1.34,0.2-2.71,0.63-4.11
			c0.05-0.15,0.02-0.31-0.07-0.43c-0.09-0.12-0.23-0.19-0.38-0.19c0,0-0.01,0-0.01,0c-1.63,0.03-3.12,0.45-4.49,1.25l0.24-0.21
			c0.1-0.09,0.17-0.21,0.17-0.35c0-0.14-0.05-0.27-0.14-0.36l-5.31-5.19c-0.09-0.09-0.21-0.14-0.34-0.14c0,0-0.01,0-0.01,0
			c-0.13,0-0.25,0.06-0.34,0.15l-4.98,5.31c-0.09,0.09-0.13,0.22-0.13,0.35c0,0.13,0.06,0.25,0.15,0.34l0.29,0.27
			c-1.38-0.86-2.97-1.38-4.38-1.38c-0.14,0-0.28,0.01-0.42,0.02c-0.15,0.01-0.28,0.09-0.36,0.21c-0.08,0.12-0.1,0.27-0.06,0.41
			c0.44,1.39,0.59,2.79,0.63,4.16c-0.12-0.45-0.45-0.63-1.2-0.87c-1.11-0.34-2.22-0.39-3.16-0.39c-0.28,0-0.57,0-0.85,0.01
			c-0.42,0.01-0.85,0.03-1.3,0.05c-0.22,0.01-0.44,0.02-0.68,0.03c-0.2,0.01-0.37,0.13-0.43,0.32c-0.07,0.18-0.01,0.39,0.13,0.52
			c0.12,0.11,0.22,0.2,0.32,0.28c0.17,0.14,0.3,0.26,0.41,0.37c1.26,1.25,1.96,2.87,2.52,4.42c0.19,0.53,0.44,1.02,0.72,1.48
			c-0.09-0.11-0.23-0.16-0.36-0.16c-0.1,0-0.21,0.03-0.3,0.1c-1.41,1.11-2.27,2.15-2.8,3.37c-0.06,0.15-0.05,0.32,0.04,0.45
			c0.09,0.13,0.24,0.22,0.4,0.22c0.16,0,0.31-0.01,0.46-0.02c0.12-0.01,0.23-0.02,0.33-0.02c0.11,0,0.19,0.01,0.26,0.03l0.34,0.11
			c0.93,0.31,1.89,0.63,2.73,1.08c1.5,0.79,3.05,1.2,4.62,1.2c0.53,0,1.07-0.05,1.61-0.14c1.11-0.19,2.02-0.49,2.86-0.96
			c0.15-0.08,0.24-0.24,0.25-0.41c0.01-0.17-0.08-0.33-0.22-0.42c-0.12-0.08-0.24-0.14-0.36-0.2c0.06-0.01,0.11-0.01,0.17-0.02
			c0.68,0.52,1.45,0.94,2.33,1.27c0.05,0.02,0.11,0.03,0.17,0.03c0.01,0,0.02,0,0.02,0c0.23,0.09,0.48,0.15,0.71,0.14
			c0.37-0.02,0.74-0.11,1.05-0.31c0.22-0.09,0.43-0.18,0.63-0.29c0.39-0.2,0.84-0.45,1.25-0.75c0.04-0.03,0.07-0.06,0.11-0.09
			c0.05,0.01,0.11,0.02,0.16,0.03c-0.12,0.06-0.24,0.13-0.36,0.21c-0.14,0.1-0.23,0.26-0.21,0.43c0.01,0.17,0.12,0.33,0.27,0.4
			c1.53,0.73,2.98,1.09,4.41,1.09c0.69,0,1.39-0.09,2.06-0.26c0.84-0.21,1.64-0.58,2.41-0.94c0.28-0.13,0.56-0.26,0.84-0.38
			c0.14-0.06,0.28-0.12,0.42-0.19c0.78-0.35,1.52-0.68,2.3-0.68c0.21,0,0.42,0.02,0.63,0.07c0.04,0.01,0.07,0.01,0.11,0.01
			c0.14,0,0.27-0.06,0.36-0.16c0.12-0.13,0.15-0.32,0.09-0.48c-0.46-1.25-1.81-2.86-2.89-3.44c-0.07-0.04-0.15-0.06-0.23-0.06
			c-0.11,0-0.21,0.04-0.3,0.11c0.3-0.47,0.55-0.98,0.75-1.55C48.94,31.69,49.75,29.83,51.42,28.48z"/>
		<g>
			<linearGradient id="SVGID_1_" gradientUnits="userSpaceOnUse" x1="34.3543" y1="40.0275" x2="34.3543" y2="25.9879">
				<stop  offset="2.793296e-03" style="stop-color:#ED1846"/>
				<stop  offset="1" style="stop-color:#F173AC"/>
			</linearGradient>
			<path class="st6" d="M34.83,40.03c0.2-2.02,0.01-3.9-0.51-5.74c-0.66,1.82-0.78,3.69-0.58,5.67c-1.28-0.47-2.32-1.15-3.18-2.09
				c-1.62-1.77-1.59-3.81-0.81-5.9c0.92-2.43,2.66-4.26,4.63-5.98c2.09,1.96,4.06,3.93,4.85,6.78c0.69,2.5,0,4.57-2.1,6.07
				c-0.38,0.27-0.78,0.5-1.19,0.71C35.6,39.72,35.25,39.85,34.83,40.03z"/>
			<linearGradient id="SVGID_2_" gradientUnits="userSpaceOnUse" x1="27.9595" y1="38.1654" x2="27.9595" y2="24.3674">
				<stop  offset="2.793296e-03" style="stop-color:#ED1846"/>
				<stop  offset="1" style="stop-color:#F173AC"/>
			</linearGradient>
			<path class="st7" d="M24.57,24.38c2.27-0.17,5.21,1.26,6.79,3.3c-2.72,3.03-4.29,6.31-2.16,10.49c-0.23-0.16-0.38-0.25-0.53-0.36
				c-0.17-0.12-0.33-0.24-0.49-0.37c-2.02-1.76-3.09-3.95-2.99-6.67C25.28,28.62,25.23,26.49,24.57,24.38z"/>
			<linearGradient id="SVGID_3_" gradientUnits="userSpaceOnUse" x1="40.8081" y1="38.121" x2="40.8081" y2="24.3322">
				<stop  offset="2.793296e-03" style="stop-color:#ED1846"/>
				<stop  offset="1" style="stop-color:#F173AC"/>
			</linearGradient>
			<path class="st8" d="M44.22,24.33c-0.69,2.2-0.71,4.37-0.64,6.54c0.1,2.92-1.45,5.75-3.99,7.25c2.13-4.09,0.57-7.37-2.2-10.46
				C39.21,25.65,41.37,24.39,44.22,24.33z"/>
			<linearGradient id="SVGID_4_" gradientUnits="userSpaceOnUse" x1="34.5108" y1="26.9833" x2="34.5108" y2="19.3413">
				<stop  offset="2.793296e-03" style="stop-color:#ED1846"/>
				<stop  offset="1" style="stop-color:#F173AC"/>
			</linearGradient>
			<path class="st9" d="M31.87,26.98c-0.91-0.85-1.78-1.66-2.51-2.33c1.61-1.72,3.27-3.49,4.98-5.31c1.82,1.78,3.56,3.47,5.31,5.19
				c-0.94,0.8-1.86,1.57-2.79,2.36c-0.79-0.72-1.6-1.46-2.46-2.24C33.56,25.43,32.71,26.21,31.87,26.98z"/>
			<linearGradient id="SVGID_5_" gradientUnits="userSpaceOnUse" x1="46.1421" y1="38.0723" x2="46.1421" y2="27.9023">
				<stop  offset="2.793296e-03" style="stop-color:#ED1846"/>
				<stop  offset="1" style="stop-color:#F173AC"/>
			</linearGradient>
			<path class="st10" d="M51.08,28.13c-1.65,1.32-2.53,3.13-3.2,5.06c-1.04,3.02-3.86,4.62-6.68,4.88c1.62-1.35,2.45-3.11,3.06-5.01
				c0.31-0.94,1.12-1.5,1.84-2.12c0.19-0.17,0.41-0.31,0.61-0.47c-0.02-0.05-0.04-0.1-0.06-0.15c-0.73,0.25-1.46,0.5-2.21,0.75
				c0-0.71-0.03-1.48,0.02-2.25c0.01-0.14,0.3-0.3,0.49-0.39c1.17-0.51,2.42-0.51,3.67-0.53c0.81-0.01,1.62,0,2.44,0
				C51.07,27.98,51.08,28.05,51.08,28.13z"/>
			<linearGradient id="SVGID_6_" gradientUnits="userSpaceOnUse" x1="22.5318" y1="38.0333" x2="22.5318" y2="27.9116">
				<stop  offset="2.793296e-03" style="stop-color:#ED1846"/>
				<stop  offset="1" style="stop-color:#F173AC"/>
			</linearGradient>
			<path class="st11" d="M24.32,31.09c-0.72-0.25-1.46-0.51-2.2-0.77c-0.02,0.04-0.04,0.09-0.06,0.13c0.45,0.38,0.9,0.75,1.34,1.14
				c0.63,0.55,1.06,1.21,1.31,2.03c0.52,1.72,1.4,3.22,2.81,4.42c-1.01,0.07-2.96-0.62-4.08-1.42c-1.18-0.85-2.01-1.96-2.51-3.33
				c-0.61-1.68-1.34-3.31-2.64-4.6c-0.19-0.19-0.41-0.37-0.75-0.67c0.75-0.03,1.36-0.07,1.98-0.08c1.3-0.03,2.6-0.03,3.87,0.36
				c0.92,0.28,0.95,0.33,0.93,1.27C24.3,30.07,24.32,30.59,24.32,31.09z"/>
			<linearGradient id="SVGID_7_" gradientUnits="userSpaceOnUse" x1="24.6856" y1="40.799" x2="24.6856" y2="35.2391">
				<stop  offset="2.793296e-03" style="stop-color:#ED1846"/>
				<stop  offset="1" style="stop-color:#F173AC"/>
			</linearGradient>
			<path class="st12" d="M18.2,38.42c0.55-1.3,1.51-2.28,2.65-3.18c0.4,0.49,0.8,0.97,1.15,1.41c-0.45,0.22-0.92,0.44-1.38,0.67
				c0.02,0.07,0.04,0.13,0.07,0.2c1.47-0.26,2.77,0.21,4.05,0.86c1.2,0.61,2.55,0.62,3.86,0.75c0.86,0.09,1.75,0.11,2.58,0.64
				c-0.88,0.49-1.78,0.75-2.7,0.9c-2.09,0.35-4.04-0.01-5.92-1.01c-0.99-0.52-2.08-0.86-3.15-1.22
				C19.06,38.32,18.64,38.42,18.2,38.42z"/>
			<linearGradient id="SVGID_8_" gradientUnits="userSpaceOnUse" x1="44.0655" y1="40.8258" x2="44.0655" y2="35.2786">
				<stop  offset="2.793296e-03" style="stop-color:#ED1846"/>
				<stop  offset="1" style="stop-color:#F173AC"/>
			</linearGradient>
			<path class="st13" d="M37.58,39.78c0.83-0.55,1.7-0.54,2.54-0.66c1.05-0.15,2.09-0.29,3.13-0.46c0.29-0.05,0.58-0.15,0.84-0.3
				c1.24-0.71,2.54-1.09,3.99-0.86c0.02-0.06,0.04-0.12,0.07-0.18c-0.45-0.23-0.9-0.46-1.36-0.69c0.32-0.4,0.71-0.88,1.09-1.36
				c0.98,0.53,2.26,2.05,2.67,3.18c-1.35-0.32-2.48,0.31-3.65,0.82c-1.05,0.46-2.08,1.02-3.18,1.3
				C41.64,41.11,39.61,40.75,37.58,39.78z"/>
		</g>
	</g>
	<g>
		<text transform="matrix(1 0 0 1 72.6938 22.4432)"><tspan x="0" y="0" class="st14 st15 st16">GREAT</tspan><tspan x="0" y="18.66" class="st14 st17 st16">COMPASSION</tspan><tspan x="0" y="37.32" class="st14 st15 st16">FUND</tspan></text>
	</g>
</g>
</svg>
