<?xml version="1.0" encoding="utf-8"?>
<!-- Generator: Adobe Illustrator 25.1.0, SVG Export Plug-In . SVG Version: 6.00 Build 0)  -->
<svg version="1.1" id="Layer_1" xmlns="http://www.w3.org/2000/svg" xmlns:xlink="http://www.w3.org/1999/xlink" x="0px" y="0px"
	 viewBox="0 0 408.8 408.8" style="enable-background:new 0 0 408.8 408.8;" xml:space="preserve">
<g>
	<path d="M408.8,97.28c-6.63,10.68-13.3,21.34-19.82,32.09c-0.67,1.1-0.83,2.79-0.63,4.11c5.68,36.47,3.72,72.35-8.51,107.36
		c-8.99,25.74-22.93,48.63-40.2,69.7c-28.66,34.95-65.41,56.07-109.3,65.34c-29.75,6.28-59.78,7.57-90.05,4.94
		c-33.54-2.92-66.2-9.7-97.32-22.66c-9.23-3.84-17.64-9.65-26.38-14.64c-1.25-0.71-2.27-1.84-3.33-2.85
		c-4.54-4.33-5.93-9.42-3.97-14.38c1.99-5.04,6.36-7.67,12.71-7.79c12.63-0.24,25.29,0,37.87-0.93
		c21.47-1.59,41.32-8.15,59.01-22.09c-2.28-0.69-4.17-1.3-6.08-1.84c-22.81-6.51-44.27-15.77-62.76-31
		c-3.69-3.04-7.25-6.28-10.54-9.75c-6.65-7.01-3.84-17.48,5.4-20.38c4.11-1.29,8.32-2.28,13.1-3.58c-5.07-3.12-9.57-5.66-13.84-8.54
		c-20.05-13.48-33.57-31.88-40.69-54.93c-1.41-4.55-2.49-9.24-3.29-13.94c-1.55-9.22,6.44-16.29,15.66-13.95
		c4.09,1.04,8.1,2.42,12.47,3.74c-2.16-6.33-4.65-12.24-6.2-18.39c-6.05-24-2.99-46.64,11.1-67.36c6.24-9.17,16.72-8.91,22.22,0.78
		c8.72,15.34,18.79,29.64,31.16,42.25c25.69,26.19,56.51,42.88,92.56,49.79c5.07,0.97,10.2,1.6,15.37,2.4
		c0.37-6.6,0.52-12.96,1.12-19.28c3.76-39.44,30.87-77.51,72.66-86.41c18.97-4.04,37.26-2.1,54.81,6.1c2.7,1.26,4.7,1.29,7.37-0.05
		c15.07-7.57,30.19-15.04,45.43-22.25c2.98-1.41,6.71-2.55,9.84-2.1c8.64,1.24,12.45,9.98,8.37,18.42
		c-5.32,11-10.86,21.9-16.29,32.85c-0.69,1.4-1.29,2.84-2.27,5.02c5.4-0.39,10.29-0.28,14.99-1.17c8.18-1.56,14.27,0.72,18.23,8.18
		C408.8,92.49,408.8,94.89,408.8,97.28z M73.64,249.57c0.47,0.37,1.01,0.97,1.68,1.29c10.85,5.24,21.37,11.46,32.69,15.38
		c12.08,4.19,24.88,6.35,37.43,9.11c5.31,1.17,9.64,3.3,11.37,8.7c1.55,4.82,0.21,9.12-3.22,12.85
		c-21.17,23.03-46.57,38.45-77.86,43.26c-2,0.31-3.97,0.83-5.96,1.25c5.63,2.38,11.13,4.44,16.8,5.63
		c13.11,2.75,26.24,5.52,39.48,7.48c31.82,4.7,63.63,4.25,95.25-1.8c41.22-7.88,75.32-27.52,101.78-60.63
		c35.98-45,49.95-95.66,41.15-152.52c-1.48-9.54-1.02-18.19,5.47-25.87c1.23-1.46,2.04-3.28,3.39-5.49
		c-3.12,0.19-5.5,0.32-7.87,0.48c-3.58,0.24-7.16,0.75-10.74,0.7c-7.69-0.12-12.9-6.18-11.85-13.76c0.28-2.04,1.24-4.04,2.15-5.93
		c3.72-7.71,7.54-15.38,11.83-24.09c-7.88,3.85-14.88,6.95-21.56,10.62c-6.26,3.44-11.85,3.18-17.95-0.54
		c-11.14-6.79-23.52-9.19-36.4-7.82c-34.9,3.71-55.99,32.82-60.4,62.89c-1.48,10.1-0.65,20.09,0.77,30.16
		c1.41,9.97-4.3,15.94-14.27,15.18c-9.53-0.72-19.11-1.45-28.5-3.11c-49.24-8.69-89.65-32.65-121.46-71.15
		c-3.78-4.57-7.3-9.36-11.13-14.29c-0.39,1.14-0.75,1.87-0.89,2.64c-2.28,12.81-0.95,25.34,4.79,36.93
		c3.44,6.94,8.32,13.2,12.86,19.54c5.5,7.69,2.23,17.62-6.87,19.82c-2.44,0.59-4.98,0.96-7.48,1.02
		c-5.86,0.15-11.73,0.05-17.78,0.05c4.63,11.1,11.91,20.1,21.02,27.68c11.53,9.61,24.89,15.63,39.26,19.58
		c5.75,1.58,9.78,5,10.39,11.19c0.57,5.83-2.49,9.84-7.42,12.57C86.98,242.23,80.36,245.87,73.64,249.57z"/>
</g>
</svg>
